SplineFontDB: 3.0
FontName: ETBembo-DisplayItalic
FullName: ETBembo DisplayItalic
FamilyName: ETBembo
Weight: Book
Copyright: ETBembo Italic designed for Eward Tufte / Graphics Press (c) 2004 Dmitry Krasny / Deka Design
Version: 001.001
ItalicAngle: 0
UnderlinePosition: -329
UnderlineWidth: 102
Ascent: 1638
Descent: 410
InvalidEm: 0
sfntRevision: 0x00010041
LayerCount: 2
Layer: 0 1 "Back" 1
Layer: 1 1 "Fore" 0
XUID: [1021 354 -364515948 2231953]
StyleMap: 0x0001
FSType: 4
OS2Version: 2
OS2_WeightWidthSlopeOnly: 0
OS2_UseTypoMetrics: 0
CreationTime: 1394506238
ModificationTime: 1523420176
PfmFamily: 17
TTFWeight: 400
TTFWidth: 5
LineGap: 0
VLineGap: 0
Panose: 2 0 5 3 0 0 0 0 0 0
OS2TypoAscent: 1638
OS2TypoAOffset: 0
OS2TypoDescent: -410
OS2TypoDOffset: 0
OS2TypoLinegap: 0
OS2WinAscent: 1821
OS2WinAOffset: 0
OS2WinDescent: 628
OS2WinDOffset: 0
HheadAscent: 1821
HheadAOffset: 0
HheadDescent: -628
HheadDOffset: 0
OS2SubXSize: 1331
OS2SubYSize: 1434
OS2SubXOff: 0
OS2SubYOff: 287
OS2SupXSize: 1331
OS2SupYSize: 1434
OS2SupXOff: 0
OS2SupYOff: 983
OS2StrikeYSize: 100
OS2StrikeYPos: 528
OS2Vendor: 'PfEd'
OS2CodePages: 00000001.00000000
OS2UnicodeRanges: 800000a7.4000004a.00000000.00000000
Lookup: 4 0 1 "'liga' Standard Ligatures in Latin lookup 0" { "'liga' Standard Ligatures in Latin lookup 0-1"  } ['liga' ('DFLT' <'dflt' > 'latn' <'dflt' > ) ]
MarkAttachClasses: 1
DEI: 91125
TtTable: prep
PUSHW_1
 511
SCANCTRL
PUSHB_1
 1
SCANTYPE
SVTCA[y-axis]
MPPEM
PUSHB_1
 8
LT
IF
PUSHB_2
 1
 1
INSTCTRL
EIF
PUSHB_2
 70
 6
CALL
IF
POP
PUSHB_1
 16
EIF
MPPEM
PUSHB_1
 20
GT
IF
POP
PUSHB_1
 128
EIF
SCVTCI
PUSHB_1
 6
CALL
NOT
IF
SVTCA[y-axis]
PUSHB_1
 3
DUP
RCVT
PUSHB_1
 3
CALL
WCVTP
PUSHB_1
 4
DUP
RCVT
PUSHW_3
 3
 298
 2
CALL
PUSHB_1
 3
CALL
WCVTP
PUSHB_1
 5
DUP
RCVT
PUSHB_3
 4
 98
 2
CALL
PUSHB_1
 3
CALL
WCVTP
PUSHB_1
 6
DUP
RCVT
PUSHB_3
 5
 59
 2
CALL
PUSHB_1
 3
CALL
WCVTP
PUSHB_1
 7
DUP
RCVT
PUSHB_3
 6
 53
 2
CALL
PUSHB_1
 3
CALL
WCVTP
SVTCA[x-axis]
PUSHB_1
 8
DUP
RCVT
PUSHB_1
 3
CALL

StartChar: .notdef
Encoding: 65536 -1 0
Width: 748
Flags: W
LayerCount: 2
Fore
SplineSet
68 0 m 1,0,-1
 68 1365 l 1,1,-1
 612 1365 l 1,2,-1
 612 0 l 1,3,-1
 68 0 l 1,0,-1
136 68 m 1,4,-1
 544 68 l 1,5,-1
 544 1297 l 1,6,-1
 136 1297 l 1,7,-1
 136 68 l 1,4,-1
EndSplineSet
Validated: 1
EndChar

StartChar: exclam
Encoding: 33 33 4
Width: 608
GlyphClass: 2
Flags: W
LayerCount: 2
Fore
SplineSet
178 72 m 0,0,1
 178 82 178 82 180 88 c 0,2,3
 186 137 186 137 214 168 c 128,-1,4
 242 199 242 199 283 199 c 0,5,6
 320 199 320 199 343.5 171 c 128,-1,7
 367 143 367 143 367 98 c 0,8,9
 367 45 367 45 337 8 c 128,-1,10
 307 -29 307 -29 264 -29 c 0,11,12
 225 -29 225 -29 201.5 -1 c 128,-1,13
 178 27 178 27 178 72 c 0,0,1
303 362 m 2,14,-1
 426 1278 l 2,15,16
 434 1333 434 1333 444.5 1344.5 c 128,-1,17
 455 1356 455 1356 500 1356 c 2,18,-1
 543 1356 l 2,19,20
 582 1356 582 1356 596 1349 c 128,-1,21
 610 1342 610 1342 610 1317 c 0,22,23
 610 1303 610 1303 604 1280 c 2,24,-1
 350 362 l 2,25,26
 344 350 344 350 331.5 347 c 128,-1,27
 319 344 319 344 311 349 c 128,-1,28
 303 354 303 354 303 362 c 2,14,-1
EndSplineSet
Validated: 1
EndChar

StartChar: quotedbl
Encoding: 34 34 5
Width: 868
GlyphClass: 2
Flags: W
LayerCount: 2
Fore
SplineSet
344 745 m 1,0,-1
 377 1055 l 2,1,2
 395 1231 395 1231 429 1293.5 c 128,-1,3
 463 1356 463 1356 543 1356 c 0,4,5
 578 1356 578 1356 600.5 1334.5 c 128,-1,6
 623 1313 623 1313 623 1278 c 0,7,8
 623 1249 623 1249 608 1212 c 0,9,10
 602 1194 602 1194 537 1053 c 2,11,-1
 397 745 l 1,12,-1
 344 745 l 1,0,-1
717 745 m 1,13,-1
 748 1051 l 1,14,-1
 758 1155 l 2,15,16
 768 1247 768 1247 810 1301.5 c 128,-1,17
 852 1356 852 1356 915 1356 c 0,18,19
 952 1356 952 1356 973.5 1335.5 c 128,-1,20
 995 1315 995 1315 995 1280 c 0,21,22
 995 1227 995 1227 915 1051 c 2,23,-1
 774 745 l 1,24,-1
 717 745 l 1,13,-1
EndSplineSet
Validated: 1
EndChar

StartChar: numbersign
Encoding: 35 35 6
Width: 1392
GlyphClass: 2
Flags: W
LayerCount: 2
Fore
SplineSet
90 373 m 1,0,-1
 90 489 l 1,1,-1
 322 489 l 1,2,-1
 403 883 l 1,3,-1
 90 883 l 1,4,-1
 90 999 l 1,5,-1
 428 999 l 1,6,-1
 516 1425 l 1,7,-1
 629 1425 l 1,8,-1
 541 999 l 1,9,-1
 979 999 l 1,10,-1
 1067 1425 l 1,11,-1
 1180 1425 l 1,12,-1
 1092 999 l 1,13,-1
 1298 999 l 1,14,-1
 1298 883 l 1,15,-1
 1069 883 l 1,16,-1
 987 489 l 1,17,-1
 1298 489 l 1,18,-1
 1298 373 l 1,19,-1
 965 373 l 1,20,-1
 881 -51 l 1,21,-1
 764 -51 l 1,22,-1
 854 373 l 1,23,-1
 412 373 l 1,24,-1
 328 -51 l 1,25,-1
 213 -51 l 1,26,-1
 299 373 l 1,27,-1
 90 373 l 1,0,-1
434 492 m 1,28,-1
 877 492 l 1,29,-1
 956 883 l 1,30,-1
 516 883 l 1,31,-1
 434 492 l 1,28,-1
EndSplineSet
Validated: 1
EndChar

StartChar: dollar
Encoding: 36 36 7
Width: 966
GlyphClass: 2
Flags: W
LayerCount: 2
Fore
SplineSet
141 217 m 0,0,1
 141 260 141 260 164.5 286.5 c 128,-1,2
 188 313 188 313 225 313 c 0,3,4
 256 313 256 313 276.5 290.5 c 128,-1,5
 297 268 297 268 297 236 c 0,6,7
 297 224 297 224 293 195 c 128,-1,8
 289 166 289 166 289 152 c 0,9,10
 289 91 289 91 344 47 c 1,11,-1
 453 571 l 2,12,13
 461 610 461 610 444 631 c 0,14,15
 319 762 319 762 319 918 c 0,16,17
 319 1045 319 1045 391 1132 c 128,-1,18
 463 1219 463 1219 590 1241 c 1,19,-1
 612 1360 l 2,20,21
 616 1376 616 1376 643 1376 c 0,22,23
 668 1376 668 1376 662 1358 c 2,24,-1
 643 1264 l 2,25,26
 641 1256 641 1256 647 1251.5 c 128,-1,27
 653 1247 653 1247 662 1247 c 0,28,29
 699 1247 699 1247 715 1245 c 0,30,31
 742 1245 742 1245 743 1264 c 2,32,-1
 762 1360 l 2,33,34
 762 1376 762 1376 786 1376 c 0,35,36
 796 1376 796 1376 803.5 1371 c 128,-1,37
 811 1366 811 1366 809 1358 c 2,38,-1
 791 1260 l 2,39,40
 787 1235 787 1235 809 1227 c 0,41,42
 885 1200 885 1200 928 1144 c 128,-1,43
 971 1088 971 1088 971 1008 c 0,44,45
 971 897 971 897 901 897 c 0,46,47
 870 897 870 897 853 919.5 c 128,-1,48
 836 942 836 942 836 977 c 0,49,50
 836 1002 836 1002 848 1055 c 0,51,52
 848 1057 848 1057 849 1065 c 128,-1,53
 850 1073 850 1073 850 1077 c 0,54,55
 850 1130 850 1130 795 1165 c 0,56,57
 783 1173 783 1173 776.5 1169 c 128,-1,58
 770 1165 770 1165 766 1145 c 2,59,-1
 659 621 l 1,60,61
 843 445 843 445 844 289 c 0,62,63
 844 162 844 162 764 78 c 128,-1,64
 684 -6 684 -6 547 -27 c 0,65,66
 524 -31 524 -31 518 -61 c 2,67,-1
 496 -180 l 2,68,69
 492 -194 492 -194 467 -195 c 0,70,71
 457 -195 457 -195 451.5 -190.5 c 128,-1,72
 446 -186 446 -186 449 -180 c 2,73,-1
 471 -59 l 1,74,75
 471 -34 471 -34 453 -33 c 0,76,77
 428 -33 428 -33 399 -29 c 0,78,79
 387 -31 387 -31 375 -51 c 1,80,-1
 344 -182 l 2,81,82
 338 -196 338 -196 315 -193 c 0,83,84
 307 -191 307 -191 302 -187.5 c 128,-1,85
 297 -184 297 -184 299 -178 c 2,86,-1
 332 -12 l 1,87,88
 246 21 246 21 193.5 82 c 128,-1,89
 141 143 141 143 141 217 c 0,0,1
395 59 m 2,90,91
 395 53 395 53 396 46 c 128,-1,92
 397 39 397 39 397 37 c 128,-1,93
 397 35 397 35 398 32 c 128,-1,94
 399 29 399 29 402.5 28 c 128,-1,95
 406 27 406 27 412 25 c 0,96,97
 449 19 449 19 475 18 c 0,98,99
 481 18 481 18 483 22.5 c 128,-1,100
 485 27 485 27 488.5 36 c 128,-1,101
 492 45 492 45 496 51 c 2,102,-1
 578 451 l 2,103,104
 584 484 584 484 569 500 c 0,105,106
 563 506 563 506 554 516 c 128,-1,107
 545 526 545 526 536.5 534.5 c 128,-1,108
 528 543 528 543 520 549 c 0,109,110
 504 557 504 557 492 524 c 1,111,-1
 395 59 l 2,90,91
430 973 m 0,112,113
 430 903 430 903 471 834 c 0,114,115
 496 793 496 793 502 819 c 2,116,-1
 569 1143 l 2,117,118
 573 1166 573 1166 570 1171 c 128,-1,119
 567 1176 567 1176 547 1167 c 0,120,121
 430 1101 430 1101 430 973 c 0,112,113
535 743 m 1,122,123
 547 729 547 729 569.5 708.5 c 128,-1,124
 592 688 592 688 602 676 c 0,125,126
 620 662 620 662 625 682 c 2,127,-1
 721 1155 l 2,128,129
 729 1192 729 1192 707 1194 c 0,130,131
 676 1196 676 1196 645 1194 c 0,132,133
 629 1194 629 1194 623 1171 c 2,134,-1
 535 743 l 1,122,123
545 46 m 128,-1,136
 545 43 545 43 546 38 c 128,-1,137
 547 33 547 33 549 31 c 128,-1,138
 551 29 551 29 555 31 c 0,139,140
 625 56 625 56 667 113 c 128,-1,141
 709 170 709 170 709 244 c 0,142,143
 709 328 709 328 637 422 c 0,144,145
 623 436 623 436 616 416 c 2,146,-1
 545 63 l 2,147,148
 545 61 545 61 545 57 c 0,149,135
 545 49 545 49 545 46 c 128,-1,136
EndSplineSet
Validated: 1
EndChar

StartChar: percent
Encoding: 37 37 8
Width: 1497
GlyphClass: 2
Flags: W
LayerCount: 2
Fore
SplineSet
225 950 m 0,0,1
 254 1102 254 1102 355.5 1207.5 c 128,-1,2
 457 1313 457 1313 573 1313 c 0,3,4
 694 1313 694 1313 752.5 1205.5 c 128,-1,5
 811 1098 811 1098 782 946 c 0,6,7
 753 792 753 792 653 688 c 128,-1,8
 553 584 553 584 436 584 c 0,9,10
 315 584 315 584 256 690.5 c 128,-1,11
 197 797 197 797 225 950 c 0,0,1
367 946 m 0,12,13
 308 641 308 641 442 641 c 0,14,15
 582 641 582 641 639 950 c 0,16,17
 698 1255 698 1255 567 1255 c 0,18,19
 428 1255 428 1255 367 946 c 0,12,13
391.5 -30.5 m 128,-1,21
 385 -18 385 -18 395 0 c 0,22,23
 903 774 903 774 1085 1047 c 0,24,25
 1136 1125 1136 1125 1249 1292 c 0,26,27
 1269 1319 1269 1319 1288 1317 c 2,28,-1
 1339 1313 l 1,29,30
 1353 1305 1353 1305 1351 1293.5 c 128,-1,31
 1349 1282 1349 1282 1341 1276 c 2,32,-1
 485 -20 l 2,33,34
 467 -45 467 -45 444 -45 c 2,35,-1
 416 -45 l 2,36,20
 398 -43 398 -43 391.5 -30.5 c 128,-1,21
983 403 m 0,37,38
 1012 555 1012 555 1113 660.5 c 128,-1,39
 1214 766 1214 766 1331 766 c 0,40,41
 1450 766 1450 766 1509.5 658.5 c 128,-1,42
 1569 551 1569 551 1540 397 c 0,43,44
 1511 245 1511 245 1411 140 c 128,-1,45
 1311 35 1311 35 1194 35 c 0,46,47
 1073 35 1073 35 1013.5 142.5 c 128,-1,48
 954 250 954 250 983 403 c 0,37,38
1124 397 m 0,49,50
 1065 94 1065 94 1200 94 c 0,51,52
 1340 94 1340 94 1397 403 c 0,53,54
 1456 708 1456 708 1325 709 c 0,55,56
 1186 709 1186 709 1124 397 c 0,49,50
EndSplineSet
Validated: 33
EndChar

StartChar: ampersand
Encoding: 38 38 9
Width: 1474
GlyphClass: 2
Flags: W
LayerCount: 2
Fore
SplineSet
188 383 m 0,0,1
 188 512 188 512 280.5 613.5 c 128,-1,2
 373 715 373 715 520 754 c 0,3,4
 551 762 551 762 551 774 c 0,5,6
 551 780 551 780 545 782 c 0,7,8
 361 852 361 852 360 1008 c 0,9,10
 360 1158 360 1158 499.5 1258 c 128,-1,11
 639 1358 639 1358 840 1358 c 0,12,13
 908 1358 908 1358 984.5 1341.5 c 128,-1,14
 1061 1325 1061 1325 1131.5 1275 c 128,-1,15
 1202 1225 1202 1225 1202 1151 c 0,16,17
 1202 1122 1202 1122 1180.5 1101.5 c 128,-1,18
 1159 1081 1159 1081 1130 1081 c 0,19,20
 1077 1081 1077 1081 1049 1157 c 0,21,22
 1047 1163 1047 1163 1043.5 1177.5 c 128,-1,23
 1040 1192 1040 1192 1038 1198 c 0,24,25
 1013 1296 1013 1296 854 1296 c 0,26,27
 713 1296 713 1296 625 1210 c 128,-1,28
 537 1124 537 1124 537 981 c 0,29,30
 537 899 537 899 576.5 846 c 128,-1,31
 616 793 616 793 676 793 c 0,32,33
 682 793 682 793 699.5 795 c 128,-1,34
 717 797 717 797 731 797 c 128,-1,35
 745 797 745 797 760.5 795 c 128,-1,36
 776 793 776 793 785.5 783.5 c 128,-1,37
 795 774 795 774 795 760 c 0,38,39
 795 740 795 740 783.5 729.5 c 128,-1,40
 772 719 772 719 752.5 717 c 128,-1,41
 733 715 733 715 714.5 716 c 128,-1,42
 696 717 696 717 672.5 720 c 128,-1,43
 649 723 649 723 641 723 c 0,44,45
 528 723 528 723 453.5 638 c 128,-1,46
 379 553 379 553 379 424 c 0,47,48
 379 252 379 252 492.5 149.5 c 128,-1,49
 606 47 606 47 799 47 c 0,50,51
 963 47 963 47 1118.5 150.5 c 128,-1,52
 1274 254 1274 254 1274 414 c 0,53,54
 1274 498 1274 498 1220.5 548 c 128,-1,55
 1167 598 1167 598 1071 598 c 0,56,57
 1008 598 1008 598 960.5 580.5 c 128,-1,58
 913 563 913 563 913 543 c 0,59,60
 913 531 913 531 928 516 c 0,61,62
 959 485 959 485 961 457 c 0,63,64
 963 404 963 404 915 395 c 0,65,66
 866 385 866 385 840 436 c 0,67,68
 832 454 832 454 829 475 c 0,69,70
 823 538 823 538 897 616 c 0,71,72
 944 663 944 663 1006.5 682.5 c 128,-1,73
 1069 702 1069 702 1180 702 c 0,74,75
 1213 702 1213 702 1279.5 700 c 128,-1,76
 1346 698 1346 698 1378 698 c 0,77,78
 1433 698 1433 698 1467 712.5 c 128,-1,79
 1501 727 1501 727 1501 748 c 0,80,81
 1501 760 1501 760 1483.5 781.5 c 128,-1,82
 1466 803 1466 803 1464 821 c 0,83,84
 1464 872 1464 872 1522 872 c 0,85,86
 1551 872 1551 872 1566 853 c 128,-1,87
 1581 834 1581 834 1581 805 c 0,88,89
 1581 717 1581 717 1501 661.5 c 128,-1,90
 1421 606 1421 606 1282 596 c 0,91,92
 1245 596 1245 596 1249 586 c 0,93,94
 1251 584 1251 584 1255 580 c 0,95,96
 1337 510 1337 510 1337 414 c 0,97,98
 1337 275 1337 275 1235 167 c 128,-1,99
 1133 59 1133 59 997.5 10 c 128,-1,100
 862 -39 862 -39 731 -39 c 128,-1,101
 600 -39 600 -39 481 2 c 128,-1,102
 362 43 362 43 275 142.5 c 128,-1,103
 188 242 188 242 188 383 c 0,0,1
EndSplineSet
Validated: 33
EndChar

StartChar: quotesingle
Encoding: 39 39 10
Width: 456
GlyphClass: 2
Flags: W
LayerCount: 2
Fore
SplineSet
322 791 m 2,0,-1
 344 1042 l 2,1,2
 348 1103 348 1103 354 1137 c 128,-1,3
 360 1171 360 1171 376.5 1232.5 c 128,-1,4
 393 1294 393 1294 428 1325 c 128,-1,5
 463 1356 463 1356 514 1356 c 128,-1,6
 565 1356 565 1356 583.5 1323 c 128,-1,7
 602 1290 602 1290 591 1235 c 128,-1,8
 580 1180 580 1180 558.5 1123.5 c 128,-1,9
 537 1067 537 1067 502 1001 c 2,10,-1
 385 776 l 2,11,12
 369 747 369 747 356 745 c 0,13,14
 352 743 352 743 344 743 c 0,15,16
 321 743 321 743 322 791 c 2,0,-1
EndSplineSet
Validated: 33
EndChar

StartChar: parenleft
Encoding: 40 40 11
Width: 626
GlyphClass: 2
Flags: W
LayerCount: 2
Fore
SplineSet
205 248 m 0,0,1
 205 836 205 836 786 1413 c 0,2,3
 809 1434 809 1434 819 1415.5 c 128,-1,4
 829 1397 829 1397 811 1376 c 0,5,6
 498 997 498 997 375 522 c 0,7,8
 250 39 250 39 420 -444 c 0,9,10
 432 -481 432 -481 412 -489 c 0,11,12
 392 -499 392 -499 377 -465 c 0,13,14
 205 -88 205 -88 205 248 c 0,0,1
EndSplineSet
Validated: 33
EndChar

StartChar: parenright
Encoding: 41 41 12
Width: 585
GlyphClass: 2
Flags: W
LayerCount: 2
Fore
SplineSet
-82 -481 m 0,0,1
 -92 -463 -92 -463 -66 -428 c 0,2,3
 81 -256 81 -256 178 -74 c 1,4,5
 295 157 295 157 362 414 c 0,6,7
 481 877 481 877 315 1384 c 0,8,9
 307 1413 307 1413 324 1423 c 0,10,11
 342 1433 342 1433 360 1397 c 0,12,13
 532 1018 532 1018 532 686 c 0,14,15
 532 289 532 289 262 -109 c 0,16,17
 125 -310 125 -310 -41 -471 c 0,18,19
 -70 -500 -70 -500 -82 -481 c 0,0,1
EndSplineSet
Validated: 33
EndChar

StartChar: asterisk
Encoding: 42 42 13
Width: 1140
GlyphClass: 2
Flags: W
LayerCount: 2
Fore
SplineSet
197 770 m 0,0,1
 197 819 197 819 220.5 837.5 c 128,-1,2
 244 856 244 856 299 868 c 0,3,4
 365 880 365 880 414 897 c 0,5,6
 471 913 471 913 532 950 c 1,7,8
 567 964 567 964 537 981 c 0,9,10
 469 1016 469 1016 412 1032 c 0,11,12
 387 1040 387 1040 297 1063 c 0,13,14
 244 1077 244 1077 220.5 1096.5 c 128,-1,15
 197 1116 197 1116 197 1161 c 0,16,17
 197 1173 197 1173 203 1188.5 c 128,-1,18
 209 1204 209 1204 228.5 1219.5 c 128,-1,19
 248 1235 248 1235 279 1235 c 0,20,21
 316 1235 316 1235 356 1190 c 0,22,23
 360 1186 360 1186 368.5 1175.5 c 128,-1,24
 377 1165 377 1165 383 1159 c 0,25,26
 457 1071 457 1071 549 1014 c 0,27,28
 565 1004 565 1004 570 1008 c 128,-1,29
 575 1012 575 1012 575 1032 c 0,30,31
 569 1145 569 1145 547 1214 c 0,32,33
 520 1302 520 1302 520 1339 c 0,34,35
 520 1372 520 1372 539.5 1397.5 c 128,-1,36
 559 1423 559 1423 596 1423 c 128,-1,37
 633 1423 633 1423 653.5 1397.5 c 128,-1,38
 674 1372 674 1372 674 1339 c 0,39,40
 674 1310 674 1310 645 1214 c 0,41,42
 618 1122 618 1122 616 1032 c 0,43,44
 614 1007 614 1007 623.5 1006.5 c 128,-1,45
 633 1006 633 1006 649 1018 c 0,46,47
 737 1073 737 1073 811 1159 c 0,48,49
 827 1179 827 1179 838 1190 c 0,50,51
 875 1235 875 1235 913 1235 c 0,52,53
 958 1235 958 1235 976.5 1209.5 c 128,-1,54
 995 1184 995 1184 995 1161 c 0,55,56
 995 1116 995 1116 971.5 1096.5 c 128,-1,57
 948 1077 948 1077 895 1063 c 0,58,59
 782 1032 782 1032 780 1032 c 0,60,61
 725 1016 725 1016 659 983 c 0,62,63
 645 975 645 975 642 971 c 128,-1,64
 639 967 639 967 643 962.5 c 128,-1,65
 647 958 647 958 659 950 c 0,66,67
 722 913 722 913 780 897 c 0,68,69
 829 881 829 881 895 868 c 0,70,71
 950 856 950 856 972.5 837.5 c 128,-1,72
 995 819 995 819 995 770 c 0,73,74
 995 743 995 743 974.5 720.5 c 128,-1,75
 954 698 954 698 924 698 c 0,76,77
 873 698 873 698 834 743 c 0,78,79
 820 757 820 757 807 776 c 0,80,81
 735 866 735 866 645 922 c 0,82,83
 618 936 618 936 618 911 c 0,84,85
 620 782 620 782 647 707 c 0,86,87
 649 699 649 699 654 688.5 c 128,-1,88
 659 678 659 678 662.5 671 c 128,-1,89
 666 664 666 664 668 655 c 0,90,91
 676 622 676 622 676 596 c 0,92,93
 676 557 676 557 654.5 531.5 c 128,-1,94
 633 506 633 506 596 506 c 128,-1,95
 559 506 559 506 537.5 531.5 c 128,-1,96
 516 557 516 557 516 596 c 0,97,98
 516 629 516 629 526 655 c 0,99,100
 528 663 528 663 535.5 680.5 c 128,-1,101
 543 698 543 698 545 707 c 0,102,103
 572 770 572 770 573 905 c 0,104,105
 573 936 573 936 549 922 c 0,106,107
 463 871 463 871 387 776 c 0,108,109
 354 735 354 735 334 721 c 0,110,111
 307 698 307 698 270 698 c 0,112,113
 237 698 237 698 217 720.5 c 128,-1,114
 197 743 197 743 197 770 c 0,0,1
EndSplineSet
Validated: 1
EndChar

StartChar: plus
Encoding: 43 43 14
Width: 1390
GlyphClass: 2
Flags: W
LayerCount: 2
Fore
SplineSet
141 623 m 1,0,-1
 141 741 l 1,1,-1
 633 741 l 1,2,-1
 633 1245 l 1,3,-1
 752 1245 l 1,4,-1
 752 741 l 1,5,-1
 1247 741 l 1,6,-1
 1247 623 l 1,7,-1
 752 623 l 1,8,-1
 752 123 l 1,9,-1
 633 123 l 1,10,-1
 633 623 l 1,11,-1
 141 623 l 1,0,-1
EndSplineSet
Validated: 1
EndChar

StartChar: comma
Encoding: 44 44 15
Width: 526
GlyphClass: 2
Flags: W
LayerCount: 2
Fore
SplineSet
110 -345 m 128,-1,1
 104 -328 104 -328 121 -315 c 0,2,3
 125 -313 125 -313 165 -282.5 c 128,-1,4
 205 -252 205 -252 216 -239.5 c 128,-1,5
 227 -227 227 -227 253 -200.5 c 128,-1,6
 279 -174 279 -174 288 -148.5 c 128,-1,7
 297 -123 297 -123 297 -94 c 0,8,9
 297 -57 297 -57 264 -4 c 0,10,11
 231 57 231 57 231 80 c 0,12,13
 231 121 231 121 260 151.5 c 128,-1,14
 289 182 289 182 324 182 c 0,15,16
 369 182 369 182 397.5 139 c 128,-1,17
 426 96 426 96 426 35 c 0,18,19
 426 -186 426 -186 141 -354 c 1,20,0
 116 -362 116 -362 110 -345 c 128,-1,1
EndSplineSet
Validated: 1
EndChar

StartChar: hyphen
Encoding: 45 45 16
Width: 679
GlyphClass: 2
Flags: W
LayerCount: 2
Fore
SplineSet
123 382 m 128,-1,1
 119 387 119 387 123 422 c 0,2,3
 123 434 123 434 131 463 c 0,4,5
 139 486 139 486 147 487 c 0,6,7
 155 489 155 489 174 489 c 2,8,-1
 602 489 l 2,9,10
 612 489 612 489 616.5 488 c 128,-1,11
 621 487 621 487 625 481 c 128,-1,12
 629 475 629 475 625 463 c 0,13,14
 621 426 621 426 612 395 c 0,15,16
 604 372 604 372 586 377 c 1,17,-1
 160 377 l 2,18,0
 127 377 127 377 123 382 c 128,-1,1
EndSplineSet
Validated: 1
EndChar

StartChar: period
Encoding: 46 46 17
Width: 499
GlyphClass: 2
Flags: W
LayerCount: 2
Fore
SplineSet
158 86 m 0,0,1
 162 133 162 133 191.5 165 c 128,-1,2
 221 197 221 197 260 197 c 128,-1,3
 299 197 299 197 321.5 169 c 128,-1,4
 344 141 344 141 344 98 c 0,5,6
 344 45 344 45 315.5 8 c 128,-1,7
 287 -29 287 -29 242 -29 c 0,8,9
 195 -29 195 -29 173.5 5 c 128,-1,10
 152 39 152 39 158 86 c 0,0,1
EndSplineSet
Validated: 33
EndChar

StartChar: slash
Encoding: 47 47 18
Width: 714
GlyphClass: 2
Flags: W
LayerCount: 2
Fore
SplineSet
-14 -78 m 1,0,1
 119 168 119 168 317.5 573.5 c 128,-1,2
 516 979 516 979 625 1221 c 0,3,4
 625 1223 625 1223 631 1232 c 128,-1,5
 637 1241 637 1241 640 1244 c 128,-1,6
 643 1247 643 1247 649 1254.5 c 128,-1,7
 655 1262 655 1262 664.5 1264 c 128,-1,8
 674 1266 674 1266 684 1264 c 2,9,-1
 735 1257 l 2,10,11
 747 1255 747 1255 754.5 1243 c 128,-1,12
 762 1231 762 1231 754 1202 c 1,13,14
 334 352 334 352 129 -90 c 1,15,16
 94 -133 94 -133 72 -131 c 2,17,-1
 16 -127 l 2,18,19
 -31 -121 -31 -121 -14 -78 c 1,0,1
EndSplineSet
Validated: 33
EndChar

StartChar: zero
Encoding: 48 48 19
Width: 884
GlyphClass: 2
Flags: W
LayerCount: 2
Fore
SplineSet
123 330 m 0,0,1
 123 471 123 471 199.5 604 c 128,-1,2
 276 737 276 737 415.5 833.5 c 128,-1,3
 555 930 555 930 639 930 c 0,4,5
 715 930 715 930 779.5 824.5 c 128,-1,6
 844 719 844 719 844 590 c 0,7,8
 844 381 844 381 727 227 c 0,9,10
 614 75 614 75 444 0 c 0,11,12
 368 -33 368 -33 324 -33 c 0,13,14
 250 -33 250 -33 186.5 78.5 c 128,-1,15
 123 190 123 190 123 330 c 0,0,1
279 324 m 0,16,17
 279 213 279 213 320.5 138 c 128,-1,18
 362 63 362 63 420 63 c 0,19,20
 524 63 524 63 607 213.5 c 128,-1,21
 690 364 690 364 690 561 c 0,22,23
 690 674 690 674 643 750.5 c 128,-1,24
 596 827 596 827 530 827 c 0,25,26
 432 827 432 827 355.5 674.5 c 128,-1,27
 279 522 279 522 279 324 c 0,16,17
EndSplineSet
Validated: 1
EndChar

StartChar: one
Encoding: 49 49 20
Width: 778
GlyphClass: 2
Flags: W
LayerCount: 2
Fore
SplineSet
147 18 m 0,0,1
 151 41 151 41 166 45 c 0,2,3
 258 49 258 49 309 70 c 0,4,5
 340 82 340 82 352 150 c 2,6,-1
 475 774 l 2,7,8
 477 790 477 790 474 794.5 c 128,-1,9
 471 799 471 799 463 795 c 2,10,-1
 455 791 l 1,11,-1
 313 727 l 1,12,13
 305 729 305 729 303 748 c 0,14,15
 303 775 303 775 319 780 c 2,16,-1
 582 930 l 2,17,18
 598 942 598 942 625 942 c 0,19,20
 635 942 635 942 645 931.5 c 128,-1,21
 655 921 655 921 653 913 c 2,22,-1
 508 176 l 2,23,24
 496 119 496 119 496 102 c 0,25,26
 496 73 496 73 524.5 62 c 128,-1,27
 553 51 553 51 643 45 c 0,28,29
 651 45 651 45 652 32.5 c 128,-1,30
 653 20 653 20 648 9 c 128,-1,31
 643 -2 643 -2 633 -2 c 0,32,33
 291 2 291 2 158 -2 c 0,34,35
 144 -2 144 -2 147 18 c 0,0,1
EndSplineSet
Validated: 33
EndChar

StartChar: two
Encoding: 50 50 21
Width: 847
GlyphClass: 2
Flags: W
LayerCount: 2
Fore
SplineSet
69 15.5 m 128,-1,1
 70 31 70 31 76 43 c 0,2,3
 160 137 160 137 213 197 c 0,4,5
 272 258 272 258 413.5 378 c 128,-1,6
 555 498 555 498 616 567 c 0,7,8
 677 639 677 639 678 721 c 0,9,10
 678 778 678 778 639 808 c 128,-1,11
 600 838 600 838 545 838 c 0,12,13
 492 838 492 838 439.5 809 c 128,-1,14
 387 780 387 780 358.5 752.5 c 128,-1,15
 330 725 330 725 285 674 c 0,16,17
 271 660 271 660 255.5 676 c 128,-1,18
 240 692 240 692 248 709 c 1,19,20
 430 932 430 932 614 932 c 0,21,22
 712 932 712 932 775 865.5 c 128,-1,23
 838 799 838 799 838 713 c 0,24,25
 838 643 838 643 794 580.5 c 128,-1,26
 750 518 750 518 703.5 485.5 c 128,-1,27
 657 453 657 453 571 401 c 0,28,29
 364 274 364 274 227 143 c 0,30,31
 217 133 217 133 240 131 c 0,32,33
 248 129 248 129 260 129 c 2,34,-1
 561 129 l 2,35,36
 653 129 653 129 684 184 c 0,37,38
 721 250 721 250 723 254 c 0,39,40
 733 279 733 279 762 268 c 0,41,42
 778 264 778 264 774 252 c 0,43,44
 713 117 713 117 676 18 c 1,45,46
 662 -2 662 -2 633 -2 c 0,47,48
 367 2 367 2 78 -2 c 0,49,0
 68 0 68 0 69 15.5 c 128,-1,1
EndSplineSet
Validated: 33
EndChar

StartChar: three
Encoding: 51 51 22
Width: 874
GlyphClass: 2
Flags: W
LayerCount: 2
Fore
SplineSet
-2 -293 m 0,0,1
 -2 -264 -2 -264 12.5 -240.5 c 128,-1,2
 27 -217 27 -217 53 -217 c 0,3,4
 78 -217 78 -217 160 -258 c 0,5,6
 221 -291 221 -291 274 -291 c 0,7,8
 397 -291 397 -291 511 -154.5 c 128,-1,9
 625 -18 625 -18 625 170 c 0,10,11
 625 258 625 258 585 314.5 c 128,-1,12
 545 371 545 371 477 371 c 0,13,14
 424 371 424 371 362 344 c 0,15,16
 331 332 331 332 328 356 c 0,17,18
 328 385 328 385 348 393 c 0,19,20
 696 549 696 549 696 719 c 0,21,22
 696 770 696 770 662.5 803 c 128,-1,23
 629 836 629 836 580 836 c 0,24,25
 453 836 453 836 281 662 c 0,26,27
 271 652 271 652 252 665 c 128,-1,28
 233 678 233 678 246 694 c 0,29,30
 457 925 457 925 653 926 c 0,31,32
 725 926 725 926 772 903.5 c 128,-1,33
 819 881 819 881 835.5 846 c 128,-1,34
 852 811 852 811 857 791.5 c 128,-1,35
 862 772 862 772 862 754 c 0,36,37
 862 666 862 666 780 591 c 128,-1,38
 698 516 698 516 600 471 c 0,39,40
 594 469 594 469 592 464 c 128,-1,41
 590 459 590 459 593 456 c 128,-1,42
 596 453 596 453 600 453 c 0,43,44
 668 437 668 437 721 387 c 0,45,46
 789 319 789 319 788 236 c 0,47,48
 788 72 788 72 677.5 -73.5 c 128,-1,49
 567 -219 567 -219 417.5 -298 c 128,-1,50
 268 -377 268 -377 137 -377 c 0,51,52
 -2 -377 -2 -377 -2 -293 c 0,0,1
EndSplineSet
Validated: 33
EndChar

StartChar: four
Encoding: 52 52 23
Width: 917
GlyphClass: 2
Flags: W
LayerCount: 2
Fore
SplineSet
131 90 m 0,0,1
 131 153 131 153 143 168 c 0,2,3
 565 688 565 688 791 909 c 1,4,-1
 821 911 l 2,5,6
 835 913 835 913 842.5 905 c 128,-1,7
 850 897 850 897 848 883 c 0,8,9
 768 484 768 484 711 207 c 0,10,11
 709 187 709 187 719 184 c 2,12,-1
 858 184 l 2,13,14
 870 184 870 184 878.5 169 c 128,-1,15
 887 154 887 154 881 127 c 0,16,17
 873 74 873 74 850 72 c 2,18,-1
 725 72 l 2,19,20
 690 72 690 72 678 47 c 1,21,-1
 596 -348 l 2,22,23
 594 -364 594 -364 580.5 -372.5 c 128,-1,24
 567 -381 567 -381 555 -377 c 1,25,-1
 483 -377 l 2,26,27
 465 -377 465 -377 453.5 -371 c 128,-1,28
 442 -365 442 -365 446 -346 c 2,29,-1
 526 53 l 2,30,31
 528 59 528 59 524 64.5 c 128,-1,32
 520 70 520 70 515 71 c 128,-1,33
 510 72 510 72 506 72 c 2,34,-1
 154 72 l 2,35,36
 131 72 131 72 131 90 c 0,0,1
256 211 m 0,37,38
 248 199 248 199 268 193 c 1,39,-1
 520 193 l 2,40,41
 549 193 549 193 551 207 c 0,42,43
 649 592 649 592 676 700 c 1,44,-1
 678 700 l 1,45,46
 481 510 481 510 256 211 c 0,37,38
EndSplineSet
Validated: 9
EndChar

StartChar: five
Encoding: 53 53 24
Width: 884
GlyphClass: 2
Flags: W
LayerCount: 2
Fore
SplineSet
23 -276 m 0,0,1
 23 -247 23 -247 47.5 -211.5 c 128,-1,2
 72 -176 72 -176 102 -176 c 0,3,4
 125 -176 125 -176 205 -211 c 0,5,6
 266 -238 266 -238 299 -238 c 0,7,8
 426 -238 426 -238 519 -121 c 128,-1,9
 612 -4 612 -4 612 150 c 0,10,11
 612 232 612 232 569 295 c 128,-1,12
 526 358 526 358 466 389 c 128,-1,13
 406 420 406 420 364 434.5 c 128,-1,14
 322 449 322 449 301 451 c 0,15,16
 270 453 270 453 267 464 c 128,-1,17
 264 475 264 475 272 494 c 0,18,19
 290 562 290 562 319 683.5 c 128,-1,20
 348 805 348 805 356 840 c 0,21,22
 358 852 358 852 361.5 861 c 128,-1,23
 365 870 365 870 368 876.5 c 128,-1,24
 371 883 371 883 373 888 c 128,-1,25
 375 893 375 893 381 896 c 128,-1,26
 387 899 387 899 389 900 c 128,-1,27
 391 901 391 901 401.5 902 c 128,-1,28
 412 903 412 903 415 903 c 128,-1,29
 418 903 418 903 432 903 c 128,-1,30
 446 903 446 903 453 903 c 2,31,-1
 455 903 l 1,32,33
 713 895 713 895 731 911 c 0,34,35
 739 917 739 917 752 956 c 0,36,37
 756 964 756 964 774.5 965 c 128,-1,38
 793 966 793 966 793 954 c 0,39,40
 754 821 754 821 741 774 c 0,41,42
 733 749 733 749 709 750 c 0,43,44
 674 750 674 750 569.5 754 c 128,-1,45
 465 758 465 758 410 758 c 0,46,47
 394 758 394 758 389 743 c 0,48,49
 366 655 366 655 356 596 c 0,50,51
 354 592 354 592 360.5 587 c 128,-1,52
 367 582 367 582 381 580 c 0,53,54
 547 553 547 553 647 461 c 0,55,56
 743 377 743 377 743 223 c 0,57,58
 743 41 743 41 590 -129 c 0,59,60
 510 -215 510 -215 399.5 -283.5 c 128,-1,61
 289 -352 289 -352 176 -352 c 0,62,63
 129 -352 129 -352 76 -335.5 c 128,-1,64
 23 -319 23 -319 23 -276 c 0,0,1
EndSplineSet
Validated: 33
EndChar

StartChar: six
Encoding: 54 54 25
Width: 948
GlyphClass: 2
Flags: W
LayerCount: 2
Fore
SplineSet
176 432 m 0,0,1
 176 803 176 803 506 1122 c 0,2,3
 582 1194 582 1194 654.5 1244 c 128,-1,4
 727 1294 727 1294 797.5 1320 c 128,-1,5
 868 1346 868 1346 903 1354 c 128,-1,6
 938 1362 938 1362 995 1372 c 0,7,8
 1016 1372 1016 1372 1018 1358 c 0,9,10
 1022 1348 1022 1348 1015 1337.5 c 128,-1,11
 1008 1327 1008 1327 997 1325 c 0,12,13
 792 1268 792 1268 628.5 1105 c 128,-1,14
 465 942 465 942 383 680 c 0,15,16
 379 668 379 668 387 670 c 0,17,18
 401 674 401 674 420 694 c 0,19,20
 465 751 465 751 518 802.5 c 128,-1,21
 571 854 571 854 629.5 887 c 128,-1,22
 688 920 688 920 713 920 c 0,23,24
 772 920 772 920 832.5 830.5 c 128,-1,25
 893 741 893 741 893 618 c 0,26,27
 893 393 893 393 741.5 187.5 c 128,-1,28
 590 -18 590 -18 444 -18 c 0,29,30
 323 -18 323 -18 249.5 121 c 128,-1,31
 176 260 176 260 176 432 c 0,0,1
340 389 m 0,32,33
 340 252 340 252 393 165 c 128,-1,34
 446 78 446 78 520 78 c 0,35,36
 608 78 608 78 674.5 213 c 128,-1,37
 741 348 741 348 741 526 c 0,38,39
 741 637 741 637 705.5 717 c 128,-1,40
 670 797 670 797 625 797 c 0,41,42
 566 797 566 797 449 662 c 0,43,44
 377 576 377 576 358.5 522.5 c 128,-1,45
 340 469 340 469 340 389 c 0,32,33
EndSplineSet
Validated: 1
EndChar

StartChar: seven
Encoding: 55 55 26
Width: 837
GlyphClass: 2
Flags: W
LayerCount: 2
Fore
SplineSet
102 -311.5 m 128,-1,1
 106 -297 106 -297 110.5 -285.5 c 128,-1,2
 115 -274 115 -274 121 -266 c 2,3,-1
 721 743 l 1,4,5
 727 763 727 763 682 764 c 0,6,7
 633 762 633 762 502 767 c 128,-1,8
 371 772 371 772 324 764 c 0,9,10
 287 760 287 760 275.5 745.5 c 128,-1,11
 264 731 264 731 250 688 c 2,12,-1
 209 567 l 2,13,14
 205 555 205 555 182 559 c 0,15,16
 170 563 170 563 169 567 c 128,-1,17
 168 571 168 571 170 582 c 2,18,-1
 240 862 l 2,19,20
 248 893 248 893 256 899 c 128,-1,21
 264 905 264 905 297 907 c 0,22,23
 371 915 371 915 524.5 909 c 128,-1,24
 678 903 678 903 696 903 c 0,25,26
 733 903 733 903 807 909 c 0,27,28
 860 913 860 913 860 895 c 2,29,-1
 860 877 l 1,30,31
 848 842 848 842 811 776 c 2,32,-1
 248 -258 l 2,33,34
 215 -317 215 -317 202.5 -331.5 c 128,-1,35
 190 -346 190 -346 172 -346 c 2,36,-1
 127 -346 l 2,37,38
 111 -346 111 -346 104.5 -336 c 128,-1,0
 98 -326 98 -326 102 -311.5 c 128,-1,1
EndSplineSet
Validated: 33
EndChar

StartChar: eight
Encoding: 56 56 27
Width: 948
GlyphClass: 2
Flags: W
LayerCount: 2
Fore
SplineSet
117 297 m 0,0,1
 117 479 117 479 432 672 c 0,2,3
 452 684 452 684 438 698 c 0,4,5
 317 829 317 829 317 926 c 0,6,7
 317 1043 317 1043 475 1157 c 0,8,9
 510 1182 510 1182 584.5 1219.5 c 128,-1,10
 659 1257 659 1257 705 1257 c 0,11,12
 793 1257 793 1257 857.5 1181.5 c 128,-1,13
 922 1106 922 1106 922 1040 c 0,14,15
 922 899 922 899 645 731 c 0,16,17
 633 723 633 723 645 711 c 0,18,19
 799 568 799 568 799 408 c 0,20,21
 799 236 799 236 645.5 105.5 c 128,-1,22
 492 -25 492 -25 371 -25 c 0,23,24
 281 -25 281 -25 193 96 c 0,25,26
 117 200 117 200 117 297 c 0,0,1
250 352 m 0,27,28
 250 266 250 266 319.5 155.5 c 128,-1,29
 389 45 389 45 446 45 c 0,30,31
 499 45 499 45 591.5 125 c 128,-1,32
 684 205 684 205 684 330 c 0,33,34
 684 496 684 496 485 649 c 1,35,36
 249 497 249 497 250 352 c 0,27,28
444 995 m 0,37,38
 444 895 444 895 596 754 c 1,39,40
 653 793 653 793 687 819.5 c 128,-1,41
 721 846 721 846 756 896 c 128,-1,42
 791 946 791 946 791 995 c 0,43,44
 791 1061 791 1061 725 1120.5 c 128,-1,45
 659 1180 659 1180 614 1180 c 0,46,47
 571 1180 571 1180 507.5 1127.5 c 128,-1,48
 444 1075 444 1075 444 995 c 0,37,38
EndSplineSet
Validated: 33
EndChar

StartChar: nine
Encoding: 57 57 28
Width: 1011
GlyphClass: 2
Flags: W
LayerCount: 2
Fore
SplineSet
76 -410 m 0,0,1
 76 -398 76 -398 90 -387 c 1,2,3
 326 -303 326 -303 460 -171 c 128,-1,4
 594 -39 594 -39 678 178 c 1,5,6
 688 215 688 215 686 217 c 256,7,8
 684 219 684 219 676 209 c 0,9,10
 647 174 647 174 611 136 c 128,-1,11
 575 98 575 98 501.5 51 c 128,-1,12
 428 4 428 4 362 4 c 0,13,14
 282 4 282 4 230 82 c 128,-1,15
 178 160 178 160 178 289 c 0,16,17
 178 422 178 422 227 547 c 128,-1,18
 276 672 276 672 346 753 c 128,-1,19
 416 834 416 834 490.5 883 c 128,-1,20
 565 932 565 932 621 932 c 0,21,22
 744 932 744 932 822.5 790.5 c 128,-1,23
 901 649 901 649 901 471 c 0,24,25
 901 313 901 313 824.5 139 c 128,-1,26
 748 -35 748 -35 612 -168 c 0,27,28
 487 -289 487 -289 328 -360 c 0,29,30
 252 -395 252 -395 106 -434 c 0,31,32
 79 -440 79 -440 76 -410 c 0,0,1
328 385 m 0,33,34
 328 276 328 276 361.5 196.5 c 128,-1,35
 395 117 395 117 449 117 c 0,36,37
 476 117 476 117 519.5 141.5 c 128,-1,38
 563 166 563 166 613.5 212 c 128,-1,39
 664 258 664 258 698.5 341 c 128,-1,40
 733 424 733 424 733 524 c 0,41,42
 733 661 733 661 678 746 c 128,-1,43
 623 831 623 831 555 831 c 0,44,45
 465 831 465 831 396.5 707.5 c 128,-1,46
 328 584 328 584 328 385 c 0,33,34
EndSplineSet
Validated: 1
EndChar

StartChar: colon
Encoding: 58 58 29
Width: 608
GlyphClass: 2
Flags: W
LayerCount: 2
Fore
SplineSet
231 88 m 0,0,1
 235 137 235 137 266 168 c 128,-1,2
 297 199 297 199 338 199 c 0,3,4
 377 199 377 199 399.5 171 c 128,-1,5
 422 143 422 143 422 98 c 0,6,7
 422 45 422 45 393.5 8 c 128,-1,8
 365 -29 365 -29 319.5 -29 c 128,-1,9
 274 -29 274 -29 250.5 7 c 128,-1,10
 227 43 227 43 231 88 c 0,0,1
362 760 m 1,11,12
 380 871 380 871 469 870 c 0,13,14
 506 870 506 870 529.5 841.5 c 128,-1,15
 553 813 553 813 553 768 c 0,16,17
 553 715 553 715 523.5 679 c 128,-1,18
 494 643 494 643 451 643 c 128,-1,19
 408 643 408 643 384 678 c 128,-1,20
 360 713 360 713 362 760 c 1,11,12
EndSplineSet
Validated: 33
EndChar

StartChar: semicolon
Encoding: 59 59 30
Width: 608
GlyphClass: 2
Flags: W
LayerCount: 2
Fore
SplineSet
106 -360 m 0,0,1
 94 -337 94 -337 127 -311 c 0,2,3
 291 -205 291 -205 291 -94 c 0,4,5
 291 -61 291 -61 260 -4 c 0,6,7
 227 53 227 53 227 96 c 128,-1,8
 227 139 227 139 254 169 c 128,-1,9
 281 199 281 199 319 199 c 0,10,11
 364 199 364 199 394 156 c 128,-1,12
 424 113 424 113 424 47 c 0,13,14
 424 -193 424 -193 135 -365 c 0,15,16
 117 -375 117 -375 106 -360 c 0,0,1
352 750 m 0,17,18
 352 797 352 797 382 833.5 c 128,-1,19
 412 870 412 870 459 870 c 0,20,21
 496 870 496 870 520.5 839.5 c 128,-1,22
 545 809 545 809 545 764 c 0,23,24
 545 711 545 711 514 677 c 128,-1,25
 483 643 483 643 438 643 c 0,26,27
 401 643 401 643 376.5 674 c 128,-1,28
 352 705 352 705 352 750 c 0,17,18
EndSplineSet
Validated: 1
EndChar

StartChar: less
Encoding: 60 60 31
Width: 1390
GlyphClass: 2
Flags: W
LayerCount: 2
Fore
SplineSet
143 633 m 1,0,-1
 143 737 l 1,1,-1
 1247 1212 l 1,2,-1
 1247 1081 l 1,3,-1
 305 684 l 1,4,-1
 1247 287 l 1,5,-1
 1247 156 l 1,6,-1
 143 633 l 1,0,-1
EndSplineSet
Validated: 1
EndChar

StartChar: equal
Encoding: 61 61 32
Width: 1390
GlyphClass: 2
Flags: W
LayerCount: 2
Fore
SplineSet
143 385 m 1,0,-1
 143 506 l 1,1,-1
 1247 506 l 1,2,-1
 1247 385 l 1,3,-1
 143 385 l 1,0,-1
143 868 m 1,4,-1
 143 989 l 1,5,-1
 1247 989 l 1,6,-1
 1247 868 l 1,7,-1
 143 868 l 1,4,-1
EndSplineSet
Validated: 1
EndChar

StartChar: greater
Encoding: 62 62 33
Width: 1390
GlyphClass: 2
Flags: W
LayerCount: 2
Fore
SplineSet
143 156 m 1,0,-1
 143 287 l 1,1,-1
 1087 682 l 1,2,-1
 143 1079 l 1,3,-1
 143 1212 l 1,4,-1
 1247 735 l 1,5,-1
 1247 631 l 1,6,-1
 143 156 l 1,0,-1
EndSplineSet
Validated: 1
EndChar

StartChar: question
Encoding: 63 63 34
Width: 825
GlyphClass: 2
Flags: W
LayerCount: 2
Fore
SplineSet
193 86 m 0,0,1
 197 135 197 135 225.5 167 c 128,-1,2
 254 199 254 199 293 199 c 128,-1,3
 332 199 332 199 355.5 171 c 128,-1,4
 379 143 379 143 379 98 c 0,5,6
 379 43 379 43 349 7 c 128,-1,7
 319 -29 319 -29 274 -29 c 0,8,9
 192 -29 192 -29 193 86 c 0,0,1
313 346 m 0,10,11
 329 594 329 594 416 709 c 0,12,13
 432 729 432 729 457.5 750.5 c 128,-1,14
 483 772 483 772 503.5 784.5 c 128,-1,15
 524 797 524 797 559 817.5 c 128,-1,16
 594 838 594 838 608 846 c 0,17,18
 733 924 733 924 733 1030 c 0,19,20
 733 1100 733 1100 682 1147 c 128,-1,21
 631 1194 631 1194 553 1194 c 0,22,23
 522 1194 522 1194 465 1177.5 c 128,-1,24
 408 1161 408 1161 381 1161 c 0,25,26
 356 1161 356 1161 340 1184.5 c 128,-1,27
 324 1208 324 1208 324 1243 c 0,28,29
 324 1292 324 1292 379 1324 c 128,-1,30
 434 1356 434 1356 516 1356 c 0,31,32
 647 1356 647 1356 729 1264.5 c 128,-1,33
 811 1173 811 1173 811 1026 c 0,34,35
 811 823 811 823 702 719 c 0,36,37
 669 688 669 688 549 623 c 0,38,39
 455 574 455 574 418 502 c 0,40,41
 381 432 381 432 360 346 c 0,42,43
 358 338 358 338 346 332 c 128,-1,44
 334 326 334 326 323.5 330 c 128,-1,45
 313 334 313 334 313 346 c 0,10,11
EndSplineSet
Validated: 33
EndChar

StartChar: at
Encoding: 64 64 35
Width: 1910
GlyphClass: 2
Flags: W
LayerCount: 2
Fore
SplineSet
205 461 m 0,0,1
 205 887 205 887 483.5 1172.5 c 128,-1,2
 762 1458 762 1458 1171 1458 c 0,3,4
 1499 1458 1499 1458 1700 1269.5 c 128,-1,5
 1901 1081 1901 1081 1901 764 c 0,6,7
 1901 461 1901 461 1736 245 c 128,-1,8
 1571 29 1571 29 1337 29 c 0,9,10
 1177 29 1177 29 1178 176 c 0,11,12
 1178 215 1178 215 1186 274 c 0,13,14
 1190 297 1190 297 1180 295 c 0,15,16
 1174 293 1174 293 1161 279 c 0,17,18
 1098 197 1098 197 1036 141 c 0,19,20
 911 28 911 28 799 29 c 0,21,22
 717 29 717 29 663.5 99.5 c 128,-1,23
 610 170 610 170 610 274 c 0,24,25
 610 405 610 405 682 560 c 128,-1,26
 754 715 754 715 868 836 c 0,27,28
 1032 1004 1032 1004 1176 1004 c 0,29,30
 1287 1004 1287 1004 1333 907 c 0,31,32
 1339 895 1339 895 1343.5 893 c 128,-1,33
 1348 891 1348 891 1351 895 c 128,-1,34
 1354 899 1354 899 1358 906 c 128,-1,35
 1362 913 1362 913 1364 915 c 0,36,37
 1380 962 1380 962 1419 975 c 1,38,-1
 1503 991 l 1,39,40
 1538 987 1538 987 1530 934 c 0,41,42
 1528 930 1528 930 1509.5 874.5 c 128,-1,43
 1491 819 1491 819 1468.5 749.5 c 128,-1,44
 1446 680 1446 680 1420.5 591 c 128,-1,45
 1395 502 1395 502 1377.5 420 c 128,-1,46
 1360 338 1360 338 1351.5 267.5 c 128,-1,47
 1343 197 1343 197 1356.5 154 c 128,-1,48
 1370 111 1370 111 1407 111 c 0,49,50
 1462 111 1462 111 1532 153 c 128,-1,51
 1602 195 1602 195 1655 260 c 0,52,53
 1737 360 1737 360 1784 499.5 c 128,-1,54
 1831 639 1831 639 1831 782 c 0,55,56
 1831 1058 1831 1058 1649.5 1226.5 c 128,-1,57
 1468 1395 1468 1395 1180 1395 c 0,58,59
 813 1395 813 1395 561 1119.5 c 128,-1,60
 309 844 309 844 309 434 c 0,61,62
 309 74 309 74 529.5 -145.5 c 128,-1,63
 750 -365 750 -365 1100 -365 c 0,64,65
 1381 -365 1381 -365 1590.5 -227.5 c 128,-1,66
 1800 -90 1800 -90 1915 182 c 1,67,68
 1931 198 1931 198 1948 199 c 0,69,70
 1957 197 1957 197 1982 172 c 1,71,72
 1888 -119 1888 -119 1648.5 -277.5 c 128,-1,73
 1409 -436 1409 -436 1096 -436 c 0,74,75
 709 -436 709 -436 457 -185 c 128,-1,76
 205 66 205 66 205 461 c 0,0,1
780 305 m 0,77,78
 780 246 780 246 813 204 c 128,-1,79
 846 162 846 162 893 162 c 0,80,81
 1012 162 1012 162 1159 360 c 0,82,83
 1225 448 1225 448 1264 567 c 0,84,85
 1309 711 1309 711 1309 799 c 0,86,87
 1309 865 1309 865 1274 905.5 c 128,-1,88
 1239 946 1239 946 1186 946 c 0,89,90
 1100 946 1100 946 1020 850 c 0,91,92
 924 737 924 737 852 574.5 c 128,-1,93
 780 412 780 412 780 305 c 0,77,78
EndSplineSet
Validated: 33
EndChar

StartChar: A
Encoding: 65 65 36
Width: 1419
GlyphClass: 2
Flags: W
LayerCount: 2
Fore
SplineSet
-86 20 m 0,0,1
 -84 47 -84 47 -57 47 c 1,2,3
 25 63 25 63 74 98 c 128,-1,4
 123 133 123 133 203 238 c 2,5,-1
 1055 1346 l 2,6,7
 1059 1356 1059 1356 1077 1360 c 0,8,9
 1096 1366 1096 1366 1120 1366 c 0,10,11
 1139 1366 1139 1366 1159 1362 c 0,12,13
 1184 1356 1184 1356 1184 1327 c 2,14,-1
 1196 164 l 2,15,16
 1196 105 1196 105 1221.5 82 c 128,-1,17
 1247 59 1247 59 1292 53 c 1,18,-1
 1350 53 l 1,19,-1
 1364 53 l 2,20,21
 1385 50 1385 50 1385 29 c 0,22,23
 1385 24 1385 24 1384 18 c 0,24,25
 1382 -4 1382 -4 1361 -4 c 0,26,27
 1358 -4 1358 -4 1356 -4 c 0,28,29
 1233 1 1233 1 1088.5 1 c 128,-1,30
 944 1 944 1 778 -4 c 0,31,32
 768 -4 768 -4 764 8 c 128,-1,33
 760 20 760 20 765 33.5 c 128,-1,34
 770 47 770 47 784 47 c 0,35,36
 919 47 919 47 966.5 82 c 128,-1,37
 1014 117 1014 117 1014 215 c 2,38,-1
 1012 549 l 2,39,40
 1012 555 1012 555 1001.5 563 c 128,-1,41
 991 571 991 571 983 571 c 2,42,-1
 580 571 l 2,43,44
 566 571 566 571 551 557 c 2,45,-1
 295 217 l 2,46,47
 256 166 256 166 256 131 c 0,48,49
 256 55 256 55 373 51 c 1,50,-1
 426 51 l 2,51,52
 438 51 438 51 442 38 c 128,-1,53
 446 25 446 25 439 10.5 c 128,-1,54
 432 -4 432 -4 420 -4 c 0,55,56
 306 0 306 0 183 0 c 128,-1,57
 60 0 60 0 -72 -4 c 0,58,59
 -87 -4 -87 -4 -87 12 c 0,60,61
 -87 16 -87 16 -86 20 c 0,0,1
656 674 m 0,62,63
 664 664 664 664 686 664 c 2,64,-1
 977 666 l 2,65,66
 1016 665 1016 665 1016 694 c 2,67,-1
 1016 1118 l 2,68,69
 1016 1136 1016 1136 1010 1142 c 0,70,71
 1006 1146 1006 1146 1001 1147 c 0,72,73
 1000 1147 1000 1147 996 1146 c 0,74,75
 988 1143 988 1143 981 1135 c 2,76,-1
 657 694 l 2,77,78
 653 689 653 689 653 684 c 0,79,80
 652 679 652 679 656 674 c 0,62,63
EndSplineSet
Validated: 1
EndChar

StartChar: B
Encoding: 66 66 37
Width: 1323
GlyphClass: 2
Flags: W
LayerCount: 2
Fore
SplineSet
37 10 m 0,0,1
 34 17 34 17 34 23 c 0,2,3
 34 31 34 31 39 39 c 0,4,5
 47 53 47 53 63 53 c 0,6,7
 106 53 106 53 127 55 c 0,8,9
 193 63 193 63 223.5 105 c 128,-1,10
 254 147 254 147 276 256 c 2,11,-1
 449 1065 l 2,12,13
 459 1110 459 1110 461 1126.5 c 128,-1,14
 463 1143 463 1143 464 1178.5 c 128,-1,15
 465 1214 465 1214 453.5 1229.5 c 128,-1,16
 442 1245 442 1245 415.5 1258.5 c 128,-1,17
 389 1272 389 1272 346 1272 c 0,18,19
 336 1274 336 1274 320.5 1273 c 128,-1,20
 305 1272 305 1272 299 1272 c 0,21,22
 281 1272 281 1272 283 1298 c 0,23,24
 287 1323 287 1323 305 1323 c 2,25,-1
 883 1323 l 2,26,27
 1080 1323 1080 1323 1190 1248 c 128,-1,28
 1300 1173 1300 1173 1300 1038 c 0,29,30
 1300 929 1300 929 1220.5 849.5 c 128,-1,31
 1141 770 1141 770 1004 743 c 0,32,33
 996 741 996 741 996.5 734 c 128,-1,34
 997 727 997 727 1004 725 c 0,35,36
 1125 682 1125 682 1194.5 594 c 128,-1,37
 1264 506 1264 506 1264 393 c 0,38,39
 1264 208 1264 208 1114 100 c 0,40,41
 966 -6 966 -6 710 -6 c 0,42,43
 705 -6 705 -6 700 -6 c 0,44,45
 527 -4 527 -4 366.5 -4 c 128,-1,46
 206 -4 206 -4 59 -6 c 0,47,48
 43 -6 43 -6 37 10 c 0,0,1
457 207 m 0,49,50
 457 123 457 123 497 91 c 128,-1,51
 537 59 537 59 662 59 c 0,52,53
 830 59 830 59 920 121 c 0,54,55
 1065 223 1065 223 1065 418 c 0,56,57
 1065 557 1065 557 965.5 638 c 128,-1,58
 866 719 866 719 692 719 c 2,59,-1
 584 719 l 2,60,61
 576 719 576 719 565.5 713 c 128,-1,62
 555 707 555 707 555 700 c 2,63,-1
 467 285 l 2,64,65
 457 230 457 230 457 207 c 0,49,50
580 811 m 2,66,67
 578 799 578 799 587 790.5 c 128,-1,68
 596 782 596 782 608 782 c 2,69,-1
 705 782 l 2,70,71
 889 782 889 782 979 834 c 0,72,73
 1110 910 1110 910 1110 1055 c 0,74,75
 1110 1194 1110 1194 1004 1239 c 0,76,77
 938 1266 938 1266 801 1266 c 2,78,-1
 705 1266 l 2,79,80
 680 1266 680 1266 668 1243 c 1,81,-1
 580 811 l 2,66,67
EndSplineSet
Validated: 1
EndChar

StartChar: C
Encoding: 67 67 38
Width: 1458
GlyphClass: 2
Flags: W
LayerCount: 2
Fore
SplineSet
59 567 m 0,0,1
 59 786 59 786 187 967.5 c 128,-1,2
 315 1149 315 1149 537.5 1253.5 c 128,-1,3
 760 1358 760 1358 1026 1358 c 0,4,5
 1266 1358 1266 1358 1473 1268 c 0,6,7
 1492 1257 1492 1257 1492 1231 c 0,8,9
 1492 1221 1492 1221 1489 1208 c 0,10,11
 1485 1194 1485 1194 1409 942 c 0,12,13
 1405 928 1405 928 1391.5 926 c 128,-1,14
 1378 924 1378 924 1369 932 c 128,-1,15
 1360 940 1360 940 1362 950 c 0,16,17
 1366 977 1366 977 1366 1001 c 0,18,19
 1366 1290 1366 1290 1012 1290 c 0,20,21
 701 1290 701 1290 479.5 1077 c 128,-1,22
 258 864 258 864 258 555 c 0,23,24
 258 313 258 313 381 172 c 128,-1,25
 504 31 504 31 723 31 c 0,26,27
 1051 31 1051 31 1268 342 c 0,28,29
 1272 350 1272 350 1286 351 c 128,-1,30
 1300 352 1300 352 1309.5 345 c 128,-1,31
 1319 338 1319 338 1315 326 c 0,32,33
 1254 170 1254 170 1208 4 c 0,34,35
 1206 -4 1206 -4 1193 -4 c 128,-1,36
 1180 -4 1180 -4 1169 4 c 1,37,38
 1136 14 1136 14 1108 14 c 0,39,40
 1075 14 1075 14 983 -4 c 0,41,42
 821 -37 821 -37 713 -37 c 0,43,44
 437 -37 437 -37 248 127 c 128,-1,45
 59 291 59 291 59 567 c 0,0,1
EndSplineSet
Validated: 1
EndChar

StartChar: D
Encoding: 68 68 39
Width: 1624
GlyphClass: 2
Flags: W
LayerCount: 2
Fore
SplineSet
4 10 m 0,0,1
 2 16 2 16 1 21 c 0,2,3
 1 31 1 31 7 41 c 0,4,5
 16 57 16 57 35 59 c 2,6,-1
 102 66 l 1,7,8
 176 68 176 68 202.5 101.5 c 128,-1,9
 229 135 229 135 256 256 c 2,10,-1
 432 1087 l 2,11,12
 442 1130 442 1130 443 1160 c 128,-1,13
 444 1190 444 1190 437 1209.5 c 128,-1,14
 430 1229 430 1229 418 1240 c 128,-1,15
 406 1251 406 1251 380 1256.5 c 128,-1,16
 354 1262 354 1262 329.5 1263 c 128,-1,17
 305 1264 305 1264 262 1264 c 0,18,19
 252 1264 252 1264 246 1264 c 0,20,21
 219 1264 219 1264 229 1294 c 0,22,23
 237 1323 237 1323 260 1323 c 2,24,-1
 868 1323 l 2,25,26
 1198 1323 1198 1323 1397.5 1161 c 128,-1,27
 1597 999 1597 999 1597 733 c 0,28,29
 1598 422 1598 422 1350 207 c 0,30,31
 1105 -6 1105 -6 748 -6 c 0,32,33
 745 -6 745 -6 741 -6 c 2,34,-1
 27 -6 l 2,35,36
 10 -6 10 -6 4 10 c 0,0,1
434 231 m 2,37,38
 425 188 425 188 425 158 c 0,39,40
 425 110 425 110 448 92 c 0,41,42
 485 64 485 64 616 63 c 0,43,44
 802 63 802 63 924 102 c 0,45,46
 1129 168 1129 168 1260 346 c 128,-1,47
 1391 524 1391 524 1391 743 c 0,48,49
 1391 884 1391 884 1336.5 990 c 128,-1,50
 1282 1096 1282 1096 1186 1154 c 128,-1,51
 1090 1212 1090 1212 972 1239 c 0,52,53
 875 1261 875 1261 765 1261 c 0,54,55
 740 1261 740 1261 715 1260 c 0,56,57
 713 1260 713 1260 699.5 1258.5 c 128,-1,58
 686 1257 686 1257 682 1256 c 128,-1,59
 678 1255 678 1255 668.5 1253 c 128,-1,60
 659 1251 659 1251 654 1245 c 128,-1,61
 649 1239 649 1239 645 1229 c 2,62,-1
 434 231 l 2,37,38
EndSplineSet
Validated: 33
EndChar

StartChar: E
Encoding: 69 69 40
Width: 1355
GlyphClass: 2
Flags: W
LayerCount: 2
Fore
SplineSet
35 59 m 0,0,1
 47 61 47 61 70.5 60 c 128,-1,2
 94 59 94 59 102 59 c 0,3,4
 176 65 176 65 206 99 c 128,-1,5
 236 133 236 133 256 231 c 2,6,-1
 436 1090 l 2,7,8
 448 1147 448 1147 449 1178 c 0,9,10
 449 1268 449 1268 313 1268 c 2,11,-1
 260 1268 l 2,12,13
 237 1270 237 1270 242 1296 c 0,14,15
 248 1323 248 1323 281 1323 c 2,16,-1
 1327 1323 l 2,17,18
 1356 1323 1356 1323 1366 1314 c 0,19,20
 1373 1308 1373 1308 1373 1291 c 0,21,22
 1373 1284 1373 1284 1372 1276 c 0,23,24
 1349 1151 1349 1151 1319 1030 c 0,25,26
 1321 1024 1321 1024 1315 1021 c 128,-1,27
 1309 1018 1309 1018 1298 1018 c 0,28,29
 1286 1018 1286 1018 1281 1023 c 128,-1,30
 1276 1028 1276 1028 1275 1033 c 128,-1,31
 1274 1038 1274 1038 1276 1049.5 c 128,-1,32
 1278 1061 1278 1061 1278 1067 c 0,33,34
 1278 1169 1278 1169 1223.5 1214.5 c 128,-1,35
 1169 1260 1169 1260 1044 1260 c 2,36,-1
 700 1260 l 2,37,38
 655 1260 655 1260 649 1231 c 2,39,-1
 545 733 l 2,40,41
 543 719 543 719 553 713 c 128,-1,42
 563 707 563 707 586 707 c 2,43,-1
 922 707 l 2,44,45
 1014 707 1014 707 1061 735.5 c 128,-1,46
 1108 764 1108 764 1147 846 c 0,47,48
 1151 860 1151 860 1178 854 c 0,49,50
 1196 852 1196 852 1190 838 c 0,51,52
 1153 688 1153 688 1114 467 c 0,53,54
 1112 455 1112 455 1094 453 c 0,55,56
 1067 449 1067 449 1067 500 c 0,57,58
 1067 580 1067 580 1022 608.5 c 128,-1,59
 977 637 977 637 848 637 c 2,60,-1
 567 637 l 2,61,62
 526 637 526 637 520 608 c 2,63,-1
 432 199 l 2,64,65
 428 179 428 179 427 162 c 128,-1,66
 426 145 426 145 431 133 c 128,-1,67
 436 121 436 121 440 110.5 c 128,-1,68
 444 100 444 100 456.5 93 c 128,-1,69
 469 86 469 86 477 81 c 128,-1,70
 485 76 485 76 502.5 73 c 128,-1,71
 520 70 520 70 530.5 68 c 128,-1,72
 541 66 541 66 561.5 64.5 c 128,-1,73
 582 63 582 63 592 63 c 128,-1,74
 602 63 602 63 625 63 c 0,75,76
 631 63 631 63 633 63 c 2,77,-1
 776 63 l 2,78,79
 962 63 962 63 1079 147 c 0,80,81
 1134 186 1134 186 1160 211 c 128,-1,82
 1186 236 1186 236 1227 289 c 0,83,84
 1233 299 1233 299 1244 301 c 128,-1,85
 1255 303 1255 303 1262.5 299 c 128,-1,86
 1270 295 1270 295 1270 287 c 0,87,88
 1258 258 1258 258 1237.5 192.5 c 128,-1,89
 1217 127 1217 127 1200.5 75 c 128,-1,90
 1184 23 1184 23 1178 14 c 0,91,92
 1160 -4 1160 -4 1096 -4 c 0,93,94
 793 0 793 0 525.5 0 c 128,-1,95
 258 0 258 0 27 -4 c 0,96,97
 18 -4 18 -4 10 6 c 0,98,99
 4 14 4 14 4 22 c 0,100,101
 4 60 4 60 35 59 c 0,0,1
EndSplineSet
Validated: 1
EndChar

StartChar: F
Encoding: 70 70 41
Width: 1124
GlyphClass: 2
Flags: W
LayerCount: 2
Fore
SplineSet
18 10 m 0,0,1
 17 14 17 14 16 19 c 0,2,3
 16 29 16 29 22 39 c 0,4,5
 30 53 30 53 43 51 c 2,6,-1
 66 51 l 2,7,8
 150 51 150 51 186.5 87 c 128,-1,9
 223 123 223 123 246 231 c 2,10,-1
 428 1090 l 2,11,12
 440 1147 440 1147 440 1174 c 0,13,14
 440 1264 440 1264 307 1264 c 2,15,-1
 272 1264 l 2,16,17
 252 1264 252 1264 258 1292 c 0,18,19
 264 1323 264 1323 290 1323 c 0,20,21
 292 1323 292 1323 293 1323 c 0,22,23
 496 1321 496 1321 721 1321 c 128,-1,24
 946 1321 946 1321 1192 1323 c 0,25,26
 1208 1323 1208 1323 1220 1321 c 0,27,28
 1233 1320 1233 1320 1243 1310 c 0,29,30
 1250 1303 1250 1303 1250 1292 c 0,31,32
 1250 1288 1250 1288 1249 1282 c 2,33,-1
 1196 1030 l 2,34,35
 1196 1022 1196 1022 1171 1018 c 0,36,37
 1163 1018 1163 1018 1158 1021 c 128,-1,38
 1153 1024 1153 1024 1152 1030 c 128,-1,39
 1151 1036 1151 1036 1151 1042.5 c 128,-1,40
 1151 1049 1151 1049 1152 1057 c 128,-1,41
 1153 1065 1153 1065 1153 1067 c 0,42,43
 1153 1178 1153 1178 1109 1220 c 128,-1,44
 1065 1262 1065 1262 950 1262 c 2,45,-1
 700 1262 l 2,46,47
 663 1262 663 1262 653 1233 c 1,48,49
 649 1235 649 1235 619.5 1112 c 128,-1,50
 590 989 590 989 563 866 c 2,51,-1
 537 743 l 2,52,53
 529 706 529 706 565 707 c 0,54,55
 583 707 583 707 635.5 707 c 128,-1,56
 688 707 688 707 757.5 707 c 128,-1,57
 827 707 827 707 848 707 c 0,58,59
 926 709 926 709 968 738.5 c 128,-1,60
 1010 768 1010 768 1053 848 c 0,61,62
 1055 854 1055 854 1069 860 c 128,-1,63
 1083 866 1083 866 1094.5 860 c 128,-1,64
 1106 854 1106 854 1100 829 c 0,65,66
 1043 628 1043 628 1022 465 c 0,67,68
 1020 453 1020 453 1008.5 448.5 c 128,-1,69
 997 444 997 444 986 448.5 c 128,-1,70
 975 453 975 453 975 461 c 0,71,72
 975 565 975 565 942 601 c 128,-1,73
 909 637 909 637 819 637 c 2,74,-1
 541 637 l 2,75,76
 516 637 516 637 510 608 c 2,77,-1
 430 229 l 2,78,79
 421 183 421 183 421 150 c 0,80,81
 420 113 420 113 432 93 c 0,82,83
 454 55 454 55 561 55 c 1,84,85
 584 61 584 61 603.5 54 c 128,-1,86
 623 47 623 47 621 25 c 0,87,88
 617 -2 617 -2 592 -4 c 0,89,90
 460 -2 460 -2 321 -2 c 128,-1,91
 182 -2 182 -2 35 -4 c 0,92,93
 22 -4 22 -4 18 10 c 0,0,1
EndSplineSet
Validated: 33
EndChar

StartChar: G
Encoding: 71 71 42
Width: 1529
GlyphClass: 2
Flags: W
LayerCount: 2
Fore
SplineSet
125 582 m 0,0,1
 125 910 125 910 371.5 1133 c 128,-1,2
 618 1356 618 1356 1001 1356 c 0,3,4
 1218 1356 1218 1356 1479 1262 c 0,5,6
 1495 1258 1495 1258 1501 1219 c 1,7,-1
 1509 971 l 2,8,9
 1513 953 1513 953 1489.5 949.5 c 128,-1,10
 1466 946 1466 946 1462 958 c 0,11,12
 1421 1120 1421 1120 1301.5 1207 c 128,-1,13
 1182 1294 1182 1294 993 1294 c 0,14,15
 696 1294 696 1294 511 1082 c 128,-1,16
 326 870 326 870 326 555 c 0,17,18
 326 25 326 25 844 25 c 0,19,20
 938 25 938 25 1022 47.5 c 128,-1,21
 1106 70 1106 70 1141 104 c 0,22,23
 1170 131 1170 131 1190 214 c 128,-1,24
 1210 297 1210 297 1210 350 c 0,25,26
 1210 401 1210 401 1185.5 416.5 c 128,-1,27
 1161 432 1161 432 1087 440 c 2,28,-1
 1069 442 l 2,29,30
 1055 444 1055 444 1054 457.5 c 128,-1,31
 1053 471 1053 471 1061 483.5 c 128,-1,32
 1069 496 1069 496 1077 496 c 0,33,34
 1214 492 1214 492 1335 492 c 128,-1,35
 1456 492 1456 492 1563 496 c 0,36,37
 1574 494 1574 494 1574 478 c 0,38,39
 1574 474 1574 474 1573 468 c 0,40,41
 1569 442 1569 442 1556 440 c 2,42,-1
 1530 440 l 1,43,44
 1485 434 1485 434 1457.5 424 c 128,-1,45
 1430 414 1430 414 1412.5 388 c 128,-1,46
 1395 362 1395 362 1389.5 349 c 128,-1,47
 1384 336 1384 336 1375 287 c 128,-1,48
 1366 238 1366 238 1362 221 c 0,49,50
 1348 184 1348 184 1348 154 c 0,51,52
 1348 140 1348 140 1351 127 c 0,53,54
 1360 86 1360 86 1425 84 c 0,55,56
 1435 82 1435 82 1434.5 62.5 c 128,-1,57
 1434 43 1434 43 1417 39 c 0,58,59
 1124 -37 1124 -37 838 -37 c 0,60,61
 650 -37 650 -37 491 31.5 c 128,-1,62
 332 100 332 100 228.5 243.5 c 128,-1,63
 125 387 125 387 125 582 c 0,0,1
EndSplineSet
Validated: 1
EndChar

StartChar: H
Encoding: 72 72 43
Width: 1583
GlyphClass: 2
Flags: W
LayerCount: 2
Fore
SplineSet
-31 23 m 0,0,1
 -27 52 -27 52 -10 51 c 2,2,-1
 31 51 l 2,3,4
 123 51 123 51 165 93 c 128,-1,5
 207 135 207 135 233 256 c 2,6,-1
 410 1092 l 2,7,8
 424 1155 424 1155 424 1182 c 0,9,10
 424 1270 424 1270 297 1270 c 2,11,-1
 229 1270 l 1,12,13
 211 1276 211 1276 215 1292 c 1,14,15
 215 1323 215 1323 240 1323 c 0,16,17
 380 1317 380 1317 525 1317 c 128,-1,18
 670 1317 670 1317 819 1323 c 0,19,20
 835 1323 835 1323 842.5 1316 c 128,-1,21
 850 1309 850 1309 848 1298 c 0,22,23
 846 1290 846 1290 844 1284 c 128,-1,24
 842 1278 842 1278 839 1275 c 128,-1,25
 836 1272 836 1272 830.5 1271 c 128,-1,26
 825 1270 825 1270 821 1270 c 128,-1,27
 817 1270 817 1270 808 1270 c 128,-1,28
 799 1270 799 1270 793 1270 c 0,29,30
 695 1270 695 1270 654.5 1235 c 128,-1,31
 614 1200 614 1200 592 1090 c 2,32,-1
 520 743 l 2,33,34
 514 731 514 731 522 720 c 128,-1,35
 530 709 530 709 543 709 c 2,36,-1
 1196 709 l 2,37,38
 1208 709 1208 709 1219.5 719 c 128,-1,39
 1231 729 1231 729 1233 739 c 2,40,-1
 1307 1092 l 2,41,42
 1318 1150 1318 1150 1318 1187 c 128,-1,43
 1318 1224 1318 1224 1287 1248 c 0,44,45
 1255 1272 1255 1272 1186 1272 c 0,46,47
 1147 1272 1147 1272 1145 1284 c 0,48,49
 1143 1290 1143 1290 1143 1298 c 0,50,51
 1143 1323 1143 1323 1167 1323 c 0,52,53
 1332 1316 1332 1316 1467 1316 c 128,-1,54
 1602 1316 1602 1316 1708 1323 c 0,55,56
 1725 1323 1725 1323 1725 1305 c 0,57,58
 1725 1300 1725 1300 1724 1294 c 0,59,60
 1718 1278 1718 1278 1702 1272 c 1,61,-1
 1649 1272 l 1,62,63
 1577 1266 1577 1266 1543 1224 c 128,-1,64
 1509 1182 1509 1182 1485 1063 c 2,65,-1
 1309 229 l 1,66,67
 1296 189 1296 189 1296 156 c 0,68,69
 1296 127 1296 127 1306 104 c 0,70,71
 1328 55 1328 55 1419 49 c 0,72,73
 1421 49 1421 49 1445.5 50 c 128,-1,74
 1470 51 1470 51 1480.5 46 c 128,-1,75
 1491 41 1491 41 1491 25 c 0,76,77
 1491 5 1491 5 1458 -4 c 1,78,79
 1318 2 1318 2 1177.5 2 c 128,-1,80
 1037 2 1037 2 897 -4 c 0,81,82
 881 -4 881 -4 874.5 2 c 128,-1,83
 868 8 868 8 870 20 c 0,84,85
 874 45 874 45 901 49 c 0,86,87
 915 51 915 51 938 51 c 128,-1,88
 961 51 961 51 971 51 c 0,89,90
 1041 59 1041 59 1072.5 97 c 128,-1,91
 1104 135 1104 135 1124 231 c 2,92,-1
 1198 584 l 2,93,94
 1200 594 1200 594 1200 602 c 0,95,96
 1200 631 1200 631 1171 631 c 2,97,-1
 528 631 l 2,98,99
 497 631 497 631 492 604 c 2,100,-1
 412 229 l 2,101,102
 403 184 403 184 403 151 c 0,103,104
 403 113 403 113 415 91 c 0,105,106
 437 51 437 51 535 51 c 0,107,108
 540 51 540 51 545 51 c 0,109,110
 547 51 547 51 560 52 c 128,-1,111
 573 53 573 53 579.5 52 c 128,-1,112
 586 51 586 51 594 49 c 128,-1,113
 602 47 602 47 606 40 c 128,-1,114
 610 33 610 33 608 23 c 0,115,116
 603 -4 603 -4 583 -4 c 0,117,118
 580 -4 580 -4 578 -4 c 0,119,120
 362 -1 362 -1 216.5 -1 c 128,-1,121
 71 -1 71 -1 -4 -4 c 0,122,123
 -31 -4 -31 -4 -31 17 c 0,124,125
 -31 20 -31 20 -31 23 c 0,0,1
EndSplineSet
Validated: 1
EndChar

StartChar: I
Encoding: 73 73 44
Width: 729
GlyphClass: 2
Flags: W
LayerCount: 2
Fore
SplineSet
47 27 m 0,0,1
 55 52 55 52 80 51 c 0,2,3
 85 51 85 51 90 51 c 0,4,5
 182 51 182 51 217 88 c 0,6,7
 254 127 254 127 276 231 c 2,8,-1
 459 1092 l 1,9,10
 474 1139 474 1139 474 1173 c 0,11,12
 474 1201 474 1201 464 1220 c 0,13,14
 442 1262 442 1262 340 1268 c 0,15,16
 328 1268 328 1268 315.5 1268 c 128,-1,17
 303 1268 303 1268 296 1276 c 128,-1,18
 289 1284 289 1284 295 1300 c 0,19,20
 301 1323 301 1323 328 1323 c 0,21,22
 457 1317 457 1317 590.5 1317 c 128,-1,23
 724 1317 724 1317 862 1323 c 0,24,25
 876 1323 876 1323 876 1310 c 0,26,27
 876 1303 876 1303 872 1292 c 0,28,29
 862 1261 862 1261 836 1270 c 1,30,31
 736 1264 736 1264 701 1232 c 128,-1,32
 666 1200 666 1200 643 1090 c 2,33,-1
 461 229 l 2,34,35
 452 186 452 186 452 154 c 0,36,37
 452 107 452 107 472 84 c 0,38,39
 504 47 504 47 610 47 c 0,40,41
 615 47 615 47 621 47 c 0,42,43
 646 47 646 47 641 18 c 1,44,45
 633 0 633 0 616 -4 c 1,46,47
 426 1 426 1 287.5 1 c 128,-1,48
 149 1 149 1 61 -4 c 0,49,50
 44 -4 44 -4 44 12 c 0,51,52
 44 18 44 18 47 27 c 0,0,1
EndSplineSet
Validated: 1
EndChar

StartChar: J
Encoding: 74 74 45
Width: 692
GlyphClass: 2
Flags: W
LayerCount: 2
Fore
SplineSet
-362 -530 m 0,0,1
 -362 -491 -362 -491 -332 -451 c 0,2,3
 -309 -420 -309 -420 -260 -420 c 0,4,5
 -246 -420 -246 -420 -229.5 -425 c 128,-1,6
 -213 -430 -213 -430 -194.5 -438 c 128,-1,7
 -176 -446 -176 -446 -166 -451 c 0,8,9
 -97 -473 -97 -473 -55 -473 c 0,10,11
 -53 -473 -53 -473 -51 -473 c 0,12,13
 90 -473 90 -473 150 -340 c 0,14,15
 173 -285 173 -285 188 -201 c 2,16,-1
 432 1092 l 2,17,18
 442 1149 442 1149 442 1184 c 0,19,20
 442 1210 442 1210 436 1223 c 0,21,22
 418 1266 418 1266 340 1270 c 0,23,24
 328 1270 328 1270 305.5 1270 c 128,-1,25
 283 1270 283 1270 270 1272 c 0,26,27
 250 1272 250 1272 252 1294 c 0,28,29
 256 1323 256 1323 279 1323 c 0,30,31
 403 1316 403 1316 541 1316 c 128,-1,32
 679 1316 679 1316 831 1323 c 0,33,34
 850 1323 850 1323 850 1305 c 0,35,36
 850 1300 850 1300 848 1292 c 0,37,38
 842 1276 842 1276 830.5 1270 c 128,-1,39
 819 1264 819 1264 791 1266 c 2,40,-1
 764 1266 l 1,41,42
 694 1258 694 1258 664.5 1222 c 128,-1,43
 635 1186 635 1186 616 1090 c 2,44,-1
 403 -31 l 2,45,46
 374 -181 374 -181 330.5 -265.5 c 128,-1,47
 287 -350 287 -350 195 -426 c 0,48,49
 0 -588 0 -588 -217 -588 c 0,50,51
 -362 -588 -362 -588 -362 -530 c 0,0,1
EndSplineSet
Validated: 1
EndChar

StartChar: K
Encoding: 75 75 46
Width: 1454
GlyphClass: 2
Flags: W
LayerCount: 2
Fore
SplineSet
18 20 m 0,0,1
 24 38 24 38 33.5 43.5 c 128,-1,2
 43 49 43 49 67.5 48 c 128,-1,3
 92 47 92 47 94 47 c 0,4,5
 170 55 170 55 203 92 c 128,-1,6
 236 129 236 129 258 229 c 2,7,-1
 442 1090 l 2,8,9
 454 1143 454 1143 455 1180 c 0,10,11
 455 1270 455 1270 330 1270 c 2,12,-1
 315 1270 l 2,13,14
 301 1268 301 1268 305 1292 c 0,15,16
 307 1321 307 1321 332 1321 c 0,17,18
 476 1316 476 1316 606 1316 c 128,-1,19
 736 1316 736 1316 854 1321 c 0,20,21
 879 1321 879 1321 868 1290 c 0,22,23
 860 1270 860 1270 844 1270 c 2,24,-1
 821 1270 l 2,25,26
 725 1268 725 1268 686 1233 c 128,-1,27
 647 1198 647 1198 625 1087 c 2,28,-1
 549 725 l 2,29,30
 545 711 545 711 552 705.5 c 128,-1,31
 559 700 559 700 580 713 c 0,32,33
 648 760 648 760 856.5 912.5 c 128,-1,34
 1065 1065 1065 1065 1186 1147 c 0,35,36
 1245 1188 1245 1188 1245 1221 c 0,37,38
 1245 1248 1245 1248 1226.5 1259 c 128,-1,39
 1208 1270 1208 1270 1159 1270 c 0,40,41
 1149 1270 1149 1270 1145 1271 c 128,-1,42
 1141 1272 1141 1272 1138 1277 c 128,-1,43
 1135 1282 1135 1282 1139 1294 c 0,44,45
 1143 1321 1143 1321 1161 1321 c 0,46,47
 1241 1317 1241 1317 1360.5 1317 c 128,-1,48
 1480 1317 1480 1317 1640 1321 c 0,49,50
 1657 1320 1657 1320 1659 1310 c 0,51,52
 1660 1307 1660 1307 1660 1305 c 0,53,54
 1660 1297 1660 1297 1655 1288 c 0,55,56
 1649 1276 1649 1276 1642 1274 c 0,57,58
 1630 1272 1630 1272 1626 1270 c 2,59,-1
 1542 1253 l 2,60,61
 1386 1224 1386 1224 1167 1059 c 0,62,63
 921 877 921 877 762 754 c 0,64,65
 739 738 739 738 756 715 c 2,66,-1
 1184 180 l 2,67,68
 1243 104 1243 104 1302.5 76.5 c 128,-1,69
 1362 49 1362 49 1442 49 c 2,70,-1
 1456 49 l 2,71,72
 1466 49 1466 49 1467 34.5 c 128,-1,73
 1468 20 1468 20 1461 7 c 128,-1,74
 1454 -6 1454 -6 1444 -6 c 0,75,76
 1374 -2 1374 -2 1297.5 -2 c 128,-1,77
 1221 -2 1221 -2 1139 -6 c 0,78,79
 1112 -6 1112 -6 1096 16 c 2,80,-1
 596 641 l 1,81,-1
 537 604 l 2,82,83
 521 592 521 592 516 571 c 2,84,-1
 444 227 l 1,85,86
 428 180 428 180 428 144 c 0,87,88
 428 113 428 113 440 92 c 0,89,90
 465 45 465 45 584 45 c 0,91,92
 600 47 600 47 611.5 41 c 128,-1,93
 623 35 623 35 621 20 c 0,94,95
 617 0 617 0 596 -6 c 1,96,97
 452 -2 452 -2 313 -2 c 128,-1,98
 174 -2 174 -2 41 -6 c 1,99,100
 17 -1 17 -1 17 14 c 0,101,102
 17 17 17 17 18 20 c 0,0,1
EndSplineSet
Validated: 1
EndChar

StartChar: L
Encoding: 76 76 47
Width: 1234
GlyphClass: 2
Flags: W
LayerCount: 2
Fore
SplineSet
33 4 m 0,0,1
 31 11 31 11 31 17 c 0,2,3
 31 28 31 28 38 38 c 0,4,5
 49 52 49 52 61 53 c 0,6,7
 71 53 71 53 81.5 53 c 128,-1,8
 92 53 92 53 100 55 c 0,9,10
 176 59 176 59 213 103 c 128,-1,11
 250 147 250 147 272 260 c 2,12,-1
 446 1092 l 2,13,14
 460 1156 460 1156 460 1191 c 0,15,16
 460 1228 460 1228 429 1248 c 0,17,18
 397 1270 397 1270 326 1270 c 0,19,20
 322 1270 322 1270 309.5 1269 c 128,-1,21
 297 1268 297 1268 294 1268 c 128,-1,22
 291 1268 291 1268 282.5 1271 c 128,-1,23
 274 1274 274 1274 276.5 1281 c 128,-1,24
 279 1288 279 1288 279 1300 c 0,25,26
 287 1323 287 1323 297 1323 c 0,27,28
 439 1315 439 1315 581 1315 c 128,-1,29
 723 1315 723 1315 864 1323 c 0,30,31
 887 1323 887 1323 881 1292 c 0,32,33
 879 1286 879 1286 875.5 1282 c 128,-1,34
 872 1278 872 1278 870 1275 c 128,-1,35
 868 1272 868 1272 861 1271 c 128,-1,36
 854 1270 854 1270 852 1270 c 128,-1,37
 850 1270 850 1270 840 1270 c 2,38,-1
 831 1270 l 2,39,40
 735 1270 735 1270 695 1235 c 128,-1,41
 655 1200 655 1200 633 1090 c 2,42,-1
 455 250 l 1,43,44
 443 214 443 214 443 183 c 0,45,46
 444 156 444 156 452 132 c 0,47,48
 472 80 472 80 553 78 c 2,49,-1
 764 78 l 2,50,51
 944 80 944 80 1051 139 c 0,52,53
 1143 190 1143 190 1231 299 c 0,54,55
 1242 313 1242 313 1262 308 c 0,56,57
 1278 304 1278 304 1277 291 c 0,58,59
 1277 287 1277 287 1276 283 c 0,60,61
 1260 248 1260 248 1230 159 c 128,-1,62
 1200 70 1200 70 1188 37 c 0,63,64
 1174 -4 1174 -4 1135 -4 c 0,65,66
 1112 -4 1112 -4 596 -1 c 0,67,68
 375 0 375 0 246 0 c 0,69,70
 74 0 74 0 66 -2 c 0,71,72
 56 -4 56 -4 49 -4 c 0,73,74
 34 -4 34 -4 33 4 c 0,0,1
EndSplineSet
Validated: 1
EndChar

StartChar: M
Encoding: 77 77 48
Width: 1808
GlyphClass: 2
Flags: W
LayerCount: 2
Fore
SplineSet
-12 23 m 0,0,1
 -6 46 -6 46 10 45 c 0,2,3
 116 59 116 59 172 127 c 0,4,5
 213 176 213 176 270 371 c 2,6,-1
 475 1073 l 1,7,8
 495 1122 495 1122 495 1161 c 0,9,10
 496 1188 496 1188 486 1212 c 0,11,12
 464 1268 464 1268 360 1270 c 0,13,14
 317 1270 317 1270 299 1274 c 0,15,16
 287 1280 287 1280 294 1302.5 c 128,-1,17
 301 1325 301 1325 319 1321 c 0,18,19
 403 1319 403 1319 478 1319 c 0,20,21
 590 1319 590 1319 682 1323 c 0,22,23
 688 1324 688 1324 693 1324 c 0,24,25
 721 1324 721 1324 721 1305 c 2,26,-1
 864 285 l 2,27,28
 868 269 868 269 875.5 261.5 c 128,-1,29
 883 254 883 254 893 266 c 2,30,-1
 1577 1307 l 2,31,32
 1587 1323 1587 1323 1616 1323 c 0,33,34
 1716 1320 1716 1320 1795 1320 c 128,-1,35
 1874 1320 1874 1320 1931 1323 c 0,36,37
 1956 1323 1956 1323 1958 1313 c 0,38,39
 1959 1310 1959 1310 1959 1307 c 0,40,41
 1959 1298 1959 1298 1955 1286 c 0,42,43
 1950 1270 1950 1270 1937 1272 c 2,44,-1
 1923 1272 l 2,45,46
 1827 1272 1827 1272 1786 1236 c 128,-1,47
 1745 1200 1745 1200 1722 1090 c 2,48,-1
 1540 229 l 1,49,50
 1525 186 1525 186 1525 150 c 0,51,52
 1524 122 1524 122 1534 99 c 0,53,54
 1556 47 1556 47 1657 47 c 0,55,56
 1659 47 1659 47 1663 47 c 0,57,58
 1677 47 1677 47 1682.5 46 c 128,-1,59
 1688 45 1688 45 1695 39 c 128,-1,60
 1702 33 1702 33 1694 18 c 0,61,62
 1692 8 1692 8 1683.5 1 c 128,-1,63
 1675 -6 1675 -6 1667 -4 c 0,64,65
 1595 0 1595 0 1461.5 0 c 128,-1,66
 1328 0 1328 0 1133 -4 c 0,67,68
 1113 -6 1113 -6 1118 25 c 0,69,70
 1124 50 1124 50 1139 49 c 0,71,72
 1194 49 1194 49 1221 53 c 0,73,74
 1280 63 1280 63 1309.5 102 c 128,-1,75
 1339 141 1339 141 1358 231 c 2,76,-1
 1546 1100 l 2,77,78
 1550 1116 1550 1116 1548 1123 c 128,-1,79
 1546 1130 1546 1130 1539 1125 c 128,-1,80
 1532 1120 1532 1120 1524 1108 c 2,81,-1
 823 2 l 1,82,83
 801 -10 801 -10 774 -10 c 0,84,85
 770 -10 770 -10 766 -10 c 0,86,87
 734 -8 734 -8 731 4 c 2,88,-1
 580 1098 l 2,89,90
 576 1135 576 1135 563 1112 c 0,91,92
 559 1106 559 1106 557 1100 c 2,93,-1
 313 264 l 2,94,95
 301 223 301 223 301 178 c 0,96,97
 301 115 301 115 337 83 c 128,-1,98
 373 51 373 51 451 45 c 0,99,100
 465 45 465 45 457 20 c 1,101,102
 455 -5 455 -5 440 -4 c 0,103,104
 308 1 308 1 198 1 c 128,-1,105
 88 1 88 1 0 -4 c 0,106,107
 -13 -4 -13 -4 -13 13 c 0,108,109
 -13 18 -13 18 -12 23 c 0,0,1
EndSplineSet
Validated: 1
EndChar

StartChar: N
Encoding: 78 78 49
Width: 1615
GlyphClass: 2
Flags: W
LayerCount: 2
Fore
SplineSet
25 25 m 0,0,1
 31 48 31 48 47 45 c 1,2,3
 149 59 149 59 193.5 107.5 c 128,-1,4
 238 156 238 156 262 279 c 2,5,-1
 449 1202 l 1,6,7
 435 1220 435 1220 419 1232.5 c 128,-1,8
 403 1245 403 1245 381.5 1251 c 128,-1,9
 360 1257 360 1257 348 1260.5 c 128,-1,10
 336 1264 336 1264 306 1267 c 128,-1,11
 276 1270 276 1270 266 1272 c 0,12,13
 248 1276 248 1276 252 1300 c 0,14,15
 254 1323 254 1323 274 1323 c 0,16,17
 319 1321 319 1321 379 1321 c 128,-1,18
 439 1321 439 1321 514 1323 c 0,19,20
 569 1323 569 1323 580 1307 c 2,21,-1
 1251 272 l 2,22,23
 1278 233 1278 233 1290 272 c 2,24,-1
 1456 1055 l 2,25,26
 1466 1103 1466 1103 1466 1139 c 0,27,28
 1466 1190 1466 1190 1446 1219 c 0,29,30
 1411 1268 1411 1268 1286 1276 c 0,31,32
 1276 1276 1276 1276 1276 1300 c 1,33,34
 1280 1323 1280 1323 1296 1323 c 0,35,36
 1428 1320 1428 1320 1542 1320 c 128,-1,37
 1656 1320 1656 1320 1753 1323 c 0,38,39
 1755 1323 1755 1323 1756 1323 c 0,40,41
 1768 1323 1768 1323 1768 1314 c 0,42,43
 1768 1307 1768 1307 1761 1294 c 0,44,45
 1753 1278 1753 1278 1743 1278 c 0,46,47
 1647 1264 1647 1264 1597.5 1213.5 c 128,-1,48
 1548 1163 1548 1163 1526 1055 c 2,49,-1
 1298 -23 l 2,50,51
 1296 -31 1296 -31 1270 -32 c 0,52,53
 1268 -32 1268 -32 1266 -32 c 0,54,55
 1244 -32 1244 -32 1235 -23 c 2,56,-1
 532 1077 l 2,57,58
 509 1106 509 1106 502 1069 c 2,59,-1
 350 289 l 2,60,61
 342 243 342 243 342 206 c 0,62,63
 342 156 342 156 358 123 c 0,64,65
 386 66 386 66 496 51 c 0,66,67
 516 51 516 51 521 46 c 128,-1,68
 526 41 526 41 524 23 c 0,69,70
 520 -4 520 -4 506 -4 c 0,71,72
 366 1 366 1 250 1 c 128,-1,73
 134 1 134 1 41 -4 c 0,74,75
 23 -6 23 -6 23 12 c 0,76,77
 23 18 23 18 25 25 c 0,0,1
EndSplineSet
Validated: 1
EndChar

StartChar: O
Encoding: 79 79 50
Width: 1677
GlyphClass: 2
Flags: W
LayerCount: 2
Fore
SplineSet
180 588 m 0,0,1
 180 901 180 901 417.5 1128.5 c 128,-1,2
 655 1356 655 1356 983 1356 c 0,3,4
 1251 1356 1251 1356 1426.5 1176.5 c 128,-1,5
 1602 997 1602 997 1602 733 c 0,6,7
 1602 414 1602 414 1365 188.5 c 128,-1,8
 1128 -37 1128 -37 793 -37 c 0,9,10
 525 -37 525 -37 352.5 141 c 128,-1,11
 180 319 180 319 180 588 c 0,0,1
373 537 m 0,12,13
 373 299 373 299 483.5 164 c 128,-1,14
 594 29 594 29 793 27 c 0,15,16
 795 27 795 27 798 27 c 0,17,18
 1055 27 1055 27 1231 247 c 0,19,20
 1409 469 1409 469 1409 797 c 0,21,22
 1408 1020 1408 1020 1294 1157 c 0,23,24
 1181 1292 1181 1292 991 1292 c 0,25,26
 988 1292 988 1292 985 1292 c 0,27,28
 749 1292 749 1292 604 1137 c 0,29,30
 498 1024 498 1024 435.5 862 c 128,-1,31
 373 700 373 700 373 537 c 0,12,13
EndSplineSet
Validated: 1
EndChar

StartChar: P
Encoding: 80 80 51
Width: 1155
GlyphClass: 2
Flags: W
LayerCount: 2
Fore
SplineSet
-39 20 m 0,0,1
 -33 47 -33 47 -20 47 c 0,2,3
 74 51 74 51 114 92 c 128,-1,4
 154 133 154 133 180 256 c 2,5,-1
 354 1079 l 2,6,7
 362 1130 362 1130 368 1172 c 0,8,9
 369 1177 369 1177 368 1183 c 0,10,11
 368 1218 368 1218 336 1241 c 0,12,13
 299 1268 299 1268 213 1268 c 1,14,15
 190 1272 190 1272 195 1296 c 0,16,17
 199 1325 199 1325 227 1325 c 0,18,19
 288 1323 288 1323 680 1323 c 0,20,21
 832 1323 832 1323 913.5 1304.5 c 128,-1,22
 995 1286 995 1286 1065 1237 c 0,23,24
 1206 1136 1206 1136 1206 956 c 0,25,26
 1206 809 1206 809 1105 691 c 128,-1,27
 1004 573 1004 573 846 537 c 0,28,29
 729 510 729 510 638 510 c 0,30,31
 583 510 583 510 537 520 c 0,32,33
 519 528 519 528 523.5 547.5 c 128,-1,34
 528 567 528 567 545 565 c 0,35,36
 574 561 574 561 603 561 c 0,37,38
 689 561 689 561 767 593 c 0,39,40
 872 635 872 635 934 727 c 0,41,42
 1014 846 1014 846 1014 985 c 0,43,44
 1014 1079 1014 1079 973 1146.5 c 128,-1,45
 932 1214 932 1214 862 1237 c 0,46,47
 799 1257 799 1257 608 1257 c 0,48,49
 575 1257 575 1257 567 1225 c 2,50,-1
 358 229 l 2,51,52
 350 189 350 189 350 158 c 0,53,54
 350 116 350 116 366 91 c 0,55,56
 394 49 394 49 498 49 c 0,57,58
 539 49 539 49 541 37 c 0,59,60
 543 31 543 31 537 16 c 0,61,62
 529 -4 529 -4 516 -4 c 0,63,64
 358 3 358 3 223 3 c 128,-1,65
 88 3 88 3 -25 -4 c 0,66,67
 -40 -4 -40 -4 -40 12 c 0,68,69
 -40 16 -40 16 -39 20 c 0,0,1
EndSplineSet
Validated: 1
EndChar

StartChar: Q
Encoding: 81 81 52
Width: 1634
GlyphClass: 2
Flags: W
LayerCount: 2
Fore
SplineSet
127 588 m 0,0,1
 127 899 127 899 365.5 1127.5 c 128,-1,2
 604 1356 604 1356 938 1356 c 0,3,4
 1227 1356 1227 1356 1410 1178.5 c 128,-1,5
 1593 1001 1593 1001 1593 733 c 0,6,7
 1593 457 1593 457 1423 245 c 128,-1,8
 1253 33 1253 33 971 -23 c 0,9,10
 942 -29 942 -29 958 -43 c 0,11,12
 981 -57 981 -57 1012 -78 c 0,13,14
 1297 -277 1297 -277 1372 -297 c 0,15,16
 1420 -309 1420 -309 1462 -309 c 0,17,18
 1523 -309 1523 -309 1573 -285 c 0,19,20
 1583 -277 1583 -277 1593.5 -284 c 128,-1,21
 1604 -291 1604 -291 1607 -302 c 0,22,23
 1608 -307 1608 -307 1608 -311 c 0,24,25
 1608 -316 1608 -316 1606 -319 c 0,26,27
 1495 -413 1495 -413 1358 -414 c 0,28,29
 1280 -414 1280 -414 1180.5 -373 c 128,-1,30
 1081 -332 1081 -332 1012.5 -287 c 128,-1,31
 944 -242 944 -242 835.5 -165 c 128,-1,32
 727 -88 727 -88 690 -63 c 1,33,34
 643 -24 643 -24 625 -23 c 0,35,36
 410 22 410 22 268.5 197.5 c 128,-1,37
 127 373 127 373 127 588 c 0,0,1
330 535 m 0,38,39
 330 302 330 302 455 162.5 c 128,-1,40
 580 23 580 23 793 23 c 0,41,42
 1061 23 1061 23 1226 243 c 128,-1,43
 1391 463 1391 463 1391 795 c 0,44,45
 1391 1020 1391 1020 1274 1158 c 128,-1,46
 1157 1296 1157 1296 956 1296 c 0,47,48
 729 1296 729 1296 569 1137 c 0,49,50
 458 1024 458 1024 394 862 c 128,-1,51
 330 700 330 700 330 535 c 0,38,39
EndSplineSet
Validated: 1
EndChar

StartChar: R
Encoding: 82 82 53
Width: 1277
GlyphClass: 2
Flags: W
LayerCount: 2
Fore
SplineSet
2 27 m 0,0,1
 10 52 10 52 25 49 c 2,2,-1
 41 49 l 2,3,4
 145 49 145 49 186 84 c 128,-1,5
 227 119 227 119 252 231 c 2,6,-1
 436 1092 l 2,7,8
 444 1132 444 1132 444 1162 c 0,9,10
 444 1200 444 1200 432 1224 c 0,11,12
 410 1268 410 1268 313 1268 c 0,13,14
 297 1268 297 1268 289 1269 c 128,-1,15
 281 1270 281 1270 272.5 1277 c 128,-1,16
 264 1284 264 1284 266 1296 c 0,17,18
 270 1325 270 1325 301 1325 c 0,19,20
 348 1323 348 1323 842 1323 c 0,21,22
 1022 1321 1022 1321 1132.5 1232 c 128,-1,23
 1243 1143 1243 1143 1243 995 c 0,24,25
 1243 852 1243 852 1140.5 749.5 c 128,-1,26
 1038 647 1038 647 864 610 c 0,27,28
 844 606 844 606 854 590 c 0,29,30
 877 557 877 557 901 508 c 0,31,32
 954 387 954 387 997 301 c 0,33,34
 1060 176 1060 176 1165 94 c 0,35,36
 1245 31 1245 31 1343 31 c 0,37,38
 1356 31 1356 31 1356 17 c 0,39,40
 1356 -3 1356 -3 1346 -8 c 0,41,42
 1303 -24 1303 -24 1274 -25 c 0,43,44
 1114 -25 1114 -25 1019 15 c 128,-1,45
 924 55 924 55 846 176 c 0,46,47
 828 207 828 207 811.5 244 c 128,-1,48
 795 281 795 281 776.5 329 c 128,-1,49
 758 377 758 377 750 399 c 0,50,51
 705 505 705 505 670 575 c 1,52,53
 594 569 594 569 535 569 c 0,54,55
 510 569 510 569 502 539 c 2,56,-1
 438 229 l 2,57,58
 429 186 429 186 429 154 c 0,59,60
 430 113 430 113 444 89 c 0,61,62
 470 47 470 47 578 47 c 0,63,64
 607 47 607 47 615 41 c 128,-1,65
 623 35 623 35 614 10 c 0,66,67
 610 -4 610 -4 584 -4 c 0,68,69
 414 2 414 2 271 2 c 128,-1,70
 128 2 128 2 12 -4 c 0,71,72
 -1 -5 -1 -5 -1 9 c 0,73,74
 -1 16 -1 16 2 27 c 0,0,1
526 651 m 2,75,76
 524 645 524 645 534.5 638 c 128,-1,77
 545 631 545 631 557 631 c 0,78,79
 690 631 690 631 745 647 c 0,80,81
 796 659 796 659 877 709 c 0,82,83
 955 754 955 754 1005 846 c 0,84,85
 1050 930 1050 930 1050 1020 c 0,86,87
 1050 1028 1050 1028 1050 1038 c 0,88,89
 1045 1138 1045 1138 971 1198 c 0,90,91
 895 1259 895 1259 698 1260 c 0,92,93
 678 1260 678 1260 663.5 1247.5 c 128,-1,94
 649 1235 649 1235 647 1223 c 2,95,-1
 526 651 l 2,75,76
EndSplineSet
Validated: 1
EndChar

StartChar: S
Encoding: 83 83 54
Width: 1058
GlyphClass: 2
Flags: W
LayerCount: 2
Fore
SplineSet
31 116 m 0,0,1
 30 126 30 126 30 132 c 128,-1,2
 30 138 30 138 31 141 c 2,3,-1
 96 401 l 2,4,5
 98 413 98 413 110.5 417.5 c 128,-1,6
 123 422 123 422 133 417 c 128,-1,7
 143 412 143 412 141 399 c 0,8,9
 141 385 141 385 140 371.5 c 128,-1,10
 139 358 139 358 139 352 c 0,11,12
 139 196 139 196 229 110.5 c 128,-1,13
 319 25 319 25 492 25 c 0,14,15
 642 25 642 25 725.5 91.5 c 128,-1,16
 809 158 809 158 809 268 c 0,17,18
 809 348 809 348 752.5 418.5 c 128,-1,19
 696 489 696 489 616.5 546.5 c 128,-1,20
 537 604 537 604 456 664.5 c 128,-1,21
 375 725 375 725 318.5 809 c 128,-1,22
 262 893 262 893 262 991 c 0,23,24
 262 1136 262 1136 378 1236.5 c 128,-1,25
 494 1337 494 1337 672 1337 c 0,26,27
 719 1337 719 1337 803 1316.5 c 128,-1,28
 887 1296 887 1296 928 1296 c 0,29,30
 965 1296 965 1296 993 1325 c 1,31,32
 999 1339 999 1339 1024 1335 c 0,33,34
 1034 1333 1034 1333 1040 1330 c 0,35,36
 1044 1328 1044 1328 1044 1325 c 0,37,38
 1044 1324 1044 1324 1044 1323 c 0,39,40
 1019 1192 1019 1192 997 975 c 0,41,42
 997 963 997 963 972.5 963 c 128,-1,43
 948 963 948 963 948 975 c 0,44,45
 948 1276 948 1276 672 1276 c 0,46,47
 549 1276 549 1276 479.5 1219.5 c 128,-1,48
 410 1163 410 1163 410 1071 c 0,49,50
 410 983 410 983 484.5 901 c 128,-1,51
 559 819 559 819 683 732 c 128,-1,52
 807 645 807 645 846 606 c 0,53,54
 965 487 965 487 965 344 c 0,55,56
 965 174 965 174 833.5 68.5 c 128,-1,57
 702 -37 702 -37 483 -37 c 128,-1,58
 264 -37 264 -37 39 92 c 0,59,60
 33 96 33 96 31 116 c 0,0,1
EndSplineSet
Validated: 1
EndChar

StartChar: T
Encoding: 84 84 55
Width: 1290
GlyphClass: 2
Flags: W
LayerCount: 2
Fore
SplineSet
147 1038 m 0,0,1
 206 1263 206 1263 221 1380 c 0,2,3
 225 1390 225 1390 246 1391 c 0,4,5
 264 1391 264 1391 266 1380 c 1,6,7
 295 1345 295 1345 321.5 1334 c 128,-1,8
 348 1323 348 1323 410 1323 c 2,9,-1
 1227 1323 l 2,10,11
 1338 1323 1338 1323 1377.5 1333 c 128,-1,12
 1417 1343 1417 1343 1458 1382 c 0,13,14
 1464 1392 1464 1392 1483 1393 c 0,15,16
 1491 1392 1491 1392 1498 1388 c 0,17,18
 1503 1384 1503 1384 1503 1382 c 2,19,-1
 1432 1032 l 2,20,21
 1428 1018 1428 1018 1406 1018 c 128,-1,22
 1384 1018 1384 1018 1382 1032 c 0,23,24
 1382 1095 1382 1095 1380 1122 c 0,25,26
 1372 1173 1372 1173 1362 1194 c 0,27,28
 1333 1253 1333 1253 1223 1253 c 2,29,-1
 958 1253 l 1,30,31
 931 1249 931 1249 924 1221 c 2,32,-1
 715 229 l 2,33,34
 705 181 705 181 705 148 c 128,-1,35
 705 115 705 115 715 97 c 0,36,37
 735 61 735 61 815 55 c 0,38,39
 838 53 838 53 899 53 c 0,40,41
 917 53 917 53 913 27 c 0,42,43
 909 -4 909 -4 889 -4 c 0,44,45
 741 0 741 0 589.5 0 c 128,-1,46
 438 0 438 0 283 -4 c 0,47,48
 260 -4 260 -4 272 27 c 0,49,50
 280 54 280 54 299 53 c 0,51,52
 344 53 344 53 365 55 c 0,53,54
 445 59 445 59 475.5 94 c 128,-1,55
 506 129 506 129 528 231 c 2,56,-1
 741 1210 l 2,57,58
 749 1253 749 1253 715 1253 c 2,59,-1
 520 1253 l 2,60,61
 366 1253 366 1253 307 1206 c 0,62,63
 270 1177 270 1177 248.5 1140.5 c 128,-1,64
 227 1104 227 1104 193 1028 c 0,65,66
 187 1010 187 1010 164 1014 c 0,67,68
 145 1020 145 1020 145 1031 c 0,69,70
 145 1034 145 1034 147 1038 c 0,0,1
EndSplineSet
Validated: 1
EndChar

StartChar: U
Encoding: 85 85 56
Width: 1515
GlyphClass: 2
Flags: W
LayerCount: 2
Fore
SplineSet
121 1303 m 0,0,1
 129 1330 129 1330 150 1325 c 1,2,3
 278 1319 278 1319 414 1319 c 128,-1,4
 550 1319 550 1319 694 1325 c 0,5,6
 706 1325 706 1325 713.5 1317 c 128,-1,7
 721 1309 721 1309 719 1298 c 0,8,9
 719 1265 719 1265 682 1270 c 0,10,11
 671 1270 671 1270 660 1270 c 0,12,13
 574 1270 574 1270 542 1241 c 0,14,15
 506 1208 506 1208 481 1090 c 2,16,-1
 365 545 l 2,17,18
 340 428 340 428 340 342 c 0,19,20
 340 197 340 197 442.5 111 c 128,-1,21
 545 25 545 25 727 25 c 0,22,23
 963 25 963 25 1079.5 149.5 c 128,-1,24
 1196 274 1196 274 1239 504 c 2,25,-1
 1343 1059 l 2,26,27
 1352 1103 1352 1103 1352 1137 c 0,28,29
 1352 1195 1352 1195 1327 1225 c 0,30,31
 1288 1272 1288 1272 1163 1272 c 0,32,33
 1149 1272 1149 1272 1153 1300 c 0,34,35
 1157 1312 1157 1312 1162 1319.5 c 128,-1,36
 1167 1327 1167 1327 1174 1325 c 0,37,38
 1321 1322 1321 1322 1425 1322 c 0,39,40
 1564 1322 1564 1322 1628 1327 c 0,41,42
 1629 1327 1629 1327 1630 1327 c 0,43,44
 1647 1327 1647 1327 1647 1296 c 1,45,46
 1641 1267 1641 1267 1618 1272 c 1,47,48
 1522 1260 1522 1260 1481 1219 c 128,-1,49
 1440 1178 1440 1178 1415 1044 c 2,50,-1
 1311 483 l 2,51,52
 1282 329 1282 329 1219 223 c 0,53,54
 1061 -37 1061 -37 692 -37 c 0,55,56
 514 -37 514 -37 401.5 13 c 128,-1,57
 289 63 289 63 219 170 c 0,58,59
 162 258 162 258 158 358 c 0,60,61
 157 371 157 371 157 384 c 0,62,63
 157 470 157 470 180 553 c 1,64,-1
 293 1081 l 2,65,66
 303 1136 303 1136 305 1178 c 0,67,68
 305 1181 305 1181 305 1184 c 0,69,70
 306 1222 306 1222 276 1246 c 0,71,72
 244 1272 244 1272 174 1272 c 2,73,-1
 139 1272 l 2,74,75
 131 1272 131 1272 125 1282 c 0,76,77
 120 1290 120 1290 120 1298 c 0,78,79
 120 1300 120 1300 121 1303 c 0,0,1
EndSplineSet
Validated: 33
EndChar

StartChar: V
Encoding: 86 86 57
Width: 1308
GlyphClass: 2
Flags: W
LayerCount: 2
Fore
SplineSet
111 1280 m 0,0,1
 110 1287 110 1287 110 1294 c 0,2,3
 110 1313 110 1313 123 1323 c 0,4,5
 127 1325 127 1325 131 1325 c 0,6,7
 300 1321 300 1321 433 1321 c 128,-1,8
 566 1321 566 1321 662 1325 c 0,9,10
 678 1325 678 1325 670 1296 c 0,11,12
 664 1269 664 1269 645 1270 c 0,13,14
 639 1270 639 1270 605 1271 c 128,-1,15
 571 1272 571 1272 557 1268 c 0,16,17
 463 1252 463 1252 453 1092 c 2,18,-1
 401 231 l 2,19,20
 399 204 399 204 405.5 200.5 c 128,-1,21
 412 197 412 197 432 219 c 2,22,-1
 1145 1059 l 2,23,24
 1227 1153 1227 1153 1227 1202 c 0,25,26
 1227 1231 1227 1231 1210.5 1246.5 c 128,-1,27
 1194 1262 1194 1262 1179.5 1264 c 128,-1,28
 1165 1266 1165 1266 1133 1268 c 0,29,30
 1106 1272 1106 1272 1096 1274 c 0,31,32
 1078 1274 1078 1274 1077 1300 c 1,33,34
 1081 1325 1081 1325 1100 1325 c 0,35,36
 1205 1322 1205 1322 1307.5 1322 c 128,-1,37
 1410 1322 1410 1322 1511 1325 c 0,38,39
 1518 1324 1518 1324 1522 1312 c 0,40,41
 1523 1308 1523 1308 1524 1304 c 0,42,43
 1524 1296 1524 1296 1520 1287 c 0,44,45
 1514 1274 1514 1274 1501 1274 c 0,46,47
 1438 1254 1438 1254 1387.5 1211.5 c 128,-1,48
 1337 1169 1337 1169 1264 1083 c 2,49,-1
 303 -33 l 2,50,51
 295 -45 295 -45 252 -45 c 0,52,53
 238 -45 238 -45 227.5 -35 c 128,-1,54
 217 -25 217 -25 217 -10 c 2,55,-1
 272 1092 l 2,56,57
 273 1108 273 1108 273 1123 c 0,58,59
 272 1191 272 1191 250 1227 c 0,60,61
 222 1270 222 1270 133 1270 c 2,62,-1
 123 1270 l 2,63,64
 115 1268 115 1268 111 1280 c 0,0,1
EndSplineSet
Validated: 1
EndChar

StartChar: W
Encoding: 87 87 58
Width: 1826
GlyphClass: 2
Flags: W
LayerCount: 2
Fore
SplineSet
94 1303 m 0,0,1
 98 1325 98 1325 117 1325 c 0,2,3
 118 1325 118 1325 119 1325 c 0,4,5
 233 1321 233 1321 355 1321 c 128,-1,6
 477 1321 477 1321 608 1325 c 0,7,8
 610 1325 610 1325 611 1325 c 0,9,10
 620 1325 620 1325 624 1318 c 0,11,12
 630 1309 630 1309 627 1296 c 0,13,14
 625 1288 625 1288 617.5 1279 c 128,-1,15
 610 1270 610 1270 604 1270 c 0,16,17
 502 1258 502 1258 473 1225 c 128,-1,18
 444 1192 444 1192 432 1075 c 2,19,-1
 348 266 l 2,20,21
 344 239 344 239 349 233 c 128,-1,22
 354 227 354 227 375 250 c 2,23,-1
 1020 1077 l 1,24,-1
 1020 1153 l 2,25,26
 1020 1225 1020 1225 992.5 1245.5 c 128,-1,27
 965 1266 965 1266 866 1270 c 0,28,29
 856 1270 856 1270 854 1283 c 128,-1,30
 852 1296 852 1296 857 1310.5 c 128,-1,31
 862 1325 862 1325 870 1325 c 0,32,33
 993 1321 993 1321 1121 1321 c 128,-1,34
 1249 1321 1249 1321 1382 1325 c 0,35,36
 1392 1325 1392 1325 1392.5 1311.5 c 128,-1,37
 1393 1298 1393 1298 1385.5 1284 c 128,-1,38
 1378 1270 1378 1270 1372 1270 c 0,39,40
 1259 1258 1259 1258 1235.5 1234 c 128,-1,41
 1212 1210 1212 1210 1204 1102 c 2,42,-1
 1145 266 l 2,43,44
 1143 241 1143 241 1149 236 c 128,-1,45
 1155 231 1155 231 1171 254 c 2,46,-1
 1743 1065 l 2,47,48
 1803 1149 1803 1149 1803 1199 c 0,49,50
 1803 1245 1803 1245 1751 1262 c 0,51,52
 1722 1270 1722 1270 1663 1270 c 0,53,54
 1655 1270 1655 1270 1648.5 1279 c 128,-1,55
 1642 1288 1642 1288 1645 1298 c 0,56,57
 1651 1325 1651 1325 1669 1325 c 0,58,59
 1811 1322 1811 1322 1911.5 1322 c 128,-1,60
 2012 1322 2012 1322 2071 1325 c 0,61,62
 2083 1325 2083 1325 2083 1315 c 0,63,64
 2083 1309 2083 1309 2079 1300 c 0,65,66
 2075 1273 2075 1273 2060 1274 c 1,67,68
 2009 1262 2009 1262 1963 1223 c 128,-1,69
 1917 1184 1917 1184 1855 1098 c 2,70,-1
 1061 -6 l 2,71,72
 1043 -31 1043 -31 1018 -31 c 0,73,74
 981 -31 981 -31 977 -29 c 0,75,76
 952 -19 952 -19 952 -10 c 2,77,-1
 1018 920 l 2,78,79
 1018 957 1018 957 997 936 c 2,80,-1
 260 -10 l 2,81,82
 240 -30 240 -30 229 -31 c 0,83,84
 213 -35 213 -35 200 -35 c 0,85,86
 191 -35 191 -35 184 -33 c 0,87,88
 161 -23 161 -23 162 -12 c 2,89,-1
 256 1110 l 2,90,91
 258 1124 258 1124 258 1149 c 0,92,93
 258 1219 258 1219 238.5 1241.5 c 128,-1,94
 219 1264 219 1264 182 1266 c 0,95,96
 139 1266 139 1266 113 1272 c 1,97,98
 93 1272 93 1272 93 1292 c 0,99,100
 93 1297 93 1297 94 1303 c 0,0,1
EndSplineSet
Validated: 1
EndChar

StartChar: X
Encoding: 88 88 59
Width: 1441
GlyphClass: 2
Flags: W
LayerCount: 2
Fore
SplineSet
-25 18 m 0,0,1
 -21 45 -21 45 -8 45 c 0,2,3
 115 61 115 61 146.5 77.5 c 128,-1,4
 178 94 178 94 266 182 c 2,5,-1
 743 659 l 1,6,7
 755 679 755 679 752 700 c 1,8,-1
 500 1163 l 2,9,10
 465 1226 465 1226 417 1248 c 128,-1,11
 369 1270 369 1270 260 1274 c 0,12,13
 250 1274 250 1274 250 1303 c 1,14,15
 256 1323 256 1323 272 1323 c 0,16,17
 403 1320 403 1320 544.5 1320 c 128,-1,18
 686 1320 686 1320 838 1323 c 0,19,20
 861 1323 861 1323 856.5 1298.5 c 128,-1,21
 852 1274 852 1274 840 1274 c 0,22,23
 752 1272 752 1272 721 1260.5 c 128,-1,24
 690 1249 690 1249 690 1214 c 0,25,26
 690 1194 690 1194 719 1141 c 2,27,-1
 877 827 l 2,28,29
 887 815 887 815 890 816 c 128,-1,30
 893 817 893 817 909 829 c 2,31,-1
 1192 1122 l 2,32,33
 1245 1175 1245 1175 1245 1210 c 0,34,35
 1245 1243 1245 1243 1213.5 1257.5 c 128,-1,36
 1182 1272 1182 1272 1096 1274 c 0,37,38
 1076 1272 1076 1272 1083 1300 c 0,39,40
 1089 1323 1089 1323 1102 1323 c 0,41,42
 1242 1319 1242 1319 1365 1319 c 128,-1,43
 1488 1319 1488 1319 1593 1323 c 0,44,45
 1601 1323 1601 1323 1605.5 1322 c 128,-1,46
 1610 1321 1610 1321 1612 1318 c 128,-1,47
 1614 1315 1614 1315 1614 1314 c 128,-1,48
 1614 1313 1614 1313 1614 1305 c 0,49,50
 1610 1278 1610 1278 1593 1278 c 0,51,52
 1495 1266 1495 1266 1421.5 1228 c 128,-1,53
 1348 1190 1348 1190 1268 1108 c 2,54,-1
 936 766 l 2,55,56
 920 754 920 754 930 733 c 2,57,-1
 1210 215 l 2,58,59
 1265 113 1265 113 1306.5 83 c 128,-1,60
 1348 53 1348 53 1446 39 c 0,61,62
 1454 37 1454 37 1454 26.5 c 128,-1,63
 1454 16 1454 16 1448 6 c 128,-1,64
 1442 -4 1442 -4 1438 -4 c 0,65,66
 1303 0 1303 0 1174 0 c 128,-1,67
 1045 0 1045 0 922 -4 c 0,68,69
 920 -4 920 -4 918 -4 c 0,70,71
 889 -4 889 -4 895 25 c 0,72,73
 897 31 897 31 902 38 c 128,-1,74
 907 45 907 45 913 43 c 0,75,76
 954 45 954 45 976.5 47 c 128,-1,77
 999 49 999 49 1023 56 c 128,-1,78
 1047 63 1047 63 1054 75.5 c 128,-1,79
 1061 88 1061 88 1058 109.5 c 128,-1,80
 1055 131 1055 131 1038 164 c 2,81,-1
 815 584 l 1,82,83
 790 621 790 621 772 600 c 2,84,-1
 408 233 l 2,85,86
 340 164 340 164 333 124 c 0,87,88
 332 118 332 118 332 112 c 0,89,90
 332 80 332 80 364 66 c 0,91,92
 402 48 402 48 485 43 c 0,93,94
 491 41 491 41 491.5 28.5 c 128,-1,95
 492 16 492 16 486.5 6 c 128,-1,96
 481 -4 481 -4 475 -4 c 0,97,98
 246 0 246 0 120 0 c 0,99,100
 36 0 36 0 -4 -2 c 0,101,102
 -18 -4 -18 -4 -22 2 c 0,103,104
 -25 6 -25 6 -26 12 c 0,105,106
 -26 15 -26 15 -25 18 c 0,0,1
EndSplineSet
Validated: 1
EndChar

StartChar: Y
Encoding: 89 89 60
Width: 1308
GlyphClass: 2
Flags: W
LayerCount: 2
Fore
SplineSet
211 1300 m 0,0,1
 215 1323 215 1323 233 1323 c 0,2,3
 330 1318 330 1318 440 1318 c 128,-1,4
 550 1318 550 1318 672 1323 c 1,5,6
 695 1319 695 1319 686 1298 c 1,7,8
 682 1273 682 1273 674 1274 c 0,9,10
 604 1268 604 1268 582 1260 c 0,11,12
 560 1251 560 1251 560 1220 c 0,13,14
 560 1190 560 1190 590 1122 c 2,15,-1
 799 645 l 2,16,17
 805 629 805 629 807 627 c 128,-1,18
 809 625 809 625 831 645 c 2,19,-1
 1208 1083 l 2,20,21
 1288 1175 1288 1175 1288 1208 c 0,22,23
 1288 1267 1288 1267 1161 1274 c 0,24,25
 1153 1278 1153 1278 1153 1289 c 128,-1,26
 1153 1300 1153 1300 1160 1312 c 0,27,28
 1166 1323 1166 1323 1175 1323 c 0,29,30
 1176 1323 1176 1323 1178 1323 c 0,31,32
 1282 1318 1282 1318 1372 1318 c 128,-1,33
 1462 1318 1462 1318 1540 1323 c 0,34,35
 1548 1323 1548 1323 1556 1319 c 0,36,37
 1561 1316 1561 1316 1561 1310 c 0,38,39
 1561 1293 1561 1293 1548 1280 c 1,40,41
 1480 1253 1480 1253 1445.5 1229.5 c 128,-1,42
 1411 1206 1411 1206 1352 1135 c 2,43,-1
 831 537 l 1,44,-1
 768 229 l 2,45,46
 759 184 759 184 759 152 c 0,47,48
 759 112 759 112 772 92 c 0,49,50
 796 57 796 57 892 57 c 0,51,52
 898 57 898 57 903 57 c 0,53,54
 952 57 952 57 961 55 c 0,55,56
 975 53 975 53 966.5 24.5 c 128,-1,57
 958 -4 958 -4 950 -4 c 0,58,59
 804 0 804 0 650 0 c 128,-1,60
 496 0 496 0 332 -4 c 1,61,62
 324 0 324 0 324 12.5 c 128,-1,63
 324 25 324 25 331 40 c 128,-1,64
 338 55 338 55 348 55 c 0,65,66
 477 61 477 61 512 84 c 0,67,68
 559 117 559 117 584 231 c 2,69,-1
 649 539 l 1,70,-1
 391 1126 l 2,71,72
 354 1212 354 1212 321.5 1241 c 128,-1,73
 289 1270 289 1270 231 1274 c 0,74,75
 210 1274 210 1274 210 1290 c 0,76,77
 210 1295 210 1295 211 1300 c 0,0,1
EndSplineSet
Validated: 1
EndChar

StartChar: Z
Encoding: 90 90 61
Width: 1406
GlyphClass: 2
Flags: W
LayerCount: 2
Fore
SplineSet
4 43 m 0,0,1
 156 190 156 190 1200 1229 c 0,2,3
 1216 1249 1216 1249 1212 1252 c 128,-1,4
 1208 1255 1208 1255 1188 1255 c 2,5,-1
 791 1255 l 2,6,7
 633 1255 633 1255 541 1188.5 c 128,-1,8
 449 1122 449 1122 389 965 c 0,9,10
 387 959 387 959 362 954 c 1,11,12
 337 954 337 954 338 967 c 0,13,14
 342 983 342 983 364.5 1063 c 128,-1,15
 387 1143 387 1143 402.5 1203.5 c 128,-1,16
 418 1264 418 1264 422 1298 c 0,17,18
 428 1323 428 1323 463 1323 c 0,19,20
 627 1320 627 1320 874.5 1320 c 128,-1,21
 1122 1320 1122 1320 1454 1323 c 0,22,23
 1458 1323 1458 1323 1461 1323 c 0,24,25
 1484 1323 1484 1323 1490 1312 c 0,26,27
 1493 1306 1493 1306 1493 1297 c 0,28,29
 1493 1287 1493 1287 1489 1274 c 1,30,31
 1133 932 1133 932 291 90 c 0,32,33
 281 80 281 80 280 76 c 128,-1,34
 279 72 279 72 284 70 c 128,-1,35
 289 68 289 68 303 66 c 2,36,-1
 842 66 l 2,37,38
 944 66 944 66 1006.5 86 c 128,-1,39
 1069 106 1069 106 1124 154 c 0,40,41
 1202 224 1202 224 1290 371 c 1,42,43
 1308 385 1308 385 1323 381 c 0,44,45
 1339 375 1339 375 1333 356 c 0,46,47
 1313 297 1313 297 1243 35 c 0,48,49
 1235 -4 1235 -4 1196 -4 c 0,50,51
 907 0 907 0 609.5 0 c 128,-1,52
 312 0 312 0 6 -4 c 1,53,54
 -1 0 -1 0 -1 15 c 0,55,56
 -1 38 -1 38 4 43 c 0,0,1
EndSplineSet
Validated: 1
EndChar

StartChar: bracketleft
Encoding: 91 91 62
Width: 628
GlyphClass: 2
Flags: W
LayerCount: 2
Fore
SplineSet
121 -467 m 1,0,-1
 492 1395 l 1,1,-1
 889 1395 l 1,2,-1
 879 1350 l 1,3,-1
 688 1350 l 2,4,5
 647 1350 647 1350 630.5 1334.5 c 128,-1,6
 614 1319 614 1319 604 1274 c 2,7,-1
 283 -344 l 2,8,9
 277 -369 277 -369 276 -383 c 0,10,11
 276 -424 276 -424 379 -424 c 2,12,-1
 526 -424 l 1,13,-1
 518 -467 l 1,14,-1
 121 -467 l 1,0,-1
EndSplineSet
Validated: 1
EndChar

StartChar: backslash
Encoding: 92 92 63
Width: 456
GlyphClass: 2
Flags: W
LayerCount: 2
Fore
SplineSet
152 1356 m 1,0,-1
 291 1356 l 1,1,-1
 473 -33 l 1,2,-1
 334 -33 l 1,3,-1
 152 1356 l 1,0,-1
EndSplineSet
Validated: 1
EndChar

StartChar: bracketright
Encoding: 93 93 64
Width: 628
GlyphClass: 2
Flags: W
LayerCount: 2
Fore
SplineSet
-84 -467 m 1,0,-1
 -76 -422 l 1,1,-1
 117 -422 l 2,2,3
 158 -422 158 -422 176.5 -405.5 c 128,-1,4
 195 -389 195 -389 203 -344 c 2,5,-1
 524 1272 l 2,6,7
 528 1301 528 1301 528 1313 c 0,8,9
 528 1352 528 1352 424 1352 c 2,10,-1
 279 1352 l 1,11,-1
 287 1395 l 1,12,-1
 686 1395 l 1,13,-1
 313 -467 l 1,14,-1
 -84 -467 l 1,0,-1
EndSplineSet
Validated: 1
EndChar

StartChar: asciicircum
Encoding: 94 94 65
Width: 888
GlyphClass: 2
Flags: W
LayerCount: 2
Fore
SplineSet
111 684 m 1,0,-1
 555 1434 l 1,1,-1
 588 1434 l 1,2,-1
 1026 684 l 1,3,-1
 922 684 l 1,4,-1
 569 1284 l 1,5,-1
 215 684 l 1,6,-1
 111 684 l 1,0,-1
EndSplineSet
Validated: 1
EndChar

StartChar: underscore
Encoding: 95 95 66
Width: 1042
GlyphClass: 2
Flags: W
LayerCount: 2
Fore
SplineSet
-18 -428 m 2,0,-1
 -16 -418 l 1,1,-1
 -12 -408 l 1,2,3
 -12 -371 -12 -371 29 -371 c 0,4,5
 1018 -371 1018 -371 1030 -369 c 1,6,7
 1055 -375 1055 -375 1059 -387 c 0,8,9
 1065 -399 1065 -399 1061 -408.5 c 128,-1,10
 1057 -418 1057 -418 1057 -432 c 1,11,12
 1045 -457 1045 -457 1028 -455 c 2,13,-1
 10 -455 l 2,14,15
 -2 -457 -2 -457 -11 -449.5 c 128,-1,16
 -20 -442 -20 -442 -18 -428 c 2,0,-1
EndSplineSet
Validated: 1
EndChar

StartChar: grave
Encoding: 96 96 67
Width: 694
GlyphClass: 2
Flags: W
LayerCount: 2
Fore
SplineSet
349 1339.5 m 128,-1,1
 354 1346 354 1346 365 1346 c 2,2,-1
 516 1346 l 2,3,4
 536 1346 536 1346 541 1339 c 1,5,-1
 541 1337 l 2,6,7
 543 1335 543 1335 543 1333 c 2,8,-1
 641 1022 l 2,9,10
 643 1018 643 1018 640 1015 c 128,-1,11
 637 1012 637 1012 629 1012 c 0,12,13
 613 1012 613 1012 604 1020 c 2,14,-1
 352 1319 l 2,15,0
 344 1333 344 1333 349 1339.5 c 128,-1,1
EndSplineSet
Validated: 1
EndChar

StartChar: a
Encoding: 97 97 68
Width: 851
GlyphClass: 2
Flags: W
LayerCount: 2
Fore
SplineSet
76 199 m 0,0,1
 76 357 76 357 184.5 524.5 c 128,-1,2
 293 692 293 692 459 788 c 0,3,4
 604 872 604 872 791 877 c 0,5,6
 801 877 801 877 803 858 c 1,7,-1
 682 246 l 1,8,-1
 678 227 l 2,9,10
 674 209 674 209 670 190.5 c 128,-1,11
 666 172 666 172 664 152.5 c 128,-1,12
 662 133 662 133 666 122 c 128,-1,13
 670 111 670 111 680 113 c 0,14,15
 707 117 707 117 764 182 c 0,16,17
 776 196 776 196 791 211 c 0,18,19
 807 227 807 227 815 205 c 0,20,21
 817 198 817 198 817 191 c 0,22,23
 817 180 817 180 811 170 c 0,24,25
 729 80 729 80 707 57 c 0,26,27
 621 -25 621 -25 582 -25 c 0,28,29
 520 -25 520 -25 520 75 c 0,30,31
 520 81 520 81 520 88 c 0,32,33
 522 145 522 145 541 225 c 0,34,35
 545 243 545 243 537.5 244.5 c 128,-1,36
 530 246 530 246 518 231 c 0,37,38
 272 -25 272 -25 203 -25 c 0,39,40
 152 -25 152 -25 114 43 c 128,-1,41
 76 111 76 111 76 199 c 0,0,1
213 242 m 0,42,43
 213 179 213 179 232.5 136.5 c 128,-1,44
 252 94 252 94 276 94 c 0,45,46
 305 94 305 94 561 336 c 1,47,-1
 641 731 l 2,48,49
 646 739 646 739 646 746 c 0,50,51
 646 750 646 750 645 752 c 0,52,53
 643 761 643 761 633 760 c 0,54,55
 631 760 631 760 629 760 c 0,56,57
 504 746 504 746 408 680 c 0,58,59
 320 621 320 621 266.5 500 c 128,-1,60
 213 379 213 379 213 242 c 0,42,43
EndSplineSet
Validated: 1
EndChar

StartChar: b
Encoding: 98 98 69
Width: 849
GlyphClass: 2
Flags: W
LayerCount: 2
Fore
SplineSet
139 293 m 0,0,1
 149 348 149 348 229 763 c 128,-1,2
 309 1178 309 1178 360 1399 c 0,3,4
 366 1422 366 1422 350 1421.5 c 128,-1,5
 334 1421 334 1421 272 1386 c 0,6,7
 243 1374 243 1374 240.5 1394.5 c 128,-1,8
 238 1415 238 1415 254 1423 c 2,9,-1
 432 1528 l 2,10,11
 475 1554 475 1554 495 1554 c 0,12,13
 502 1554 502 1554 506 1552 c 0,14,15
 518 1546 518 1546 518 1521 c 0,16,17
 518 1508 518 1508 514 1489 c 2,18,-1
 338 614 l 2,19,20
 334 594 334 594 340 591 c 128,-1,21
 346 588 346 588 356 598 c 0,22,23
 360 602 360 602 387 632 c 128,-1,24
 414 662 414 662 431.5 681 c 128,-1,25
 449 700 449 700 480.5 734 c 128,-1,26
 512 768 512 768 535.5 789.5 c 128,-1,27
 559 811 559 811 586.5 834.5 c 128,-1,28
 614 858 614 858 636.5 869.5 c 128,-1,29
 659 881 659 881 676 881 c 0,30,31
 702 880 702 880 731 829 c 0,32,33
 782 742 782 742 788 624 c 0,34,35
 789 606 789 606 789 589 c 0,36,37
 789 490 789 490 758 396 c 0,38,39
 721 286 721 286 659.5 189 c 128,-1,40
 598 92 598 92 510 33.5 c 128,-1,41
 422 -25 422 -25 330 -25 c 0,42,43
 191 -26 191 -26 152 66 c 0,44,45
 129 121 129 121 129 192 c 0,46,47
 129 239 129 239 139 293 c 0,0,1
276 291 m 2,48,49
 262 218 262 218 262 166 c 0,50,51
 262 29 262 29 358 29 c 0,52,53
 442 29 442 29 513 129 c 128,-1,54
 584 229 584 229 616.5 345 c 128,-1,55
 649 461 649 461 649 541 c 0,56,57
 649 637 649 637 629.5 696.5 c 128,-1,58
 610 756 610 756 582 756 c 0,59,60
 541 756 541 756 442 649 c 0,61,62
 413 618 413 618 332 522 c 0,63,64
 320 508 320 508 317 498 c 0,65,66
 317 492 317 492 315 483 c 2,67,-1
 276 291 l 2,48,49
EndSplineSet
Validated: 33
EndChar

StartChar: c
Encoding: 99 99 70
Width: 614
GlyphClass: 2
Flags: W
LayerCount: 2
Fore
SplineSet
72 201 m 0,0,1
 72 326 72 326 128 479.5 c 128,-1,2
 184 633 184 633 296 756 c 128,-1,3
 408 879 408 879 537 879 c 0,4,5
 586 879 586 879 616.5 857.5 c 128,-1,6
 647 836 647 836 647 797 c 0,7,8
 647 766 647 766 630.5 745.5 c 128,-1,9
 614 725 614 725 588 725 c 0,10,11
 551 725 551 725 487 762 c 0,12,13
 454 778 454 778 432 778 c 0,14,15
 362 778 362 778 303 633 c 0,16,17
 289 598 289 598 275.5 554 c 128,-1,18
 262 510 262 510 242 442 c 0,19,20
 223 374 223 374 217 314 c 0,21,22
 213 274 213 274 213 236 c 0,23,24
 213 218 213 218 214 198 c 0,25,26
 217 142 217 142 245.5 109 c 128,-1,27
 274 76 274 76 326 76 c 0,28,29
 424 76 424 76 530 203 c 0,30,31
 532 209 532 209 543.5 207 c 128,-1,32
 555 205 555 205 559 199 c 0,33,34
 579 185 579 185 573 166 c 1,35,36
 497 78 497 78 410.5 26.5 c 128,-1,37
 324 -25 324 -25 254 -25 c 0,38,39
 172 -25 172 -25 122 37.5 c 128,-1,40
 72 100 72 100 72 201 c 0,0,1
EndSplineSet
Validated: 1
EndChar

StartChar: d
Encoding: 100 100 71
Width: 921
GlyphClass: 2
Flags: W
LayerCount: 2
Fore
SplineSet
100 233 m 0,0,1
 100 397 100 397 186 558 c 128,-1,2
 272 719 272 719 416 823 c 0,3,4
 478 870 478 870 540 878 c 0,5,6
 549 879 549 879 558 880 c 0,7,8
 611 880 611 880 662 836 c 0,9,10
 670 826 670 826 678 839 c 128,-1,11
 686 852 686 852 690 872 c 2,12,-1
 791 1389 l 2,13,14
 797 1420 797 1420 788.5 1422.5 c 128,-1,15
 780 1425 780 1425 758 1411 c 0,16,17
 740 1403 740 1403 706 1381.5 c 128,-1,18
 672 1360 672 1360 653 1352 c 0,19,20
 635 1340 635 1340 629 1366 c 0,21,22
 625 1397 625 1397 643 1403 c 2,23,-1
 862 1524 l 2,24,25
 896 1543 896 1543 915 1543 c 0,26,27
 941 1543 941 1543 941 1509 c 0,28,29
 941 1498 941 1498 938 1483 c 2,30,-1
 686 156 l 2,31,32
 676 109 676 109 692 109 c 0,33,34
 723 109 723 109 811 233 c 0,35,36
 817 243 817 243 831 233 c 0,37,38
 849 215 849 215 840 199 c 0,39,40
 781 107 781 107 704 41 c 128,-1,41
 627 -25 627 -25 582 -25 c 0,42,43
 535 -25 535 -25 535 43 c 0,44,45
 535 88 535 88 552 162 c 128,-1,46
 569 236 569 236 571 260 c 0,47,48
 575 295 575 295 559 270 c 0,49,50
 557 266 557 266 553 260 c 0,51,52
 551 258 551 258 551 256 c 0,53,54
 451 129 451 129 360.5 52 c 128,-1,55
 270 -25 270 -25 223 -25 c 0,56,57
 168 -25 168 -25 134 48 c 128,-1,58
 100 121 100 121 100 233 c 0,0,1
258 129 m 128,-1,60
 276 86 276 86 305 86 c 0,61,62
 340 86 340 86 420 168 c 128,-1,63
 500 250 500 250 594 383 c 1,64,-1
 653 690 l 1,65,66
 608 813 608 813 524 813 c 0,67,68
 446 813 446 813 360 666 c 0,69,70
 240 459 240 459 240 249 c 0,71,59
 240 172 240 172 258 129 c 128,-1,60
EndSplineSet
Validated: 1
EndChar

StartChar: e
Encoding: 101 101 72
Width: 745
GlyphClass: 2
Flags: W
LayerCount: 2
Fore
SplineSet
78 270 m 0,0,1
 78 503 78 503 221.5 693 c 128,-1,2
 365 883 365 883 543 883 c 0,3,4
 623 883 623 883 669 843 c 128,-1,5
 715 803 715 803 715 733 c 0,6,7
 715 583 715 583 535 492 c 0,8,9
 480 461 480 461 377 430 c 0,10,11
 348 422 348 422 308 410.5 c 128,-1,12
 268 399 268 399 254 395 c 0,13,14
 231 385 231 385 231 371 c 0,15,16
 221 322 221 322 221 262 c 0,17,18
 221 170 221 170 266 116 c 0,19,20
 309 65 309 65 375 66 c 0,21,22
 379 66 379 66 383 66 c 0,23,24
 473 68 473 68 616 180 c 0,25,26
 634 196 634 196 643 174 c 0,27,28
 655 151 655 151 641 131 c 1,29,30
 553 55 553 55 456.5 15 c 128,-1,31
 360 -25 360 -25 289 -25 c 0,32,33
 201 -25 201 -25 139.5 60 c 128,-1,34
 78 145 78 145 78 270 c 0,0,1
258 481 m 0,35,36
 258 473 258 473 265 470 c 0,37,38
 268 469 268 469 272 469 c 0,39,40
 280 469 280 469 291 473 c 0,41,42
 404 500 404 500 483 539 c 0,43,44
 598 598 598 598 606 709 c 0,45,46
 607 715 607 715 607 721 c 0,47,48
 606 760 606 760 584 788 c 0,49,50
 560 818 560 818 518 817 c 0,51,52
 515 817 515 817 512 817 c 0,53,54
 403 813 403 813 348 715 c 0,55,56
 301 627 301 627 299 621 c 0,57,58
 258 529 258 529 258 481 c 0,35,36
EndSplineSet
Validated: 33
EndChar

StartChar: f
Encoding: 102 102 73
Width: 579
GlyphClass: 2
Flags: W
LayerCount: 2
Fore
SplineSet
-365 -449 m 0,0,1
 -356 -390 -356 -390 -296 -390 c 0,2,3
 -289 -390 -289 -390 -281 -391 c 0,4,5
 -261 -393 -261 -393 -227 -422 c 0,6,7
 -225 -424 -225 -424 -218 -431 c 128,-1,8
 -211 -438 -211 -438 -210 -440 c 128,-1,9
 -209 -442 -209 -442 -202 -449.5 c 128,-1,10
 -195 -457 -195 -457 -192.5 -458 c 128,-1,11
 -190 -459 -190 -459 -183 -465 c 128,-1,12
 -176 -471 -176 -471 -173 -472 c 128,-1,13
 -170 -473 -170 -473 -163 -477 c 128,-1,14
 -156 -481 -156 -481 -150.5 -482 c 128,-1,15
 -145 -483 -145 -483 -138 -484 c 128,-1,16
 -131 -485 -131 -485 -125 -485 c 0,17,18
 -80 -485 -80 -485 -35 -451.5 c 128,-1,19
 10 -418 10 -418 37 -367 c 0,20,21
 60 -324 60 -324 84 -209 c 0,22,23
 107 -111 107 -111 133 33 c 0,24,25
 151 127 151 127 256 748 c 0,26,27
 262 775 262 775 246 774 c 2,28,-1
 137 774 l 2,29,30
 131 772 131 772 129 779 c 128,-1,31
 127 786 127 786 129 795 c 0,32,33
 133 824 133 824 147 823 c 0,34,35
 202 831 202 831 219 836 c 0,36,37
 227 838 227 838 245.5 844 c 128,-1,38
 264 850 264 850 274 852 c 1,39,40
 309 1036 309 1036 344 1141 c 0,41,42
 401 1313 401 1313 477 1403 c 0,43,44
 597 1552 597 1552 754 1552 c 0,45,46
 755 1552 755 1552 756 1552 c 0,47,48
 817 1552 817 1552 864 1518 c 0,49,50
 909 1486 909 1486 909 1444 c 0,51,52
 909 1381 909 1381 839 1381 c 0,53,54
 830 1381 830 1381 821 1382 c 0,55,56
 792 1386 792 1386 748.5 1427 c 128,-1,57
 705 1468 705 1468 659 1468 c 0,58,59
 593 1468 593 1468 545 1393 c 0,60,61
 496 1319 496 1319 451 1067 c 2,62,-1
 416 870 l 2,63,64
 416 856 416 856 430 854 c 2,65,-1
 559 854 l 2,66,67
 573 854 573 854 565 815 c 1,68,69
 551 774 551 774 537 774 c 2,70,-1
 412 774 l 2,71,72
 404 772 404 772 395 760 c 1,73,-1
 303 227 l 2,74,75
 283 100 283 100 266.5 28.5 c 128,-1,76
 250 -43 250 -43 215 -155.5 c 128,-1,77
 180 -268 180 -268 125 -350 c 128,-1,78
 70 -432 70 -432 -6 -487 c 0,79,80
 -106 -561 -106 -561 -209 -561 c 0,81,82
 -275 -561 -275 -561 -324 -525 c 0,83,84
 -366 -494 -366 -494 -366 -460 c 0,85,86
 -366 -455 -366 -455 -365 -449 c 0,0,1
EndSplineSet
Validated: 1
EndChar

StartChar: g
Encoding: 103 103 74
Width: 815
GlyphClass: 2
Flags: W
LayerCount: 2
Fore
SplineSet
-170 -383 m 0,0,1
 -170 -311 -170 -311 -47 -229 c 0,2,3
 45 -166 45 -166 203 -82 c 1,4,5
 183 -50 183 -50 183 -19 c 0,6,7
 183 42 183 42 260 96 c 0,8,9
 274 104 274 104 260 113 c 0,10,11
 188 156 188 156 147 232.5 c 128,-1,12
 106 309 106 309 106 399 c 0,13,14
 106 493 106 493 171 601 c 128,-1,15
 236 709 236 709 338 793 c 0,16,17
 444 881 444 881 555 881 c 0,18,19
 562 881 562 881 569 881 c 0,20,21
 608 879 608 879 697 870.5 c 128,-1,22
 786 862 786 862 805 862 c 0,23,24
 825 862 825 862 829 801 c 0,25,26
 829 774 829 774 824 759.5 c 128,-1,27
 819 745 819 745 807 750 c 2,28,-1
 721 760 l 2,29,30
 713 762 713 762 709 758 c 128,-1,31
 705 754 705 754 707 748 c 0,32,33
 744 650 744 650 743 569 c 0,34,35
 743 483 743 483 705.5 399 c 128,-1,36
 668 315 668 315 604 260 c 0,37,38
 502 172 502 172 358 106 c 0,39,40
 283 71 283 71 283 40 c 0,41,42
 283 16 283 16 313.5 -13.5 c 128,-1,43
 344 -43 344 -43 426 -98 c 0,44,45
 567 -192 567 -192 622.5 -249.5 c 128,-1,46
 678 -307 678 -307 678 -354 c 0,47,48
 678 -446 678 -446 549 -504.5 c 128,-1,49
 420 -563 420 -563 225 -563 c 0,50,51
 53 -563 53 -563 -58.5 -513 c 128,-1,52
 -170 -463 -170 -463 -170 -383 c 0,0,1
-41 -362 m 0,53,54
 -41 -430 -41 -430 34 -475 c 128,-1,55
 109 -520 109 -520 227 -520 c 0,56,57
 372 -520 372 -520 462.5 -486 c 128,-1,58
 553 -452 553 -452 553 -401 c 0,59,60
 553 -366 553 -366 485 -319 c 0,61,62
 346 -217 346 -217 240 -123 c 0,63,64
 230 -117 230 -117 217 -123 c 0,65,66
 80 -201 80 -201 19.5 -255 c 128,-1,67
 -41 -309 -41 -309 -41 -362 c 0,53,54
250 381 m 0,68,69
 250 295 250 295 288 234.5 c 128,-1,70
 326 174 326 174 377 174 c 0,71,72
 440 174 440 174 504 266 c 0,73,74
 596 399 596 399 596 596 c 0,75,76
 596 694 596 694 562 753.5 c 128,-1,77
 528 813 528 813 475 813 c 0,78,79
 409 813 409 813 355 728 c 128,-1,80
 301 643 301 643 275.5 546 c 128,-1,81
 250 449 250 449 250 381 c 0,68,69
EndSplineSet
Validated: 33
EndChar

StartChar: h
Encoding: 104 104 75
Width: 935
GlyphClass: 2
Flags: W
LayerCount: 2
Fore
SplineSet
106 29 m 2,0,-1
 373 1376 l 2,1,2
 381 1413 381 1413 366.5 1413 c 128,-1,3
 352 1413 352 1413 260 1362 c 0,4,5
 246 1350 246 1350 240 1372 c 0,6,7
 232 1399 232 1399 244 1405 c 2,8,-1
 451 1524 l 2,9,10
 490 1546 490 1546 510 1546 c 0,11,12
 511 1546 511 1546 512 1546 c 0,13,14
 524 1546 524 1546 531.5 1541 c 128,-1,15
 539 1536 539 1536 540 1532 c 128,-1,16
 541 1528 541 1528 540 1514.5 c 128,-1,17
 539 1501 539 1501 539 1499 c 2,18,-1
 340 504 l 2,19,20
 336 481 336 481 339 478 c 128,-1,21
 342 475 342 475 354 494 c 0,22,23
 626 877 626 877 764 877 c 0,24,25
 848 877 848 877 847 761 c 0,26,27
 847 704 847 704 827 618 c 2,28,-1
 707 147 l 2,29,30
 691 96 691 96 713 96 c 0,31,32
 742 96 742 96 874 244 c 0,33,34
 882 250 882 250 890.5 243 c 128,-1,35
 899 236 899 236 901 224 c 0,36,37
 902 218 902 218 902 214 c 128,-1,38
 902 210 902 210 901 207 c 0,39,40
 827 109 827 109 746.5 42 c 128,-1,41
 666 -25 666 -25 621 -25 c 0,42,43
 588 -25 588 -25 574 2 c 0,44,45
 561 26 561 26 561 60 c 0,46,47
 561 65 561 65 561 70 c 0,48,49
 563 111 563 111 568 138.5 c 128,-1,50
 573 166 573 166 580 190 c 2,51,-1
 688 616 l 2,52,53
 708 688 708 688 708 728 c 0,54,55
 708 776 708 776 678 776 c 0,56,57
 639 776 639 776 515 621.5 c 128,-1,58
 391 467 391 467 307 346 c 1,59,60
 252 76 252 76 250 68 c 0,61,62
 248 62 248 62 246 45.5 c 128,-1,63
 244 29 244 29 242 21.5 c 128,-1,64
 240 14 240 14 234.5 4 c 128,-1,65
 229 -6 229 -6 220 -10 c 128,-1,66
 211 -14 211 -14 197 -14 c 2,67,-1
 119 -14 l 2,68,69
 101 -15 101 -15 101 4 c 0,70,71
 101 14 101 14 106 29 c 2,0,-1
EndSplineSet
Validated: 33
EndChar

StartChar: i
Encoding: 105 105 76
Width: 522
GlyphClass: 2
Flags: W
LayerCount: 2
Fore
SplineSet
113 641 m 0,0,1
 109 650 109 650 109 657 c 0,2,3
 109 666 109 666 115 674 c 0,4,5
 287 879 287 879 371 879 c 0,6,7
 415 879 415 879 415 819 c 0,8,9
 415 792 415 792 406 754 c 2,10,-1
 285 160 l 2,11,12
 277 113 277 113 283 109 c 0,13,14
 287 105 287 105 299 104 c 0,15,16
 324 104 324 104 424 223 c 0,17,18
 436 243 436 243 451 219 c 0,19,20
 465 190 465 190 455 180 c 0,21,22
 408 119 408 119 327 48 c 128,-1,23
 246 -23 246 -23 193 -23 c 0,24,25
 133 -22 133 -22 133 64 c 0,26,27
 133 95 133 95 141 137 c 2,28,-1
 250 657 l 2,29,30
 250 659 250 659 253 668.5 c 128,-1,31
 256 678 256 678 257 687 c 128,-1,32
 258 696 258 696 259 706.5 c 128,-1,33
 260 717 260 717 259 723 c 128,-1,34
 258 729 258 729 252 731 c 0,35,36
 251 731 251 731 249 731 c 0,37,38
 232 731 232 731 190 686 c 0,39,40
 139 631 139 631 137 629 c 0,41,42
 127 615 127 615 113 641 c 0,0,1
348 1206 m 0,43,44
 358 1255 358 1255 385 1287 c 128,-1,45
 412 1319 412 1319 442 1319 c 0,46,47
 492 1317 492 1317 492 1245 c 0,48,49
 492 1227 492 1227 489 1204 c 0,50,51
 481 1149 481 1149 454.5 1113 c 128,-1,52
 428 1077 428 1077 393 1077 c 0,53,54
 339 1077 339 1077 339 1142 c 0,55,56
 339 1169 339 1169 348 1206 c 0,43,44
EndSplineSet
Validated: 1
EndChar

StartChar: j
Encoding: 106 106 77
Width: 501
GlyphClass: 2
Flags: W
LayerCount: 2
Fore
SplineSet
-297 -451 m 0,0,1
 -293 -420 -293 -420 -275.5 -403.5 c 128,-1,2
 -258 -387 -258 -387 -227 -391 c 0,3,4
 -194 -395 -194 -395 -168 -430 c 2,5,-1
 -129 -475 l 1,6,7
 -100 -496 -100 -496 -75 -496 c 0,8,9
 -43 -496 -43 -496 -18 -462 c 0,10,11
 27 -403 27 -403 59 -279 c 0,12,13
 69 -242 69 -242 79.5 -190.5 c 128,-1,14
 90 -139 90 -139 94 -123 c 2,15,-1
 283 676 l 2,16,17
 293 711 293 711 274 717 c 0,18,19
 273 718 273 718 271 718 c 0,20,21
 258 718 258 718 217 680 c 0,22,23
 205 668 205 668 187.5 649.5 c 128,-1,24
 170 631 170 631 168 629 c 0,25,26
 158 621 158 621 147.5 627 c 128,-1,27
 137 633 137 633 135 643 c 128,-1,28
 133 653 133 653 139 659 c 0,29,30
 215 755 215 755 282.5 808.5 c 128,-1,31
 350 862 350 862 391 862 c 0,32,33
 439 862 439 862 439 794 c 0,34,35
 439 756 439 756 424 698 c 2,36,-1
 258 6 l 2,37,38
 201 -240 201 -240 92 -387 c 0,39,40
 -29 -557 -29 -557 -172 -557 c 0,41,42
 -231 -557 -231 -557 -266 -522 c 0,43,44
 -297 -491 -297 -491 -297 -458 c 0,45,46
 -297 -455 -297 -455 -297 -451 c 0,0,1
383 1208 m 0,47,48
 403 1323 403 1323 477 1325 c 0,49,50
 479 1325 479 1325 481 1325 c 0,51,52
 528 1325 528 1325 536 1279 c 0,53,54
 539 1262 539 1262 539 1246 c 0,55,56
 539 1219 539 1219 530 1198 c 1,57,58
 510 1081 510 1081 436 1081 c 0,59,60
 378 1083 378 1083 378 1157 c 0,61,62
 378 1179 378 1179 383 1208 c 0,47,48
EndSplineSet
Validated: 1
EndChar

StartChar: k
Encoding: 107 107 78
Width: 940
GlyphClass: 2
Flags: W
LayerCount: 2
Fore
SplineSet
109 2 m 128,-1,1
 109 6 109 6 111 13 c 128,-1,2
 113 20 113 20 113 23 c 2,3,-1
 387 1391 l 2,4,5
 393 1418 393 1418 387 1419.5 c 128,-1,6
 381 1421 381 1421 354 1405 c 0,7,8
 342 1399 342 1399 319.5 1385.5 c 128,-1,9
 297 1372 297 1372 287 1366 c 0,10,11
 275 1354 275 1354 264 1380 c 0,12,13
 250 1407 250 1407 270 1413 c 1,14,-1
 477 1534 l 2,15,16
 505 1555 505 1555 526 1555 c 0,17,18
 530 1554 530 1554 534 1554 c 0,19,20
 558 1550 558 1550 547 1499 c 2,21,-1
 360 596 l 2,22,23
 354 569 354 569 355 567 c 128,-1,24
 356 565 356 565 381 586 c 0,25,26
 696 879 696 879 799 879 c 0,27,28
 848 879 848 879 885 825.5 c 128,-1,29
 922 772 922 772 926 702 c 0,30,31
 927 690 927 690 927 679 c 0,32,33
 928 556 928 556 828 488 c 0,34,35
 730 421 730 421 526 421 c 0,36,37
 504 421 504 421 481 422 c 1,38,39
 561 338 561 338 588 299 c 2,40,-1
 635 229 l 2,41,42
 676 170 676 170 721 133 c 0,43,44
 760 101 760 101 790 101 c 0,45,46
 795 101 795 101 799 102 c 0,47,48
 824 125 824 125 885 193 c 0,49,50
 895 203 895 203 904 196.5 c 128,-1,51
 913 190 913 190 919.5 177 c 128,-1,52
 926 164 926 164 922 158 c 0,53,54
 834 45 834 45 752 -20 c 1,55,56
 703 -20 703 -20 670 4 c 0,57,58
 572 70 572 70 479 219 c 0,59,60
 395 350 395 350 344 403 c 0,61,62
 326 421 326 421 319 381 c 2,63,-1
 250 20 l 2,64,65
 244 -11 244 -11 236.5 -15.5 c 128,-1,66
 229 -20 229 -20 209 -20 c 0,67,68
 152 -20 152 -20 125 -18 c 0,69,70
 119 -18 119 -18 115 -15 c 128,-1,71
 111 -12 111 -12 110 -7 c 128,-1,0
 109 -2 109 -2 109 2 c 128,-1,1
336 472 m 0,72,73
 338 469 338 469 342 466 c 128,-1,74
 346 463 346 463 346 461 c 1,75,76
 371 461 371 461 419 462 c 0,77,78
 435 462 435 462 449 462 c 0,79,80
 476 462 476 462 494 461 c 0,81,82
 502 461 502 461 510 461 c 0,83,84
 581 461 581 461 647 477 c 0,85,86
 811 516 811 516 811 680 c 0,87,88
 811 719 811 719 786.5 747.5 c 128,-1,89
 762 776 762 776 727 776 c 0,90,91
 686 776 686 776 571.5 689 c 128,-1,92
 457 602 457 602 336 477 c 0,93,94
 335 476 335 476 335 475 c 128,-1,95
 335 474 335 474 336 472 c 0,72,73
EndSplineSet
Validated: 33
EndChar

StartChar: l
Encoding: 108 108 79
Width: 524
GlyphClass: 2
Flags: W
LayerCount: 2
Fore
SplineSet
139 152 m 2,0,-1
 383 1376 l 2,1,2
 391 1415 391 1415 371 1415 c 0,3,4
 361 1415 361 1415 258 1358 c 1,5,6
 229 1350 229 1350 223 1370 c 0,7,8
 215 1397 215 1397 236 1401 c 1,9,-1
 434 1518 l 2,10,11
 461 1534 461 1534 477.5 1541 c 128,-1,12
 494 1548 494 1548 514 1551 c 0,13,14
 517 1551 517 1551 520 1551 c 0,15,16
 536 1551 536 1551 542 1537 c 0,17,18
 545 1529 545 1529 545 1517 c 0,19,20
 545 1503 545 1503 541 1483 c 2,21,-1
 270 125 l 2,22,23
 258 72 258 72 281 72 c 0,24,25
 318 72 318 72 428 197 c 0,26,27
 430 201 430 201 439.5 202 c 128,-1,28
 449 203 449 203 455 197 c 0,29,30
 467 189 467 189 457 164 c 1,31,32
 295 -26 295 -26 203 -27 c 0,33,34
 130 -27 130 -27 130 72 c 0,35,36
 130 106 130 106 139 152 c 2,0,-1
EndSplineSet
Validated: 1
EndChar

StartChar: m
Encoding: 109 109 80
Width: 1380
GlyphClass: 2
Flags: W
LayerCount: 2
Fore
SplineSet
96 621 m 0,0,1
 159 719 159 719 249.5 798 c 128,-1,2
 340 877 340 877 379 877 c 0,3,4
 417 877 417 877 417 827 c 0,5,6
 417 813 417 813 414 795 c 2,7,-1
 352 487 l 2,8,9
 348 469 348 469 354 469 c 0,10,11
 356 469 356 469 360 477 c 0,12,13
 636 876 636 876 780 877 c 0,14,15
 809 877 809 877 825.5 851 c 128,-1,16
 842 825 842 825 842 782 c 0,17,18
 842 747 842 747 838 709.5 c 128,-1,19
 834 672 834 672 828.5 647.5 c 128,-1,20
 823 623 823 623 814 579 c 128,-1,21
 805 535 805 535 801 512 c 0,22,23
 791 457 791 457 807 481 c 0,24,25
 811 487 811 487 841.5 535.5 c 128,-1,26
 872 584 872 584 896 617.5 c 128,-1,27
 920 651 920 651 960.5 703.5 c 128,-1,28
 1001 756 1001 756 1038 789.5 c 128,-1,29
 1075 823 1075 823 1120 847.5 c 128,-1,30
 1165 872 1165 872 1206 872 c 0,31,32
 1266 872 1266 872 1266 781 c 0,33,34
 1266 745 1266 745 1257 696 c 2,35,-1
 1143 135 l 2,36,37
 1141 126 1141 126 1141 121 c 0,38,39
 1141 108 1141 108 1150 108 c 0,40,41
 1160 108 1160 108 1180 125 c 0,42,43
 1209 148 1209 148 1221 166 c 0,44,45
 1254 203 1254 203 1282 240 c 0,46,47
 1301 262 1301 262 1315 244 c 0,48,49
 1320 235 1320 235 1320 226 c 0,50,51
 1320 215 1320 215 1313 205 c 0,52,53
 1241 105 1241 105 1164 40 c 128,-1,54
 1087 -25 1087 -25 1047 -25 c 0,55,56
 993 -25 993 -25 993 44 c 0,57,58
 993 67 993 67 999 98 c 0,59,60
 1060 399 1060 399 1120 715 c 0,61,62
 1128 750 1128 750 1124 760 c 128,-1,63
 1120 770 1120 770 1102 770 c 0,64,65
 1063 770 1063 770 959.5 626.5 c 128,-1,66
 856 483 856 483 801 389 c 0,67,68
 760 319 760 319 741 236 c 2,69,-1
 698 20 l 2,70,71
 688 -23 688 -23 666 -23 c 2,72,-1
 586 -23 l 2,73,74
 563 -23 563 -23 559 -10.5 c 128,-1,75
 555 2 555 2 561 18 c 2,76,-1
 698 713 l 2,77,78
 712 768 712 768 688 768 c 0,79,80
 633 768 633 768 525.5 627.5 c 128,-1,81
 418 487 418 487 352 381 c 0,82,83
 321 330 321 330 289 172 c 0,84,85
 285 154 285 154 275.5 98.5 c 128,-1,86
 266 43 266 43 260 14 c 0,87,88
 256 -6 256 -6 249 -13 c 128,-1,89
 242 -20 242 -20 221 -20 c 0,90,91
 211 -20 211 -20 187.5 -21.5 c 128,-1,92
 164 -23 164 -23 154 -23 c 0,93,94
 113 -23 113 -23 121 18 c 2,95,-1
 252 680 l 2,96,97
 262 721 262 721 248 721 c 0,98,99
 238 721 238 721 203 685 c 128,-1,100
 168 649 168 649 154 629 c 0,101,102
 136 604 136 604 131 600 c 0,103,104
 125 594 125 594 114.5 593 c 128,-1,105
 104 592 104 592 98 598 c 0,106,107
 94 602 94 602 94 609 c 0,108,109
 94 614 94 614 96 621 c 0,0,1
EndSplineSet
Validated: 1
EndChar

StartChar: n
Encoding: 110 110 81
Width: 960
GlyphClass: 2
Flags: W
LayerCount: 2
Fore
SplineSet
100 582 m 0,0,1
 94 594 94 594 94 604.5 c 128,-1,2
 94 615 94 615 100 623 c 0,3,4
 290 879 290 879 360 879 c 0,5,6
 361 879 361 879 362 879 c 0,7,8
 398 878 398 878 398 822 c 0,9,10
 398 802 398 802 393 774 c 0,11,12
 356 579 356 579 330 459 c 1,13,-1
 328 438 l 2,14,15
 330 440 330 440 340 453 c 0,16,17
 350 465 350 465 401.5 534.5 c 128,-1,18
 453 604 453 604 490.5 650 c 128,-1,19
 528 696 528 696 582.5 755.5 c 128,-1,20
 637 815 637 815 686 847 c 128,-1,21
 735 879 735 879 776 879 c 0,22,23
 862 879 862 879 862 752 c 0,24,25
 862 693 862 693 846 627 c 2,26,-1
 723 154 l 2,27,28
 710 110 710 110 711 89 c 0,29,30
 711 72 711 72 719 70 c 0,31,32
 720 70 720 70 721 70 c 0,33,34
 740 70 740 70 813 150 c 0,35,36
 864 209 864 209 891 242 c 0,37,38
 910 262 910 262 920 252 c 0,39,40
 924 246 924 246 927 242 c 128,-1,41
 930 238 930 238 930 232.5 c 128,-1,42
 930 227 930 227 930 225 c 128,-1,43
 930 223 930 223 927 218 c 128,-1,44
 924 213 924 213 923 211 c 128,-1,45
 922 209 922 209 916.5 202 c 128,-1,46
 911 195 911 195 909 193 c 0,47,48
 835 93 835 93 759.5 34 c 128,-1,49
 684 -25 684 -25 635 -25 c 0,50,51
 569 -25 569 -25 569 55 c 0,52,53
 569 88 569 88 580 135 c 2,54,-1
 713 668 l 2,55,56
 722 703 722 703 722 725 c 0,57,58
 722 766 722 766 692 766 c 0,59,60
 678 766 678 766 658.5 753.5 c 128,-1,61
 639 741 639 741 614.5 718.5 c 128,-1,62
 590 696 590 696 566.5 670.5 c 128,-1,63
 543 645 543 645 513 609 c 128,-1,64
 483 573 483 573 460.5 543.5 c 128,-1,65
 438 514 438 514 410.5 476 c 128,-1,66
 383 438 383 438 366.5 415.5 c 128,-1,67
 350 393 350 393 328.5 363.5 c 128,-1,68
 307 334 307 334 303 328 c 2,69,-1
 240 16 l 2,70,71
 236 -11 236 -11 227.5 -17 c 128,-1,72
 219 -23 219 -23 195 -23 c 2,73,-1
 137 -23 l 2,74,75
 101 -23 101 -23 101 1 c 0,76,77
 101 8 101 8 104 18 c 2,78,-1
 236 676 l 1,79,80
 236 703 236 703 229 702 c 0,81,82
 225 702 225 702 221 700 c 0,83,84
 211 694 211 694 174 647 c 128,-1,85
 137 600 137 600 123 580 c 0,86,87
 119 576 119 576 110.5 577 c 128,-1,88
 102 578 102 578 100 582 c 0,0,1
EndSplineSet
Validated: 33
EndChar

StartChar: o
Encoding: 111 111 82
Width: 815
GlyphClass: 2
Flags: W
LayerCount: 2
Fore
SplineSet
78 317.5 m 128,-1,1
 78 449 78 449 151.5 573.5 c 128,-1,2
 225 698 225 698 358 788 c 0,3,4
 489 878 489 878 571 879 c 0,5,6
 643 879 643 879 704.5 781.5 c 128,-1,7
 766 684 766 684 766 561 c 0,8,9
 766 366 766 366 653 219 c 0,10,11
 606 158 606 158 531.5 98.5 c 128,-1,12
 457 39 457 39 383 8 c 0,13,14
 311 -25 311 -25 268 -25 c 0,15,16
 198 -25 198 -25 138 80.5 c 128,-1,0
 78 186 78 186 78 317.5 c 128,-1,1
223 309 m 0,17,18
 223 207 223 207 264 134 c 128,-1,19
 305 61 305 61 360 61 c 0,20,21
 462 61 462 61 543.5 205 c 128,-1,22
 625 349 625 349 625 535 c 0,23,24
 625 644 625 644 578.5 716 c 128,-1,25
 532 788 532 788 467 788 c 0,26,27
 371 788 371 788 297 644 c 128,-1,28
 223 500 223 500 223 309 c 0,17,18
EndSplineSet
Validated: 1
EndChar

StartChar: p
Encoding: 112 112 83
Width: 911
GlyphClass: 2
Flags: W
LayerCount: 2
Fore
SplineSet
-129 -522 m 0,0,1
 -125 -516 -125 -516 -82 -510 c 0,2,3
 -41 -504 -41 -504 -15.5 -493.5 c 128,-1,4
 10 -483 10 -483 23.5 -458.5 c 128,-1,5
 37 -434 37 -434 42 -416.5 c 128,-1,6
 47 -399 47 -399 55 -358 c 0,7,8
 90 -180 90 -180 260 633 c 1,9,-1
 262 641 l 2,10,11
 264 649 264 649 265 655.5 c 128,-1,12
 266 662 266 662 268 672 c 128,-1,13
 270 682 270 682 270 690 c 128,-1,14
 270 698 270 698 270 705.5 c 128,-1,15
 270 713 270 713 269 717 c 128,-1,16
 268 721 268 721 264 721 c 0,17,18
 237 721 237 721 180 655 c 0,19,20
 162 635 162 635 136.5 603 c 128,-1,21
 111 571 111 571 109 569 c 0,22,23
 101 557 101 557 84.5 573.5 c 128,-1,24
 68 590 68 590 82 610 c 0,25,26
 158 723 158 723 248 801 c 128,-1,27
 338 879 338 879 383 879 c 0,28,29
 422 879 422 879 422 815 c 0,30,31
 422 756 422 756 395 618 c 0,32,33
 387 573 387 573 393 573 c 0,34,35
 395 575 395 575 406 592 c 0,36,37
 408 596 408 596 410 598 c 256,38,39
 412 600 412 600 450.5 657.5 c 128,-1,40
 489 715 489 715 507.5 736.5 c 128,-1,41
 526 758 526 758 564 800 c 128,-1,42
 602 842 602 842 636 859.5 c 128,-1,43
 670 877 670 877 705 877 c 0,44,45
 775 877 775 877 811.5 776.5 c 128,-1,46
 848 676 848 676 848 565 c 0,47,48
 848 463 848 463 801 347 c 128,-1,49
 754 231 754 231 678 139 c 128,-1,50
 602 47 602 47 494 2 c 0,51,52
 431 -24 431 -24 368 -24 c 0,53,54
 322 -24 322 -24 276 -10 c 0,55,56
 270 -8 270 -8 267 -15.5 c 128,-1,57
 264 -23 264 -23 264 -29 c 0,58,59
 207 -281 207 -281 190 -362 c 0,60,61
 183 -401 183 -401 183 -428 c 0,62,63
 183 -471 183 -471 200 -486 c 0,64,65
 229 -510 229 -510 350 -514 c 0,66,67
 364 -514 364 -514 358 -541 c 0,68,69
 353 -561 353 -561 336 -561 c 0,70,71
 334 -561 334 -561 332 -561 c 0,72,73
 220 -556 220 -556 105.5 -556 c 128,-1,74
 -9 -556 -9 -556 -127 -561 c 0,75,76
 -136 -559 -136 -559 -136 -548 c 0,77,78
 -136 -534 -136 -534 -129 -522 c 0,0,1
293 102 m 1,79,80
 293 71 293 71 305 63 c 0,81,82
 347 35 347 35 377 35 c 0,83,84
 378 35 378 35 379 35 c 0,85,86
 506 35 506 35 607.5 194.5 c 128,-1,87
 709 354 709 354 709 557 c 0,88,89
 709 647 709 647 686.5 705.5 c 128,-1,90
 664 764 664 764 629 764 c 0,91,92
 596 764 596 764 504 643 c 0,93,94
 432 549 432 549 360 436 c 1,95,-1
 293 102 l 1,79,80
EndSplineSet
Validated: 1
EndChar

StartChar: q
Encoding: 113 113 84
Width: 872
GlyphClass: 2
Flags: W
LayerCount: 2
Fore
SplineSet
106 217 m 0,0,1
 106 414 106 414 276 612 c 1,2,3
 497 878 497 878 795 879 c 0,4,5
 836 878 836 878 836 844 c 0,6,7
 836 837 836 837 834 829 c 2,8,-1
 600 -307 l 2,9,10
 577 -426 577 -426 578 -440 c 0,11,12
 578 -458 578 -458 582 -470.5 c 128,-1,13
 586 -483 586 -483 596 -491.5 c 128,-1,14
 606 -500 606 -500 614.5 -504 c 128,-1,15
 623 -508 623 -508 640 -510 c 128,-1,16
 657 -512 657 -512 665.5 -512 c 128,-1,17
 674 -512 674 -512 694.5 -512 c 128,-1,18
 715 -512 715 -512 721 -512 c 0,19,20
 731 -510 731 -510 735 -517 c 128,-1,21
 739 -524 739 -524 737 -537 c 0,22,23
 734 -562 734 -562 717 -562 c 0,24,25
 713 -562 713 -562 709 -561 c 0,26,27
 587 -558 587 -558 472.5 -558 c 128,-1,28
 358 -558 358 -558 252 -561 c 0,29,30
 240 -559 240 -559 240 -545.5 c 128,-1,31
 240 -532 240 -532 249 -521 c 128,-1,32
 258 -510 258 -510 268 -512 c 0,33,34
 372 -502 372 -502 402 -481.5 c 128,-1,35
 432 -461 432 -461 446 -389 c 0,36,37
 473 -256 473 -256 567 190 c 0,38,39
 581 241 581 241 571 244 c 0,40,41
 569 244 569 244 565 240 c 0,42,43
 502 162 502 162 395.5 68.5 c 128,-1,44
 289 -25 289 -25 233 -25 c 0,45,46
 182 -25 182 -25 144 49 c 128,-1,47
 106 123 106 123 106 217 c 0,0,1
248 250 m 0,48,49
 248 92 248 92 317 92 c 0,50,51
 346 92 346 92 408.5 148.5 c 128,-1,52
 471 205 471 205 602 348 c 1,53,-1
 676 729 l 2,54,55
 677 734 677 734 677 739 c 0,56,57
 677 758 677 758 662 758 c 0,58,59
 517 750 517 750 428 678 c 0,60,61
 346 612 346 612 297 493.5 c 128,-1,62
 248 375 248 375 248 250 c 0,48,49
EndSplineSet
Validated: 33
EndChar

StartChar: r
Encoding: 114 114 85
Width: 661
GlyphClass: 2
Flags: W
LayerCount: 2
Fore
SplineSet
80 606 m 0,0,1
 73 615 73 615 73 624 c 0,2,3
 73 634 73 634 82 643 c 0,4,5
 270 876 270 876 328 877 c 0,6,7
 367 877 367 877 371 817 c 0,8,9
 371 814 371 814 371 810 c 0,10,11
 371 786 371 786 362 725 c 0,12,13
 350 639 350 639 330 541 c 0,14,15
 320 482 320 482 309 446 c 0,16,17
 297 398 297 398 297 386 c 0,18,19
 297 382 297 382 299 383 c 0,20,21
 303 383 303 383 317 426 c 0,22,23
 481 877 481 877 623 877 c 0,24,25
 692 877 692 877 698 809 c 0,26,27
 699 799 699 799 698 790 c 0,28,29
 698 741 698 741 680 715 c 0,30,31
 665 694 665 694 640 694 c 0,32,33
 628 694 628 694 614 698 c 2,34,-1
 578 711 l 1,35,36
 496 699 496 699 418 545 c 0,37,38
 398 504 398 504 317 295 c 0,39,40
 299 250 299 250 287.5 207 c 128,-1,41
 276 164 276 164 263 101.5 c 128,-1,42
 250 39 250 39 244 12 c 0,43,44
 236 -25 236 -25 199 -25 c 2,45,-1
 143 -25 l 2,46,47
 110 -25 110 -25 119 23 c 2,48,-1
 227 666 l 2,49,50
 235 721 235 721 213 721 c 0,51,52
 201 721 201 721 163 677 c 128,-1,53
 125 633 125 633 113 614 c 1,54,55
 90 591 90 591 80 606 c 0,0,1
EndSplineSet
Validated: 1
EndChar

StartChar: s
Encoding: 115 115 86
Width: 655
GlyphClass: 2
Flags: W
LayerCount: 2
Fore
SplineSet
29 76 m 0,0,1
 35 138 35 138 83 144 c 0,2,3
 91 145 91 145 99 145 c 0,4,5
 137 145 137 145 168 119 c 0,6,7
 174 115 174 115 195.5 101.5 c 128,-1,8
 217 88 217 88 227.5 82 c 128,-1,9
 238 76 238 76 256 67.5 c 128,-1,10
 274 59 274 59 290.5 55 c 128,-1,11
 307 51 307 51 324 51 c 0,12,13
 371 51 371 51 402.5 82 c 128,-1,14
 434 113 434 113 434 158 c 0,15,16
 434 185 434 185 424 213.5 c 128,-1,17
 414 242 414 242 391.5 274.5 c 128,-1,18
 369 307 369 307 354.5 325.5 c 128,-1,19
 340 344 340 344 307 381 c 128,-1,20
 274 418 274 418 270 424 c 0,21,22
 192 517 192 517 192 597 c 0,23,24
 192 681 192 681 283 776 c 0,25,26
 385 878 385 878 487 879 c 0,27,28
 540 879 540 879 590.5 831.5 c 128,-1,29
 641 784 641 784 641 735 c 0,30,31
 641 706 641 706 623.5 685 c 128,-1,32
 606 664 606 664 580 664 c 0,33,34
 545 664 545 664 522 707 c 0,35,36
 463 807 463 807 418 807 c 0,37,38
 375 807 375 807 334 760 c 128,-1,39
 293 713 293 713 293 668 c 0,40,41
 293 648 293 648 302 624 c 128,-1,42
 311 600 311 600 330.5 573.5 c 128,-1,43
 350 547 350 547 365.5 528.5 c 128,-1,44
 381 510 381 510 405.5 482.5 c 128,-1,45
 430 455 430 455 436 446 c 0,46,47
 526 342 526 342 526 246 c 0,48,49
 526 123 526 123 435 49 c 128,-1,50
 344 -25 344 -25 193 -25 c 0,51,52
 115 -25 115 -25 69 2 c 0,53,54
 28 26 28 26 28 65 c 0,55,56
 28 71 28 71 29 76 c 0,0,1
EndSplineSet
Validated: 1
EndChar

StartChar: t
Encoding: 116 116 87
Width: 577
GlyphClass: 2
Flags: W
LayerCount: 2
Fore
SplineSet
121 61 m 0,0,1
 121 133 121 133 164 311 c 0,2,3
 182 389 182 389 266 727 c 0,4,5
 266 729 266 729 268 735 c 0,6,7
 278 774 278 774 254 774 c 2,8,-1
 176 774 l 2,9,10
 158 774 158 774 155 788.5 c 128,-1,11
 152 803 152 803 166 809 c 0,12,13
 275 864 275 864 344.5 939 c 128,-1,14
 414 1014 414 1014 487 1133 c 0,15,16
 492 1141 492 1141 502 1146 c 0,17,18
 508 1149 508 1149 514 1149 c 0,19,20
 517 1149 517 1149 520 1148 c 0,21,22
 528 1145 528 1145 528 1130 c 1,23,24
 436 907 436 907 430 872 c 0,25,26
 428 864 428 864 435 860 c 128,-1,27
 442 856 442 856 453 858 c 2,28,-1
 584 858 l 2,29,30
 595 858 595 858 595 839 c 0,31,32
 595 829 595 829 592 815 c 0,33,34
 588 797 588 797 581.5 784.5 c 128,-1,35
 575 772 575 772 565 774 c 2,36,-1
 430 774 l 1,37,38
 412 768 412 768 412 766 c 2,39,40
 412 766 412 766 408 756 c 2,41,-1
 266 135 l 2,42,43
 260 113 260 113 260 98 c 0,44,45
 260 72 260 72 279 72 c 0,46,47
 326 72 326 72 473 227 c 0,48,49
 487 243 487 243 502 217 c 0,50,51
 512 197 512 197 502 186 c 0,52,53
 307 -25 307 -25 197 -25 c 0,54,55
 162 -25 162 -25 141.5 -2.5 c 128,-1,56
 121 20 121 20 121 61 c 0,0,1
EndSplineSet
Validated: 1
EndChar

StartChar: u
Encoding: 117 117 88
Width: 997
GlyphClass: 2
Flags: W
LayerCount: 2
Fore
SplineSet
129 614 m 0,0,1
 128 618 128 618 128 621 c 0,2,3
 128 628 128 628 131 633 c 0,4,5
 172 694 172 694 257 784 c 128,-1,6
 342 874 342 874 387 874 c 0,7,8
 433 874 433 874 433 808 c 0,9,10
 433 776 433 776 422 729 c 2,11,-1
 322 225 l 2,12,13
 316 192 316 192 313.5 172 c 128,-1,14
 311 152 311 152 315 133.5 c 128,-1,15
 319 115 319 115 338.5 120 c 128,-1,16
 358 125 358 125 393 156 c 0,17,18
 467 224 467 224 572.5 379.5 c 128,-1,19
 678 535 678 535 707 627 c 0,20,21
 725 682 725 682 752 848 c 0,22,23
 758 881 758 881 797 881 c 0,24,25
 824 879 824 879 860 881 c 0,26,27
 893 881 893 881 893 847 c 0,28,29
 893 839 893 839 891 829 c 2,30,-1
 762 170 l 2,31,32
 759 155 759 155 759 146 c 0,33,34
 759 129 759 129 768 129 c 0,35,36
 775 129 775 129 786 137 c 0,37,38
 800 147 800 147 821 170 c 0,39,40
 876 229 876 229 897 256 c 0,41,42
 907 272 907 272 922 252 c 0,43,44
 929 241 929 241 929 231 c 0,45,46
 929 227 929 227 928 223 c 0,47,48
 850 125 850 125 767 50 c 128,-1,49
 684 -25 684 -25 651 -25 c 0,50,51
 608 -25 608 -25 608 39 c 0,52,53
 608 172 608 172 674 420 c 0,54,55
 680 443 680 443 672 440 c 0,56,57
 664 438 664 438 651 418 c 0,58,59
 526 225 526 225 409.5 100 c 128,-1,60
 293 -25 293 -25 227 -25 c 0,61,62
 166 -25 166 -25 166 85 c 0,63,64
 166 141 166 141 182 227 c 2,65,-1
 274 690 l 2,66,67
 282 727 282 727 274 727 c 0,68,69
 262 727 262 727 244.5 711.5 c 128,-1,70
 227 696 227 696 214 679 c 128,-1,71
 201 662 201 662 183.5 638 c 128,-1,72
 166 614 166 614 162 610 c 0,73,74
 152 598 152 598 141.5 600 c 128,-1,75
 131 602 131 602 129 614 c 0,0,1
EndSplineSet
Validated: 1
EndChar

StartChar: v
Encoding: 118 118 89
Width: 831
GlyphClass: 2
Flags: W
LayerCount: 2
Fore
SplineSet
80 610 m 0,0,1
 78 615 78 615 78 618 c 0,2,3
 78 625 78 625 82 631 c 0,4,5
 258 877 258 877 344 877 c 0,6,7
 391 877 391 877 391 803 c 0,8,9
 391 762 391 762 377 676 c 2,10,-1
 297 182 l 2,11,12
 297 180 297 180 294 165 c 128,-1,13
 291 150 291 150 291 137.5 c 128,-1,14
 291 125 291 125 290 110.5 c 128,-1,15
 289 96 289 96 294 88 c 128,-1,16
 299 80 299 80 307 80 c 0,17,18
 373 80 373 80 470 205 c 128,-1,19
 567 330 567 330 636 479.5 c 128,-1,20
 705 629 705 629 705 700 c 0,21,22
 705 727 705 727 680 741 c 0,23,24
 653 755 653 755 653 780 c 0,25,26
 653 813 653 813 690 846 c 128,-1,27
 727 879 727 879 760 879 c 0,28,29
 801 879 801 879 827.5 842 c 128,-1,30
 854 805 854 805 854 748 c 0,31,32
 854 642 854 642 733 454 c 128,-1,33
 612 266 612 266 458.5 120.5 c 128,-1,34
 305 -25 305 -25 221 -25 c 0,35,36
 164 -25 164 -25 164 100 c 0,37,38
 164 167 164 167 180 270 c 2,39,-1
 242 649 l 2,40,41
 248 693 248 693 248 715 c 128,-1,42
 248 737 248 737 242 737 c 0,43,44
 217 737 217 737 113 600 c 0,45,46
 105 590 105 590 94.5 594 c 128,-1,47
 84 598 84 598 80 610 c 0,0,1
EndSplineSet
Validated: 1
EndChar

StartChar: w
Encoding: 119 119 90
Width: 1249
GlyphClass: 2
Flags: W
LayerCount: 2
Fore
SplineSet
72 623 m 0,0,1
 103 668 103 668 141.5 717 c 128,-1,2
 180 766 180 766 241.5 822.5 c 128,-1,3
 303 879 303 879 340 879 c 0,4,5
 383 879 383 879 383 794 c 0,6,7
 383 754 383 754 373 694 c 2,8,-1
 299 195 l 2,9,10
 295 160 295 160 296 136 c 0,11,12
 296 84 296 84 313 84 c 0,13,14
 362 84 362 84 489 242.5 c 128,-1,15
 616 401 616 401 676 504 c 1,16,-1
 727 838 l 2,17,18
 731 875 731 875 770 874 c 0,19,20
 793 876 793 876 819 877 c 0,21,22
 857 877 857 877 857 847 c 0,23,24
 857 842 857 842 856 836 c 2,25,-1
 756 184 l 2,26,27
 756 182 756 182 753 167 c 128,-1,28
 750 152 750 152 750 139.5 c 128,-1,29
 750 127 750 127 749 112.5 c 128,-1,30
 748 98 748 98 753 90 c 128,-1,31
 758 82 758 82 766 82 c 0,32,33
 819 82 819 82 910 192.5 c 128,-1,34
 1001 303 1001 303 1074 451.5 c 128,-1,35
 1147 600 1147 600 1147 692 c 0,36,37
 1147 721 1147 721 1124 743 c 1,38,39
 1099 761 1099 761 1100 782 c 0,40,41
 1100 823 1100 823 1129.5 850 c 128,-1,42
 1159 877 1159 877 1200 877 c 0,43,44
 1239 877 1239 877 1264.5 842 c 128,-1,45
 1290 807 1290 807 1290 756 c 0,46,47
 1290 615 1290 615 1132.5 389.5 c 128,-1,48
 975 164 975 164 834 51 c 0,49,50
 807 31 807 31 776 12 c 0,51,52
 746 -6 746 -6 706 -20 c 0,53,54
 690 -26 690 -26 675 -27 c 0,55,56
 655 -26 655 -26 640 -14 c 0,57,58
 614 6 614 6 614 63 c 0,59,60
 614 139 614 139 631 227 c 0,61,62
 635 247 635 247 639 270 c 128,-1,63
 643 293 643 293 645 310.5 c 128,-1,64
 647 328 647 328 649 344 c 0,65,66
 653 367 653 367 651 367 c 0,67,68
 647 367 647 367 625 330 c 0,69,70
 555 217 555 217 433 97 c 128,-1,71
 311 -23 311 -23 227 -23 c 0,72,73
 159 -23 159 -23 159 85 c 0,74,75
 159 100 159 100 160 117 c 0,76,77
 164 176 164 176 172 231 c 0,78,79
 221 548 221 548 240 702 c 0,80,81
 244 725 244 725 238.5 728 c 128,-1,82
 233 731 233 731 217 717 c 0,83,84
 186 692 186 692 104 586 c 0,85,86
 92 572 92 572 72 589 c 0,87,88
 62 598 62 598 63 606 c 0,89,90
 63 615 63 615 72 623 c 0,0,1
EndSplineSet
Validated: 1
EndChar

StartChar: x
Encoding: 120 120 91
Width: 1032
GlyphClass: 2
Flags: W
LayerCount: 2
Fore
SplineSet
92 227 m 0,0,1
 110 274 110 274 125 274 c 0,2,3
 135 272 135 272 139 244 c 0,4,5
 149 181 149 181 156 164 c 0,6,7
 168 135 168 135 188.5 128 c 128,-1,8
 209 121 209 121 235.5 133 c 128,-1,9
 262 145 262 145 284.5 160.5 c 128,-1,10
 307 176 307 176 334.5 204.5 c 128,-1,11
 362 233 362 233 373.5 246.5 c 128,-1,12
 385 260 385 260 399 276 c 2,13,-1
 487 387 l 1,14,15
 493 403 493 403 489 416 c 2,16,-1
 389 668 l 2,17,18
 366 723 366 723 352 743.5 c 128,-1,19
 338 764 338 764 317 764 c 0,20,21
 290 764 290 764 263 732 c 128,-1,22
 236 700 236 700 178 604 c 0,23,24
 164 577 164 577 145.5 591.5 c 128,-1,25
 127 606 127 606 139 629 c 0,26,27
 223 772 223 772 272.5 825.5 c 128,-1,28
 322 879 322 879 373 879 c 0,29,30
 418 879 418 879 446.5 844 c 128,-1,31
 475 809 475 809 512 715 c 2,32,-1
 580 537 l 2,33,34
 586 527 586 527 594 532 c 128,-1,35
 602 537 602 537 612 551 c 0,36,37
 762 758 762 758 823 819 c 0,38,39
 862 858 862 858 912 872 c 0,40,41
 929 877 929 877 943 876 c 0,42,43
 974 876 974 876 998 858 c 0,44,45
 1034 832 1034 832 1034 766 c 0,46,47
 1034 733 1034 733 1016 668 c 0,48,49
 1010 645 1010 645 1002.5 641 c 128,-1,50
 995 637 995 637 990 645 c 128,-1,51
 985 653 985 653 981 668 c 0,52,53
 965 752 965 752 895 752 c 0,54,55
 819 752 819 752 727 623 c 2,56,-1
 625 479 l 2,57,58
 611 463 611 463 618 446 c 2,59,-1
 696 238 l 2,60,61
 725 162 725 162 743.5 134 c 128,-1,62
 762 106 762 106 782 106 c 0,63,64
 835 108 835 108 901 248 c 0,65,66
 913 277 913 277 930 260 c 0,67,68
 942 252 942 252 942 219 c 1,69,70
 876 72 876 72 827 23.5 c 128,-1,71
 778 -25 778 -25 723 -25 c 0,72,73
 680 -25 680 -25 660.5 2 c 128,-1,74
 641 29 641 29 600 129 c 2,75,-1
 524 319 l 2,76,77
 516 337 516 337 500 317 c 2,78,-1
 426 227 l 2,79,80
 219 -25 219 -25 115 -25 c 0,81,82
 51 -25 51 -25 51 53 c 0,83,84
 51 115 51 115 92 227 c 0,0,1
EndSplineSet
Validated: 1
EndChar

StartChar: y
Encoding: 121 121 92
Width: 894
GlyphClass: 2
Flags: W
LayerCount: 2
Fore
SplineSet
-42 -538 m 0,0,1
 -39 -514 -39 -514 -16 -514 c 0,2,3
 76 -510 76 -510 98.5 -501 c 128,-1,4
 121 -492 121 -492 145 -442 c 0,5,6
 258 -215 258 -215 305 -86 c 0,7,8
 366 84 366 84 371 139 c 0,9,10
 376 208 376 208 376 279 c 0,11,12
 376 413 376 413 358 550 c 0,13,14
 332 760 332 760 276 760 c 0,15,16
 241 760 241 760 174 666 c 0,17,18
 168 658 168 658 155.5 640.5 c 128,-1,19
 143 623 143 623 137 614 c 0,20,21
 125 598 125 598 109 621 c 0,22,23
 97 639 97 639 106 655 c 0,24,25
 256 876 256 876 336 877 c 0,26,27
 426 877 426 877 459 604 c 0,28,29
 482 417 482 417 482 269 c 0,30,31
 482 202 482 202 477 143 c 0,32,33
 475 120 475 120 478 115.5 c 128,-1,34
 481 111 481 111 486.5 117 c 128,-1,35
 492 123 492 123 502 139 c 0,36,37
 759 572 759 572 759 700 c 0,38,39
 759 707 759 707 758 713 c 0,40,41
 756 721 756 721 741 752 c 0,42,43
 729 777 729 777 729 788 c 0,44,45
 729 825 729 825 754.5 852 c 128,-1,46
 780 879 780 879 815 879 c 0,47,48
 854 879 854 879 878.5 848 c 128,-1,49
 903 817 903 817 903 768 c 0,50,51
 903 696 903 696 831 563 c 0,52,53
 798 506 798 506 653 293 c 0,54,55
 538 127 538 127 502 47 c 0,56,57
 467 -31 467 -31 404.5 -183.5 c 128,-1,58
 342 -336 342 -336 309 -410 c 0,59,60
 285 -459 285 -459 285 -482 c 0,61,62
 285 -490 285 -490 288 -495 c 0,63,64
 299 -514 299 -514 385 -514 c 0,65,66
 393 -514 393 -514 398 -514 c 128,-1,67
 403 -514 403 -514 410.5 -516 c 128,-1,68
 418 -518 418 -518 420 -524 c 128,-1,69
 422 -530 422 -530 420 -539 c 0,70,71
 412 -565 412 -565 392 -565 c 2,72,73
 392 -565 392 -565 391 -565 c 0,74,75
 278 -559 278 -559 161 -559 c 0,76,77
 66 -559 66 -559 -31 -563 c 0,78,79
 -43 -563 -43 -563 -43 -546 c 0,80,81
 -43 -543 -43 -543 -42 -538 c 0,0,1
EndSplineSet
Validated: 1
EndChar

StartChar: z
Encoding: 122 122 93
Width: 999
GlyphClass: 2
Flags: W
LayerCount: 2
Fore
SplineSet
35 14 m 0,0,1
 35 67 35 67 102 158 c 0,2,3
 231 328 231 328 623 535 c 0,4,5
 742 596 742 596 797 633 c 0,6,7
 858 672 858 672 885 698 c 0,8,9
 905 718 905 718 899 721.5 c 128,-1,10
 893 725 893 725 874 713 c 0,11,12
 772 664 772 664 682 664 c 0,13,14
 622 664 622 664 567 686 c 0,15,16
 542 696 542 696 497.5 719.5 c 128,-1,17
 453 743 453 743 415 757.5 c 128,-1,18
 377 772 377 772 340 772 c 0,19,20
 299 772 299 772 272.5 750.5 c 128,-1,21
 246 729 246 729 197 666 c 0,22,23
 193 658 193 658 179.5 660 c 128,-1,24
 166 662 166 662 160 670 c 128,-1,25
 154 678 154 678 162 690 c 0,26,27
 301 874 301 874 436 874 c 0,28,29
 518 874 518 874 633 807 c 0,30,31
 639 803 639 803 659.5 791.5 c 128,-1,32
 680 780 680 780 688 776 c 128,-1,33
 696 772 696 772 714.5 763 c 128,-1,34
 733 754 733 754 744.5 751 c 128,-1,35
 756 748 756 748 772 744.5 c 128,-1,36
 788 741 788 741 805 742 c 0,37,38
 905 742 905 742 924 825 c 0,39,40
 930 852 930 852 930 854 c 0,41,42
 940 870 940 870 967 870 c 0,43,44
 1001 870 1001 870 1001 831 c 0,45,46
 1001 737 1001 737 873 619.5 c 128,-1,47
 745 502 745 502 635 444 c 0,48,49
 604 428 604 428 521 388 c 128,-1,50
 438 348 438 348 393 324 c 0,51,52
 258 252 258 252 188 188 c 0,53,54
 174 174 174 174 178 170 c 0,55,56
 182 168 182 168 197 176 c 0,57,58
 275 215 275 215 348 215 c 0,59,60
 432 215 432 215 543 152 c 0,61,62
 652 89 652 89 702 88 c 0,63,64
 792 88 792 88 862 195 c 0,65,66
 874 211 874 211 887.5 196.5 c 128,-1,67
 901 182 901 182 893 170 c 0,68,69
 834 82 834 82 762 29.5 c 128,-1,70
 690 -23 690 -23 631 -23 c 0,71,72
 615 -23 615 -23 597.5 -18.5 c 128,-1,73
 580 -14 580 -14 566.5 -10 c 128,-1,74
 553 -6 553 -6 532.5 5 c 128,-1,75
 512 16 512 16 504 21.5 c 128,-1,76
 496 27 496 27 473.5 41 c 128,-1,77
 451 55 451 55 446 57 c 0,78,79
 315 135 315 135 227 135 c 0,80,81
 164 135 164 135 144.5 114.5 c 128,-1,82
 125 94 125 94 125 57 c 0,83,84
 125 12 125 12 121 2 c 0,85,86
 111 -25 111 -25 70 -25 c 0,87,88
 35 -25 35 -25 35 14 c 0,0,1
EndSplineSet
Validated: 1
EndChar

StartChar: braceleft
Encoding: 123 123 94
Width: 825
GlyphClass: 2
Flags: W
LayerCount: 2
Fore
SplineSet
129 457 m 2,0,-1
 129 479 l 2,1,2
 129 491 129 491 143 494 c 0,3,4
 239 517 239 517 296.5 574 c 128,-1,5
 354 631 354 631 354 702 c 0,6,7
 354 757 354 757 329.5 862 c 128,-1,8
 305 967 305 967 305 1022 c 0,9,10
 305 1180 305 1180 414.5 1295.5 c 128,-1,11
 524 1411 524 1411 696 1432 c 0,12,13
 716 1434 716 1434 717 1413 c 0,14,15
 717 1386 717 1386 696 1380 c 0,16,17
 583 1360 583 1360 523 1296.5 c 128,-1,18
 463 1233 463 1233 463 1139 c 0,19,20
 463 1084 463 1084 483.5 975 c 128,-1,21
 504 866 504 866 504 813 c 0,22,23
 504 678 504 678 395 569 c 0,24,25
 336 510 336 510 264 479 c 0,26,27
 231 465 231 465 268 453 c 1,28,29
 504 336 504 336 504 121 c 0,30,31
 504 66 504 66 483.5 -42 c 128,-1,32
 463 -150 463 -150 463 -205 c 0,33,34
 463 -391 463 -391 694 -451 c 0,35,36
 708 -455 708 -455 712.5 -467 c 128,-1,37
 717 -479 717 -479 712 -489.5 c 128,-1,38
 707 -500 707 -500 696 -500 c 0,39,40
 524 -477 524 -477 415.5 -361.5 c 128,-1,41
 307 -246 307 -246 307 -90 c 0,42,43
 307 -37 307 -37 330.5 66.5 c 128,-1,44
 354 170 354 170 354 223 c 0,45,46
 354 299 354 299 302 354.5 c 128,-1,47
 250 410 250 410 152 434 c 0,48,49
 129 440 129 440 129 457 c 2,0,-1
EndSplineSet
Validated: 1
EndChar

StartChar: bar
Encoding: 124 124 95
Width: 1062
GlyphClass: 2
Flags: W
LayerCount: 2
Fore
SplineSet
471 -39 m 1,0,-1
 471 1731 l 1,1,-1
 590 1731 l 1,2,-1
 590 -39 l 1,3,-1
 471 -39 l 1,0,-1
EndSplineSet
Validated: 1
EndChar

StartChar: braceright
Encoding: 125 125 96
Width: 825
GlyphClass: 2
Flags: W
LayerCount: 2
Fore
SplineSet
103.5 -463 m 128,-1,1
 111 -449 111 -449 129 -449 c 0,2,3
 242 -429 242 -429 302 -365 c 128,-1,4
 362 -301 362 -301 362 -209 c 0,5,6
 362 -152 362 -152 342 -43 c 128,-1,7
 322 66 322 66 322 121 c 0,8,9
 322 254 322 254 430 362 c 0,10,11
 483 415 483 415 539 444 c 0,12,13
 568 456 568 456 570.5 463.5 c 128,-1,14
 573 471 573 471 551 483 c 0,15,16
 320 606 320 606 319 813 c 0,17,18
 319 844 319 844 340 971 c 0,19,20
 363 1088 363 1088 362 1135 c 0,21,22
 362 1321 362 1321 131 1384 c 0,23,24
 115 1392 115 1392 110.5 1403.5 c 128,-1,25
 106 1415 106 1415 113.5 1424.5 c 128,-1,26
 121 1434 121 1434 129 1434 c 0,27,28
 301 1409 301 1409 409.5 1294.5 c 128,-1,29
 518 1180 518 1180 518 1024 c 0,30,31
 518 971 518 971 494.5 866.5 c 128,-1,32
 471 762 471 762 471 709 c 0,33,34
 471 627 471 627 530.5 569.5 c 128,-1,35
 590 512 590 512 698 492 c 0,36,37
 710 486 710 486 714.5 466 c 128,-1,38
 719 446 719 446 700 440 c 0,39,40
 594 422 594 422 533.5 363.5 c 128,-1,41
 473 305 473 305 473 229 c 1,42,-1
 471 229 l 1,43,44
 471 176 471 176 495.5 71.5 c 128,-1,45
 520 -33 520 -33 520 -88 c 0,46,47
 520 -246 520 -246 410.5 -362.5 c 128,-1,48
 301 -479 301 -479 129 -500 c 0,49,50
 113 -502 113 -502 104.5 -489.5 c 128,-1,0
 96 -477 96 -477 103.5 -463 c 128,-1,1
EndSplineSet
Validated: 33
EndChar

StartChar: asciitilde
Encoding: 126 126 97
Width: 1128
GlyphClass: 2
Flags: W
LayerCount: 2
Fore
SplineSet
188 502 m 0,0,1
 190 637 190 637 269 730 c 128,-1,2
 348 823 348 823 459 823 c 0,3,4
 518 823 518 823 575.5 802.5 c 128,-1,5
 633 782 633 782 737 723 c 0,6,7
 876 643 876 643 948 643 c 128,-1,8
 1020 643 1020 643 1066 688 c 128,-1,9
 1112 733 1112 733 1120 817 c 1,10,11
 1126 835 1126 835 1150 834 c 128,-1,12
 1174 833 1174 833 1176 817 c 0,13,14
 1172 680 1172 680 1097 589 c 128,-1,15
 1022 498 1022 498 913 498 c 0,16,17
 811 498 811 498 614 604 c 0,18,19
 471 684 471 684 410 684 c 0,20,21
 340 684 340 684 293 634 c 128,-1,22
 246 584 246 584 240 502 c 1,23,24
 232 490 232 490 211 489.5 c 128,-1,25
 190 489 190 489 188 502 c 0,0,1
EndSplineSet
Validated: 1
EndChar

StartChar: exclamdown
Encoding: 161 161 99
Width: 608
GlyphClass: 2
Flags: W
LayerCount: 2
Fore
SplineSet
123 -420 m 2,0,-1
 375 492 l 2,1,2
 383 512 383 512 397 512 c 2,3,-1
 408 512 l 1,4,5
 426 503 426 503 424 483 c 2,6,-1
 303 -420 l 2,7,8
 297 -465 297 -465 282.5 -481.5 c 128,-1,9
 268 -498 268 -498 227 -498 c 2,10,-1
 184 -498 l 2,11,12
 137 -498 137 -498 124 -481.5 c 128,-1,13
 111 -465 111 -465 123 -420 c 2,0,-1
360 756 m 0,14,15
 364 805 364 805 394 837.5 c 128,-1,16
 424 870 424 870 463 870 c 0,17,18
 500 870 500 870 523.5 841.5 c 128,-1,19
 547 813 547 813 547 768 c 0,20,21
 547 715 547 715 517 679 c 128,-1,22
 487 643 487 643 442 643 c 128,-1,23
 397 643 397 643 375.5 678 c 128,-1,24
 354 713 354 713 360 756 c 0,14,15
EndSplineSet
Validated: 33
EndChar

StartChar: cent
Encoding: 162 162 100
Width: 565
GlyphClass: 2
Flags: W
LayerCount: 2
Fore
SplineSet
86 195 m 0,0,1
 86 375 86 375 184.5 569.5 c 128,-1,2
 283 764 283 764 414 838 c 0,3,4
 428 846 428 846 434 881 c 2,5,-1
 510 1298 l 2,6,7
 512 1318 512 1318 530 1317 c 1,8,-1
 541 1313 l 2,9,10
 559 1309 559 1309 557 1294 c 2,11,-1
 483 891 l 2,12,13
 477 864 477 864 506 870 c 0,14,15
 518 872 518 872 541 872 c 0,16,17
 654 872 654 872 653 788 c 0,18,19
 653 757 653 757 638 737 c 128,-1,20
 623 717 623 717 596 717 c 0,21,22
 559 717 559 717 496 754 c 0,23,24
 461 772 461 772 455 739 c 2,25,-1
 336 96 l 2,26,27
 332 78 332 78 339 72 c 128,-1,28
 346 66 346 66 362 70 c 0,29,30
 444 82 444 82 532 188 c 0,31,32
 542 202 542 202 551 195 c 2,33,-1
 567 182 l 2,34,35
 579 172 579 172 569 162 c 0,36,37
 454 23 454 23 338 -18 c 0,38,39
 313 -26 313 -26 311 -47 c 2,40,-1
 238 -457 l 2,41,42
 232 -486 232 -486 211 -481 c 2,43,-1
 201 -479 l 2,44,45
 193 -479 193 -479 188.5 -475 c 128,-1,46
 184 -471 184 -471 186 -457 c 2,47,-1
 260 -57 l 2,48,49
 264 -32 264 -32 242 -29 c 0,50,51
 170 -19 170 -19 128 40.5 c 128,-1,52
 86 100 86 100 86 195 c 0,0,1
227 217 m 0,53,54
 227 139 227 139 264 98 c 0,55,56
 274 90 274 90 282.5 96 c 128,-1,57
 291 102 291 102 293 115 c 2,58,-1
 403 723 l 2,59,60
 408 742 408 742 406 748 c 0,61,62
 398 758 398 758 385 748 c 0,63,64
 365 730 365 730 350 700 c 0,65,66
 301 620 301 620 264 472 c 128,-1,67
 227 324 227 324 227 217 c 0,53,54
EndSplineSet
Validated: 33
EndChar

StartChar: sterling
Encoding: 163 163 101
Width: 1519
GlyphClass: 2
Flags: W
LayerCount: 2
Fore
SplineSet
98 -444 m 0,0,1
 98 -389 98 -389 169 -328.5 c 128,-1,2
 240 -268 240 -268 332 -242 c 1,3,4
 402 -150 402 -150 467 -8 c 0,5,6
 508 82 508 82 524 123 c 1,7,-1
 246 123 l 1,8,-1
 258 184 l 1,9,-1
 547 184 l 1,10,-1
 561 221 l 2,11,12
 692 565 692 565 829 842 c 0,13,14
 970 1125 970 1125 1106 1278 c 0,15,16
 1243 1434 1243 1434 1411 1434 c 0,17,18
 1489 1434 1489 1434 1541 1398 c 128,-1,19
 1593 1362 1593 1362 1593 1309 c 0,20,21
 1593 1278 1593 1278 1571.5 1256.5 c 128,-1,22
 1550 1235 1550 1235 1518 1235 c 0,23,24
 1506 1235 1506 1235 1494.5 1239 c 128,-1,25
 1483 1243 1483 1243 1476.5 1246 c 128,-1,26
 1470 1249 1470 1249 1460 1259.5 c 128,-1,27
 1450 1270 1450 1270 1447 1274 c 128,-1,28
 1444 1278 1444 1278 1433.5 1292.5 c 128,-1,29
 1423 1307 1423 1307 1421 1309 c 0,30,31
 1388 1354 1388 1354 1335 1354 c 0,32,33
 1241 1354 1241 1354 1161 1233 c 0,34,35
 1095 1131 1095 1131 969 831 c 0,36,37
 840 528 840 528 756 348 c 0,38,39
 709 246 709 246 674 184 c 1,40,-1
 1016 184 l 1,41,-1
 1004 123 l 1,42,-1
 641 123 l 1,43,44
 571 -4 571 -4 504 -109 c 0,45,46
 477 -150 477 -150 420 -221 c 1,47,48
 483 -207 483 -207 549 -207 c 0,49,50
 653 -207 653 -207 720.5 -228.5 c 128,-1,51
 788 -250 788 -250 907 -319 c 0,52,53
 1046 -403 1046 -403 1139 -403 c 0,54,55
 1205 -403 1205 -403 1249.5 -360 c 128,-1,56
 1294 -317 1294 -317 1294 -256 c 0,57,58
 1294 -227 1294 -227 1280 -195 c 2,59,-1
 1249 -133 l 2,60,61
 1239 -108 1239 -108 1239 -88 c 0,62,63
 1239 -59 1239 -59 1258.5 -36.5 c 128,-1,64
 1278 -14 1278 -14 1305 -14 c 0,65,66
 1346 -14 1346 -14 1371.5 -53 c 128,-1,67
 1397 -92 1397 -92 1397 -154 c 0,68,69
 1397 -291 1397 -291 1296.5 -393.5 c 128,-1,70
 1196 -496 1196 -496 1063 -496 c 0,71,72
 936 -496 936 -496 809 -424 c 0,73,74
 789 -412 789 -412 700 -358 c 0,75,76
 559 -270 559 -270 416 -270 c 2,77,-1
 383 -270 l 1,78,79
 227 -497 227 -497 154 -498 c 0,80,81
 131 -498 131 -498 114.5 -482.5 c 128,-1,82
 98 -467 98 -467 98 -444 c 0,0,1
EndSplineSet
Validated: 1
EndChar

StartChar: currency
Encoding: 164 164 102
Width: 1390
GlyphClass: 2
Flags: W
LayerCount: 2
Fore
SplineSet
203 266 m 1,0,-1
 334 399 l 1,1,2
 275 487 275 487 256.5 544.5 c 128,-1,3
 238 602 238 602 238 690 c 128,-1,4
 238 778 238 778 257 833.5 c 128,-1,5
 276 889 276 889 334 971 c 1,6,-1
 203 1100 l 1,7,-1
 285 1184 l 1,8,-1
 416 1053 l 1,9,10
 492 1114 492 1114 546 1132.5 c 128,-1,11
 600 1151 600 1151 694 1151 c 128,-1,12
 788 1151 788 1151 843.5 1132.5 c 128,-1,13
 899 1114 899 1114 977 1053 c 1,14,-1
 1104 1184 l 1,15,-1
 1184 1100 l 1,16,-1
 1057 971 l 1,17,18
 1116 887 1116 887 1134.5 829.5 c 128,-1,19
 1153 772 1153 772 1153 678 c 128,-1,20
 1153 584 1153 584 1133.5 528.5 c 128,-1,21
 1114 473 1114 473 1057 397 c 1,22,-1
 1184 266 l 1,23,-1
 1104 184 l 1,24,-1
 977 315 l 1,25,26
 895 254 895 254 839.5 234.5 c 128,-1,27
 784 215 784 215 692 215 c 0,28,29
 598 215 598 215 545 234.5 c 128,-1,30
 492 254 492 254 416 315 c 1,31,-1
 285 184 l 1,32,-1
 203 266 l 1,0,-1
354 684 m 128,-1,34
 354 539 354 539 452.5 436.5 c 128,-1,35
 551 334 551 334 692 334 c 0,36,37
 835 334 835 334 935.5 435.5 c 128,-1,38
 1036 537 1036 537 1036 682 c 128,-1,39
 1036 827 1036 827 937 929.5 c 128,-1,40
 838 1032 838 1032 698 1032 c 0,41,42
 555 1032 555 1032 454.5 930.5 c 128,-1,33
 354 829 354 829 354 684 c 128,-1,34
EndSplineSet
Validated: 1
EndChar

StartChar: yen
Encoding: 165 165 103
Width: 1042
GlyphClass: 2
Flags: W
LayerCount: 2
Fore
SplineSet
39 721 m 2,0,-1
 53 770 l 2,1,2
 59 784 59 784 86 784 c 0,3,4
 100 784 100 784 154.5 784 c 128,-1,5
 209 784 209 784 294 784 c 128,-1,6
 379 784 379 784 418 784 c 0,7,8
 453 784 453 784 459 789.5 c 128,-1,9
 465 795 465 795 459 817 c 2,10,-1
 414 987 l 2,11,12
 408 1014 408 1014 377 1018 c 1,13,-1
 362 1018 l 1,14,-1
 143 1018 l 2,15,16
 133 1016 133 1016 128 1023 c 128,-1,17
 123 1030 123 1030 125 1038 c 2,18,-1
 127 1042 l 2,19,20
 127 1046 127 1046 129 1050.5 c 128,-1,21
 131 1055 131 1055 131 1059 c 0,22,23
 137 1075 137 1075 139 1083 c 0,24,25
 143 1093 143 1093 158 1096 c 2,26,-1
 195 1096 l 1,27,-1
 350 1098 l 2,28,29
 377 1098 377 1098 378 1108 c 128,-1,30
 379 1118 379 1118 365 1159 c 0,31,32
 332 1261 332 1261 308.5 1299 c 128,-1,33
 285 1337 285 1337 242 1352 c 0,34,35
 238 1352 238 1352 233.5 1354 c 128,-1,36
 229 1356 229 1356 225 1356 c 128,-1,37
 221 1356 221 1356 217 1360 c 0,38,39
 213 1360 213 1360 213 1372 c 2,40,-1
 217 1397 l 2,41,42
 217 1399 217 1399 218 1404 c 128,-1,43
 219 1409 219 1409 221 1411 c 128,-1,44
 223 1413 223 1413 244 1413 c 0,45,46
 486 1407 486 1407 659 1413 c 0,47,48
 682 1413 682 1413 682 1401 c 2,49,-1
 674 1370 l 2,50,51
 670 1358 670 1358 655 1358 c 0,52,53
 583 1358 583 1358 552.5 1337.5 c 128,-1,54
 522 1317 522 1317 522 1270 c 0,55,56
 522 1219 522 1219 549 1147 c 1,57,58
 561 1100 561 1100 598 1098 c 0,59,60
 754 1090 754 1090 870 1098 c 0,61,62
 899 1098 899 1098 911 1118 c 0,63,64
 958 1190 958 1190 975 1217 c 0,65,66
 1016 1280 1016 1280 1016 1304.5 c 128,-1,67
 1016 1329 1016 1329 992.5 1341.5 c 128,-1,68
 969 1354 969 1354 901 1358 c 0,69,70
 891 1358 891 1358 888 1360 c 128,-1,71
 885 1362 885 1362 887 1370 c 2,72,-1
 893 1399 l 2,73,74
 897 1411 897 1411 924 1411 c 0,75,76
 983 1413 983 1413 1091.5 1409 c 128,-1,77
 1200 1405 1200 1405 1280 1413 c 0,78,79
 1292 1415 1292 1415 1299.5 1408 c 128,-1,80
 1307 1401 1307 1401 1303 1391 c 2,81,-1
 1282 1360 l 1,82,83
 1190 1346 1190 1346 1145 1300 c 0,84,85
 1125 1280 1125 1280 1092 1231 c 0,86,87
 1035 1149 1035 1149 1012 1118 c 0,88,89
 1002 1098 1002 1098 1038 1098 c 2,90,-1
 1051 1098 l 1,91,-1
 1196 1098 l 2,92,93
 1210 1098 1210 1098 1198 1065 c 2,94,-1
 1188 1030 l 2,95,96
 1180 1012 1180 1012 1159 1016 c 0,97,98
 1141 1018 1141 1018 965 1018 c 0,99,100
 934 1018 934 1018 920 991 c 0,101,102
 840 872 840 872 799 819 c 0,103,104
 781 794 781 794 801 784 c 0,105,106
 809 782 809 782 829 782 c 0,107,108
 845 782 845 782 890.5 781 c 128,-1,109
 936 780 936 780 961 780 c 0,110,111
 1051 776 1051 776 1071 780 c 0,112,113
 1079 780 1079 780 1085.5 778 c 128,-1,114
 1092 776 1092 776 1095 772 c 128,-1,115
 1098 768 1098 768 1099 764 c 128,-1,116
 1100 760 1100 760 1099 752.5 c 128,-1,117
 1098 745 1098 745 1097 741 c 128,-1,118
 1096 737 1096 737 1093 730 c 128,-1,119
 1090 723 1090 723 1090 721 c 0,120,121
 1082 696 1082 696 1059 696 c 0,122,123
 1022 702 1022 702 754 698 c 0,124,125
 701 698 701 698 680 647 c 1,126,-1
 575 287 l 2,127,128
 540 172 540 172 541 129 c 0,129,130
 541 88 541 88 567.5 73.5 c 128,-1,131
 594 59 594 59 684 53 c 0,132,133
 702 53 702 53 700 43 c 2,134,-1
 688 6 l 2,135,136
 680 -8 680 -8 653 -8 c 0,137,138
 463 2 463 2 166 -8 c 0,139,140
 152 -8 152 -8 152 8 c 2,141,-1
 160 39 l 2,142,143
 162 53 162 53 186 53 c 0,144,145
 196 53 196 53 209.5 54 c 128,-1,146
 223 55 223 55 230.5 56 c 128,-1,147
 238 57 238 57 244 57 c 0,148,149
 258 57 258 57 272 63 c 0,150,151
 317 86 317 86 334.5 115.5 c 128,-1,152
 352 145 352 145 387 272 c 2,153,-1
 506 672 l 1,154,155
 496 701 496 701 465 698 c 2,156,-1
 70 698 l 2,157,158
 56 700 56 700 49.5 701 c 128,-1,159
 43 702 43 702 40 707.5 c 128,-1,160
 37 713 37 713 39 721 c 2,0,-1
598 981 m 2,161,-1
 649 782 l 2,162,163
 651 772 651 772 655 767 c 128,-1,164
 659 762 659 762 666 764 c 0,165,166
 670 768 670 768 686 791 c 0,167,168
 747 869 747 869 817 987 c 0,169,170
 827 1007 827 1007 821 1012.5 c 128,-1,171
 815 1018 815 1018 784 1018 c 2,172,-1
 631 1018 l 2,173,174
 606 1018 606 1018 599 1012 c 128,-1,175
 592 1006 592 1006 598 981 c 2,161,-1
EndSplineSet
Validated: 33
EndChar

StartChar: brokenbar
Encoding: 166 166 104
Width: 1062
GlyphClass: 2
Flags: W
LayerCount: 2
Fore
SplineSet
471 -39 m 1,0,-1
 471 717 l 1,1,-1
 590 717 l 1,2,-1
 590 -39 l 1,3,-1
 471 -39 l 1,0,-1
471 975 m 1,4,-1
 471 1731 l 1,5,-1
 590 1731 l 1,6,-1
 590 975 l 1,7,-1
 471 975 l 1,4,-1
EndSplineSet
Validated: 1
EndChar

StartChar: section
Encoding: 167 167 105
Width: 997
GlyphClass: 2
Flags: W
LayerCount: 2
Fore
SplineSet
-80 -393 m 0,0,1
 -80 -368 -80 -368 -59 -332 c 0,2,3
 -32 -293 -32 -293 -6 -293 c 0,4,5
 27 -293 27 -293 86 -334 c 0,6,7
 160 -383 160 -383 186.5 -394.5 c 128,-1,8
 213 -406 213 -406 250 -406 c 0,9,10
 342 -406 342 -406 406.5 -313.5 c 128,-1,11
 471 -221 471 -221 471 -88 c 0,12,13
 471 -4 471 -4 448.5 68.5 c 128,-1,14
 426 141 426 141 354 291 c 0,15,16
 235 539 235 539 236 702 c 0,17,18
 236 856 236 856 318.5 1017 c 128,-1,19
 401 1178 401 1178 539 1288 c 0,20,21
 719 1433 719 1433 915 1434 c 0,22,23
 995 1434 995 1434 1054.5 1405 c 128,-1,24
 1114 1376 1114 1376 1114 1333 c 0,25,26
 1114 1292 1114 1292 1091.5 1259.5 c 128,-1,27
 1069 1227 1069 1227 1038 1227 c 0,28,29
 1001 1227 1001 1227 946 1270 c 0,30,31
 889 1313 889 1313 856 1327 c 128,-1,32
 823 1341 823 1341 780 1341 c 0,33,34
 706 1341 706 1341 657 1269.5 c 128,-1,35
 608 1198 608 1198 608 1087 c 0,36,37
 608 923 608 923 721 657 c 0,38,39
 799 475 799 475 820.5 396 c 128,-1,40
 842 317 842 317 842 221 c 0,41,42
 842 49 842 49 740.5 -111.5 c 128,-1,43
 639 -272 639 -272 461 -385 c 128,-1,44
 283 -498 283 -498 117 -498 c 0,45,46
 33 -498 33 -498 -23.5 -469 c 128,-1,47
 -80 -440 -80 -440 -80 -393 c 0,0,1
336 727 m 0,48,49
 336 555 336 555 420 383 c 2,50,-1
 485 248 l 2,51,52
 559 96 559 96 559 -49 c 0,53,54
 559 -141 559 -141 516 -248 c 1,55,56
 743 -53 743 -53 743 209 c 0,57,58
 743 359 743 359 641 592 c 0,59,60
 582 729 582 729 565 776 c 0,61,62
 518 903 518 903 518 1038 c 0,63,64
 518 1099 518 1099 541 1186 c 1,65,66
 336 942 336 942 336 727 c 0,48,49
EndSplineSet
Validated: 33
EndChar

StartChar: dieresis
Encoding: 168 168 106
Width: 694
GlyphClass: 2
Flags: W
LayerCount: 2
Fore
SplineSet
225 1098 m 0,0,1
 225 1143 225 1143 256 1174.5 c 128,-1,2
 287 1206 287 1206 332 1206 c 0,3,4
 375 1206 375 1206 405.5 1174.5 c 128,-1,5
 436 1143 436 1143 436 1098 c 0,6,7
 436 1055 436 1055 404.5 1023 c 128,-1,8
 373 991 373 991 332 991 c 0,9,10
 287 991 287 991 256 1023 c 128,-1,11
 225 1055 225 1055 225 1098 c 0,0,1
567 1100 m 128,-1,13
 567 1145 567 1145 599 1176.5 c 128,-1,14
 631 1208 631 1208 676 1208 c 0,15,16
 719 1208 719 1208 749.5 1176.5 c 128,-1,17
 780 1145 780 1145 780 1100 c 128,-1,18
 780 1055 780 1055 749.5 1023 c 128,-1,19
 719 991 719 991 676 991 c 0,20,21
 631 991 631 991 599 1023 c 128,-1,12
 567 1055 567 1055 567 1100 c 128,-1,13
EndSplineSet
Validated: 1
EndChar

StartChar: copyright
Encoding: 169 169 107
Width: 1583
GlyphClass: 2
Flags: W
LayerCount: 2
Fore
SplineSet
199 700.5 m 128,-1,1
 199 1006 199 1006 413 1223 c 128,-1,2
 627 1440 627 1440 930 1440 c 128,-1,3
 1233 1440 1233 1440 1448 1223 c 128,-1,4
 1663 1006 1663 1006 1663 700.5 c 128,-1,5
 1663 395 1663 395 1448 178 c 128,-1,6
 1233 -39 1233 -39 930 -39 c 128,-1,7
 627 -39 627 -39 413 178 c 128,-1,0
 199 395 199 395 199 700.5 c 128,-1,1
276 700.5 m 128,-1,9
 276 426 276 426 466.5 233.5 c 128,-1,10
 657 41 657 41 929.5 41 c 128,-1,11
 1202 41 1202 41 1393.5 233.5 c 128,-1,12
 1585 426 1585 426 1585 700.5 c 128,-1,13
 1585 975 1585 975 1393.5 1167.5 c 128,-1,14
 1202 1360 1202 1360 929.5 1360 c 128,-1,15
 657 1360 657 1360 466.5 1167.5 c 128,-1,8
 276 975 276 975 276 700.5 c 128,-1,9
453 694 m 0,16,17
 453 903 453 903 601.5 1041.5 c 128,-1,18
 750 1180 750 1180 971 1180 c 0,19,20
 1047 1180 1047 1180 1163 1141 c 0,21,22
 1188 1133 1188 1133 1198 1133 c 0,23,24
 1212 1133 1212 1133 1221.5 1142 c 128,-1,25
 1231 1151 1231 1151 1243 1180 c 1,26,-1
 1272 1180 l 2,27,28
 1295 1180 1295 1180 1296 1161 c 2,29,-1
 1315 920 l 1,30,31
 1323 875 1323 875 1298 874 c 2,32,-1
 1274 874 l 2,33,34
 1266 874 1266 874 1260.5 880.5 c 128,-1,35
 1255 887 1255 887 1253 898 c 128,-1,36
 1251 909 1251 909 1249 913 c 0,37,38
 1169 1118 1169 1118 958 1118 c 0,39,40
 808 1118 808 1118 715.5 1011.5 c 128,-1,41
 623 905 623 905 623 723 c 0,42,43
 623 524 623 524 716 415.5 c 128,-1,44
 809 307 809 307 969 307 c 0,45,46
 1159 307 1159 307 1272 459 c 0,47,48
 1288 479 1288 479 1307 471 c 2,49,-1
 1319 463 l 2,50,51
 1339 448 1339 448 1327 432 c 0,52,53
 1175 227 1175 227 934 227 c 0,54,55
 729 227 729 227 591 361.5 c 128,-1,56
 453 496 453 496 453 694 c 0,16,17
EndSplineSet
Validated: 1
EndChar

StartChar: ordfeminine
Encoding: 170 170 108
Width: 542
GlyphClass: 2
Flags: W
LayerCount: 2
Fore
SplineSet
205 950 m 0,0,1
 205 1044 205 1044 275.5 1144.5 c 128,-1,2
 346 1245 346 1245 453 1303 c 0,3,4
 549 1356 549 1356 645 1356 c 2,5,-1
 682 1356 l 1,6,-1
 600 979 l 2,7,8
 590 922 590 922 590 911 c 0,9,10
 590 899 590 899 598 899 c 128,-1,11
 606 899 606 899 645 934 c 0,12,13
 651 940 651 940 662.5 952.5 c 128,-1,14
 674 965 674 965 678 969 c 1,15,-1
 678 928 l 2,16,17
 676 924 676 924 670 920 c 2,18,-1
 668 918 l 2,19,20
 664 914 664 914 664 911 c 0,21,22
 574 817 574 817 535 817 c 0,23,24
 517 817 517 817 504.5 834.5 c 128,-1,25
 492 852 492 852 492 879 c 0,26,27
 492 916 492 916 510 989 c 1,28,29
 338 817 338 817 289 817 c 0,30,31
 256 817 256 817 230.5 858 c 128,-1,32
 205 899 205 899 205 950 c 0,0,1
297 975 m 0,33,34
 297 938 297 938 308 913.5 c 128,-1,35
 319 889 319 889 336 889 c 0,36,37
 348 889 348 889 389 922 c 0,38,39
 395 928 395 928 435 963.5 c 128,-1,40
 475 999 475 999 508 1026 c 2,41,-1
 520 1036 l 1,42,-1
 573 1284 l 1,43,44
 477 1276 477 1276 426 1241 c 0,45,46
 369 1204 369 1204 333 1130.5 c 128,-1,47
 297 1057 297 1057 297 975 c 0,33,34
EndSplineSet
Validated: 1
EndChar

StartChar: guillemotleft
Encoding: 171 171 109
Width: 913
GlyphClass: 2
Flags: W
LayerCount: 2
Fore
SplineSet
195 467 m 1,0,-1
 598 862 l 1,1,-1
 649 862 l 1,2,-1
 348 465 l 1,3,-1
 475 72 l 1,4,-1
 420 72 l 1,5,-1
 195 467 l 1,0,-1
547 467 m 1,6,-1
 872 815 l 1,7,-1
 928 815 l 1,8,-1
 702 465 l 1,9,-1
 760 123 l 1,10,-1
 707 123 l 1,11,-1
 547 467 l 1,6,-1
EndSplineSet
Validated: 1
EndChar

StartChar: logicalnot
Encoding: 172 172 110
Width: 1390
GlyphClass: 2
Flags: W
LayerCount: 2
Fore
SplineSet
141 877 m 1,0,-1
 141 997 l 1,1,-1
 1247 997 l 1,2,-1
 1247 373 l 1,3,-1
 1130 373 l 1,4,-1
 1130 877 l 1,5,-1
 141 877 l 1,0,-1
EndSplineSet
Validated: 1
EndChar

StartChar: uni00AD
Encoding: 173 173 111
Width: 679
GlyphClass: 2
Flags: W
LayerCount: 2
Fore
SplineSet
123 382 m 128,-1,1
 119 387 119 387 123 422 c 0,2,3
 123 434 123 434 131 463 c 0,4,5
 139 486 139 486 147 487 c 0,6,7
 155 489 155 489 174 489 c 2,8,-1
 602 489 l 2,9,10
 612 489 612 489 616.5 488 c 128,-1,11
 621 487 621 487 625 481 c 128,-1,12
 629 475 629 475 625 463 c 0,13,14
 621 426 621 426 612 395 c 0,15,16
 604 372 604 372 586 377 c 1,17,-1
 160 377 l 2,18,0
 127 377 127 377 123 382 c 128,-1,1
EndSplineSet
Validated: 1
EndChar

StartChar: registered
Encoding: 174 174 112
Width: 1583
GlyphClass: 2
Flags: W
LayerCount: 2
Fore
SplineSet
160 704.5 m 128,-1,1
 160 1014 160 1014 377 1233 c 128,-1,2
 594 1452 594 1452 899 1452 c 128,-1,3
 1204 1452 1204 1452 1422 1233 c 128,-1,4
 1640 1014 1640 1014 1640 704.5 c 128,-1,5
 1640 395 1640 395 1422 177 c 128,-1,6
 1204 -41 1204 -41 899 -41 c 128,-1,7
 594 -41 594 -41 377 177 c 128,-1,0
 160 395 160 395 160 704.5 c 128,-1,1
240 705 m 0,8,9
 240 429 240 429 432.5 234 c 128,-1,10
 625 39 625 39 899.5 39 c 128,-1,11
 1174 39 1174 39 1367.5 234 c 128,-1,12
 1561 429 1561 429 1561 705 c 0,13,14
 1561 984 1561 984 1367.5 1178 c 128,-1,15
 1174 1372 1174 1372 899.5 1372 c 128,-1,16
 625 1372 625 1372 432.5 1177.5 c 128,-1,17
 240 983 240 983 240 705 c 0,8,9
487 264 m 2,18,-1
 487 289 l 2,19,20
 487 301 487 301 508 301 c 0,21,22
 565 303 565 303 579.5 326.5 c 128,-1,23
 594 350 594 350 594 436 c 2,24,-1
 594 983 l 2,25,26
 594 1069 594 1069 581.5 1091.5 c 128,-1,27
 569 1114 569 1114 516 1116 c 0,28,29
 500 1116 500 1116 500 1130 c 2,30,-1
 500 1149 l 2,31,32
 500 1172 500 1172 524 1167 c 1,33,34
 706 1163 706 1163 905 1167 c 0,35,36
 1044 1169 1044 1169 1132.5 1102.5 c 128,-1,37
 1221 1036 1221 1036 1221 928 c 0,38,39
 1221 762 1221 762 1020 696 c 0,40,41
 997 690 997 690 1014 666 c 2,42,-1
 1206 389 l 2,43,44
 1241 340 1241 340 1264.5 321.5 c 128,-1,45
 1288 303 1288 303 1323 301 c 0,46,47
 1327 301 1327 301 1330 298 c 128,-1,48
 1333 295 1333 295 1333 291 c 128,-1,49
 1333 287 1333 287 1333 281.5 c 128,-1,50
 1333 276 1333 276 1332 271 c 128,-1,51
 1331 266 1331 266 1331 264 c 0,52,53
 1331 254 1331 254 1328 252 c 128,-1,54
 1325 250 1325 250 1315 250 c 0,55,56
 1313 250 1313 250 1311 250 c 0,57,58
 1250 254 1250 254 1157 250 c 0,59,60
 1134 246 1134 246 1120 260 c 2,61,-1
 825 672 l 1,62,-1
 784 672 l 2,63,64
 759 672 759 672 760 631 c 2,65,-1
 760 434 l 1,66,-1
 760 358 l 2,67,68
 760 303 760 303 872 301 c 0,69,70
 880 301 880 301 881 287 c 2,71,-1
 881 262 l 2,72,73
 881 246 881 246 860 250 c 0,74,75
 667 258 667 258 508 250 c 0,76,77
 504 248 504 248 495.5 252 c 128,-1,78
 487 256 487 256 487 264 c 2,18,-1
760 756 m 2,79,80
 760 733 760 733 782 733 c 0,81,82
 905 733 905 733 971.5 781 c 128,-1,83
 1038 829 1038 829 1038 915 c 0,84,85
 1038 997 1038 997 982 1051.5 c 128,-1,86
 926 1106 926 1106 838 1106 c 0,87,88
 801 1106 801 1106 760 1092 c 1,89,-1
 760 756 l 2,79,80
EndSplineSet
Validated: 33
EndChar

StartChar: macron
Encoding: 175 175 113
Width: 694
GlyphClass: 2
Flags: W
LayerCount: 2
Fore
SplineSet
193 1108 m 2,0,-1
 215 1186 l 2,1,2
 217 1192 217 1192 219 1200 c 0,3,4
 221 1210 221 1210 224 1212 c 128,-1,5
 227 1214 227 1214 242 1214 c 0,6,7
 248 1214 248 1214 252 1214 c 2,8,-1
 791 1214 l 2,9,10
 839 1214 839 1214 827 1169 c 2,11,-1
 809 1100 l 2,12,13
 797 1067 797 1067 772 1073 c 1,14,-1
 227 1073 l 2,15,16
 184 1073 184 1073 193 1108 c 2,0,-1
EndSplineSet
Validated: 1
EndChar

StartChar: degree
Encoding: 176 176 114
Width: 825
GlyphClass: 2
Flags: W
LayerCount: 2
Fore
SplineSet
268 1036 m 128,-1,1
 268 1169 268 1169 361.5 1263.5 c 128,-1,2
 455 1358 455 1358 584 1358 c 0,3,4
 715 1358 715 1358 807 1263.5 c 128,-1,5
 899 1169 899 1169 899 1036 c 128,-1,6
 899 903 899 903 807 809 c 128,-1,7
 715 715 715 715 584 715 c 0,8,9
 455 715 455 715 361.5 809 c 128,-1,0
 268 903 268 903 268 1036 c 128,-1,1
360 1036 m 128,-1,11
 360 942 360 942 426 876.5 c 128,-1,12
 492 811 492 811 584 811 c 128,-1,13
 676 811 676 811 740.5 876.5 c 128,-1,14
 805 942 805 942 805 1036 c 128,-1,15
 805 1130 805 1130 740.5 1197 c 128,-1,16
 676 1264 676 1264 584 1264 c 128,-1,17
 492 1264 492 1264 426 1197 c 128,-1,10
 360 1130 360 1130 360 1036 c 128,-1,11
EndSplineSet
Validated: 1
EndChar

StartChar: plusminus
Encoding: 177 177 115
Width: 1390
GlyphClass: 2
Flags: W
LayerCount: 2
Fore
SplineSet
141 -45 m 1,0,-1
 141 76 l 1,1,-1
 1247 76 l 1,2,-1
 1247 -45 l 1,3,-1
 141 -45 l 1,0,-1
141 793 m 1,4,-1
 141 911 l 1,5,-1
 633 911 l 1,6,-1
 633 1415 l 1,7,-1
 752 1415 l 1,8,-1
 752 911 l 1,9,-1
 1247 911 l 1,10,-1
 1247 793 l 1,11,-1
 752 793 l 1,12,-1
 752 289 l 1,13,-1
 633 289 l 1,14,-1
 633 793 l 1,15,-1
 141 793 l 1,4,-1
EndSplineSet
Validated: 1
EndChar

StartChar: uni00B2
Encoding: 178 178 116
Width: 651
GlyphClass: 2
Flags: W
LayerCount: 2
Fore
SplineSet
170 657.5 m 128,-1,1
 170 674 170 674 193 692 c 0,2,3
 199 698 199 698 257 747.5 c 128,-1,4
 315 797 315 797 337.5 817.5 c 128,-1,5
 360 838 360 838 412.5 885 c 128,-1,6
 465 932 465 932 492.5 961.5 c 128,-1,7
 520 991 520 991 551 1028 c 128,-1,8
 582 1065 582 1065 598 1094 c 0,9,10
 623 1139 623 1139 628 1181 c 128,-1,11
 633 1223 633 1223 606.5 1254.5 c 128,-1,12
 580 1286 580 1286 520 1286 c 0,13,14
 411 1286 411 1286 354 1176 c 0,15,16
 342 1151 342 1151 311 1151 c 0,17,18
 286 1151 286 1151 297 1182 c 0,19,20
 324 1264 324 1264 388.5 1309 c 128,-1,21
 453 1354 453 1354 543 1354 c 0,22,23
 637 1354 637 1354 697.5 1308 c 128,-1,24
 758 1262 758 1262 758 1190 c 0,25,26
 758 1073 758 1073 547 915 c 0,27,28
 545 913 545 913 379 782 c 0,29,30
 322 735 322 735 371 735 c 2,31,-1
 547 735 l 2,32,33
 610 735 610 735 621 780 c 0,34,35
 623 800 623 800 649 801 c 0,36,37
 663 801 663 801 667.5 800 c 128,-1,38
 672 799 672 799 676 791.5 c 128,-1,39
 680 784 680 784 674 770 c 2,40,-1
 651 664 l 2,41,42
 647 637 647 637 586 643 c 0,43,44
 566 643 566 643 486 644 c 128,-1,45
 406 645 406 645 333 645 c 128,-1,46
 260 645 260 645 211 643 c 0,47,0
 170 641 170 641 170 657.5 c 128,-1,1
EndSplineSet
Validated: 33
EndChar

StartChar: uni00B3
Encoding: 179 179 117
Width: 651
GlyphClass: 2
Flags: W
LayerCount: 2
Fore
SplineSet
186 684 m 0,0,1
 186 704 186 704 203.5 717.5 c 128,-1,2
 221 731 221 731 244 731 c 0,3,4
 258 731 258 731 300 711.5 c 128,-1,5
 342 692 342 692 373 692 c 0,6,7
 451 692 451 692 510 774 c 0,8,9
 567 848 567 848 567 928 c 0,10,11
 567 973 567 973 542.5 999.5 c 128,-1,12
 518 1026 518 1026 479 1026 c 0,13,14
 459 1026 459 1026 399 997 c 0,15,16
 372 985 372 985 362 1010 c 1,17,18
 366 1033 366 1033 391 1051 c 1,19,20
 514 1112 514 1112 558 1151 c 128,-1,21
 602 1190 602 1190 602 1229 c 0,22,23
 602 1258 602 1258 581.5 1276 c 128,-1,24
 561 1294 561 1294 528 1294 c 0,25,26
 475 1294 475 1294 418 1237 c 0,27,28
 402 1223 402 1223 397.5 1221 c 128,-1,29
 393 1219 393 1219 375 1227 c 1,30,31
 355 1243 355 1243 375 1266 c 0,32,33
 451 1356 451 1356 563 1356 c 0,34,35
 635 1356 635 1356 682 1323 c 128,-1,36
 729 1290 729 1290 729 1239 c 0,37,38
 729 1161 729 1161 612 1108 c 0,39,40
 600 1102 600 1102 601 1093.5 c 128,-1,41
 602 1085 602 1085 612 1081 c 0,42,43
 698 1052 698 1052 698 958 c 0,44,45
 698 860 698 860 613 772 c 128,-1,46
 528 684 528 684 399 645 c 1,47,48
 364 629 364 629 275 631 c 128,-1,49
 186 633 186 633 186 684 c 0,0,1
EndSplineSet
Validated: 33
EndChar

StartChar: acute
Encoding: 180 180 118
Width: 694
GlyphClass: 2
Flags: W
LayerCount: 2
Fore
SplineSet
408 1030 m 0,0,1
 486 1278 486 1278 494 1327 c 1,2,3
 502 1347 502 1347 532 1348 c 0,4,5
 622 1352 622 1352 666 1348 c 1,6,7
 682 1352 682 1352 690 1343.5 c 128,-1,8
 698 1335 698 1335 688 1319 c 0,9,10
 629 1237 629 1237 438 1022 c 0,11,12
 432 1016 432 1016 424 1015 c 128,-1,13
 416 1014 416 1014 411 1018 c 128,-1,14
 406 1022 406 1022 408 1030 c 0,0,1
EndSplineSet
Validated: 33
EndChar

StartChar: paragraph
Encoding: 182 182 119
Width: 933
GlyphClass: 2
Flags: W
LayerCount: 2
Fore
SplineSet
-18 928 m 0,0,1
 -18 1114 -18 1114 104.5 1218.5 c 128,-1,2
 227 1323 227 1323 444 1323 c 2,3,-1
 934 1323 l 2,4,5
 950 1323 950 1323 950 1296 c 0,6,7
 950 1255 950 1255 930 1260 c 1,8,-1
 844 1260 l 1,9,10
 815 1256 815 1256 815 1229 c 2,11,-1
 815 -477 l 2,12,13
 815 -502 815 -502 778 -498 c 0,14,15
 751 -496 751 -496 743 -491.5 c 128,-1,16
 735 -487 735 -487 733 -471 c 2,17,-1
 733 1219 l 2,18,19
 733 1260 733 1260 698 1260 c 2,20,-1
 588 1260 l 2,21,22
 557 1260 557 1260 553 1227 c 1,23,-1
 553 -479 l 2,24,25
 551 -497 551 -497 508 -498 c 0,26,27
 469 -498 469 -498 469 -475 c 2,28,-1
 469 489 l 2,29,30
 469 516 469 516 462 524 c 128,-1,31
 455 532 455 532 432 532 c 0,32,33
 127 538 127 538 29 731 c 0,34,35
 -18 821 -18 821 -18 928 c 0,0,1
EndSplineSet
Validated: 1
EndChar

StartChar: periodcentered
Encoding: 183 183 120
Width: 608
GlyphClass: 2
Flags: W
LayerCount: 2
Fore
SplineSet
270 602 m 128,-1,1
 270 647 270 647 302 679 c 128,-1,2
 334 711 334 711 377 711 c 0,3,4
 422 711 422 711 453.5 679 c 128,-1,5
 485 647 485 647 485 602 c 128,-1,6
 485 557 485 557 453.5 524.5 c 128,-1,7
 422 492 422 492 377 492 c 0,8,9
 334 492 334 492 302 524.5 c 128,-1,0
 270 557 270 557 270 602 c 128,-1,1
EndSplineSet
Validated: 1
EndChar

StartChar: cedilla
Encoding: 184 184 121
Width: 694
GlyphClass: 2
Flags: W
LayerCount: 2
Fore
SplineSet
80 -379 m 1,0,1
 80 -365 80 -365 94 -360 c 1,2,3
 119 -362 119 -362 137 -362 c 0,4,5
 225 -362 225 -362 272 -330.5 c 128,-1,6
 319 -299 319 -299 319 -240 c 0,7,8
 319 -172 319 -172 233 -164 c 0,9,10
 215 -162 215 -162 221 -141 c 1,11,-1
 289 -8 l 1,12,-1
 332 -8 l 1,13,-1
 309 -53 l 1,14,15
 362 -61 362 -61 393 -100.5 c 128,-1,16
 424 -140 424 -140 424 -197 c 0,17,18
 424 -295 424 -295 348 -350.5 c 128,-1,19
 272 -406 272 -406 141 -406 c 0,20,21
 125 -406 125 -406 96 -403 c 1,22,23
 73 -391 73 -391 80 -379 c 1,0,1
EndSplineSet
Validated: 1
EndChar

StartChar: uni00B9
Encoding: 185 185 122
Width: 651
GlyphClass: 2
Flags: W
LayerCount: 2
Fore
SplineSet
295 644 m 128,-1,1
 289 649 289 649 295 662 c 0,2,3
 301 680 301 680 308 682 c 128,-1,4
 315 684 315 684 352 684 c 0,5,6
 403 684 403 684 416 741 c 2,7,-1
 514 1171 l 2,8,9
 516 1194 516 1194 507 1198 c 128,-1,10
 498 1202 498 1202 489 1194 c 0,11,12
 413 1149 413 1149 342 1124 c 0,13,14
 328 1120 328 1120 322.5 1123 c 128,-1,15
 317 1126 317 1126 322 1137 c 2,16,-1
 330 1171 l 1,17,18
 484 1226 484 1226 586 1335 c 0,19,20
 609 1358 609 1358 618 1356 c 2,21,-1
 653 1356 l 2,22,23
 678 1356 678 1356 670 1319 c 2,24,-1
 537 743 l 2,25,26
 529 708 529 708 544 697 c 128,-1,27
 559 686 559 686 598 684 c 0,28,29
 610 684 610 684 617.5 679 c 128,-1,30
 625 674 625 674 623 662 c 0,31,32
 615 637 615 637 594 637 c 0,33,34
 426 641 426 641 330 639 c 0,35,36
 312 637 312 637 306.5 638 c 128,-1,0
 301 639 301 639 295 644 c 128,-1,1
EndSplineSet
Validated: 33
EndChar

StartChar: ordmasculine
Encoding: 186 186 123
Width: 542
GlyphClass: 2
Flags: W
LayerCount: 2
Fore
SplineSet
229 1020 m 0,0,1
 229 1192 229 1192 414 1305 c 0,2,3
 492 1356 492 1356 549 1356 c 0,4,5
 602 1356 602 1356 639 1299.5 c 128,-1,6
 676 1243 676 1243 676 1165 c 0,7,8
 676 1059 676 1059 610.5 972 c 128,-1,9
 545 885 545 885 428 836 c 0,10,11
 385 818 385 818 354 817 c 0,12,13
 305 817 305 817 267 878.5 c 128,-1,14
 229 940 229 940 229 1020 c 0,0,1
326 1016 m 0,15,16
 326 955 326 955 352.5 912.5 c 128,-1,17
 379 870 379 870 416 870 c 0,18,19
 479 870 479 870 531.5 955 c 128,-1,20
 584 1040 584 1040 584 1151 c 0,21,22
 584 1214 584 1214 554 1258.5 c 128,-1,23
 524 1303 524 1303 481 1303 c 0,24,25
 422 1303 422 1303 374 1215.5 c 128,-1,26
 326 1128 326 1128 326 1016 c 0,15,16
EndSplineSet
Validated: 1
EndChar

StartChar: guillemotright
Encoding: 187 187 124
Width: 913
GlyphClass: 2
Flags: W
LayerCount: 2
Fore
SplineSet
190 119 m 1,0,-1
 420 469 l 1,1,-1
 358 811 l 1,2,-1
 412 811 l 1,3,-1
 573 467 l 1,4,-1
 246 119 l 1,5,-1
 190 119 l 1,0,-1
469 72 m 1,6,-1
 772 469 l 1,7,-1
 647 862 l 1,8,-1
 700 862 l 1,9,-1
 926 467 l 1,10,-1
 522 72 l 1,11,-1
 469 72 l 1,6,-1
EndSplineSet
Validated: 1
EndChar

StartChar: onequarter
Encoding: 188 188 125
Width: 1714
GlyphClass: 2
Flags: W
LayerCount: 2
Fore
SplineSet
295 644 m 128,-1,1
 289 649 289 649 295 662 c 0,2,3
 301 680 301 680 308 682 c 128,-1,4
 315 684 315 684 352 684 c 0,5,6
 403 684 403 684 416 741 c 2,7,-1
 514 1171 l 2,8,9
 516 1194 516 1194 507 1198 c 128,-1,10
 498 1202 498 1202 489 1194 c 0,11,12
 413 1149 413 1149 342 1124 c 0,13,14
 328 1120 328 1120 322.5 1123 c 128,-1,15
 317 1126 317 1126 322 1137 c 2,16,-1
 330 1171 l 1,17,18
 484 1226 484 1226 586 1335 c 0,19,20
 609 1358 609 1358 618 1356 c 2,21,-1
 653 1356 l 2,22,23
 678 1356 678 1356 670 1319 c 2,24,-1
 537 743 l 2,25,26
 529 708 529 708 544 697 c 128,-1,27
 559 686 559 686 598 684 c 0,28,29
 610 684 610 684 617.5 679 c 128,-1,30
 625 674 625 674 623 662 c 0,31,32
 615 637 615 637 594 637 c 0,33,34
 426 641 426 641 330 639 c 0,35,36
 312 637 312 637 306.5 638 c 128,-1,0
 301 639 301 639 295 644 c 128,-1,1
322 -18 m 1,37,-1
 1559 1366 l 1,38,39
 1577 1393 1577 1393 1589.5 1398 c 128,-1,40
 1602 1403 1602 1403 1624 1393 c 1,41,42
 1660 1384 1660 1384 1642 1343 c 1,43,-1
 379 -70 l 1,44,45
 354 -78 354 -78 332 -61 c 1,46,47
 299 -51 299 -51 322 -18 c 1,37,-1
1128 223 m 0,48,49
 1118 243 1118 243 1151 274 c 2,50,-1
 1571 686 l 2,51,52
 1589 702 1589 702 1614 707 c 1,53,-1
 1634 707 l 2,54,55
 1657 707 1657 707 1647 659 c 2,56,-1
 1565 315 l 2,57,58
 1559 288 1559 288 1577 281 c 1,59,-1
 1647 281 l 2,60,61
 1663 281 1663 281 1663 256 c 1,62,-1
 1651 203 l 1,63,-1
 1559 203 l 1,64,65
 1534 187 1534 187 1528 164 c 2,66,-1
 1495 16 l 2,67,68
 1489 -17 1489 -17 1475 -18 c 0,69,70
 1471 -20 1471 -20 1464 -20 c 2,71,-1
 1393 -18 l 2,72,73
 1364 -18 1364 -18 1372 14 c 2,74,-1
 1409 168 l 2,75,76
 1415 195 1415 195 1397 203 c 1,77,-1
 1171 203 l 2,78,79
 1136 203 1136 203 1133 211 c 0,80,81
 1131 215 1131 215 1128 223 c 0,48,49
1262 305 m 1,82,83
 1248 282 1248 282 1266 281 c 2,84,-1
 1415 281 l 2,85,86
 1438 281 1438 281 1444 311 c 2,87,-1
 1483 487 l 2,88,89
 1487 505 1487 505 1481 509.5 c 128,-1,90
 1475 514 1475 514 1460 502 c 2,91,-1
 1262 305 l 1,82,83
EndSplineSet
Validated: 33
EndChar

StartChar: onehalf
Encoding: 189 189 126
Width: 1714
GlyphClass: 2
Flags: W
LayerCount: 2
Fore
SplineSet
295 644 m 128,-1,1
 289 649 289 649 295 662 c 0,2,3
 301 680 301 680 308 682 c 128,-1,4
 315 684 315 684 352 684 c 0,5,6
 403 684 403 684 416 741 c 2,7,-1
 514 1171 l 2,8,9
 516 1194 516 1194 507 1198 c 128,-1,10
 498 1202 498 1202 489 1194 c 0,11,12
 413 1149 413 1149 342 1124 c 0,13,14
 328 1120 328 1120 322.5 1123 c 128,-1,15
 317 1126 317 1126 322 1137 c 2,16,-1
 330 1171 l 1,17,18
 484 1226 484 1226 586 1335 c 0,19,20
 609 1358 609 1358 618 1356 c 2,21,-1
 653 1356 l 2,22,23
 678 1356 678 1356 670 1319 c 2,24,-1
 537 743 l 2,25,26
 529 708 529 708 544 697 c 128,-1,27
 559 686 559 686 598 684 c 0,28,29
 610 684 610 684 617.5 679 c 128,-1,30
 625 674 625 674 623 662 c 0,31,32
 615 637 615 637 594 637 c 0,33,34
 426 641 426 641 330 639 c 0,35,36
 312 637 312 637 306.5 638 c 128,-1,0
 301 639 301 639 295 644 c 128,-1,1
322 -18 m 1,37,-1
 1559 1366 l 1,38,39
 1577 1393 1577 1393 1589.5 1398 c 128,-1,40
 1602 1403 1602 1403 1624 1393 c 1,41,42
 1660 1384 1660 1384 1642 1343 c 1,43,-1
 379 -70 l 1,44,45
 354 -78 354 -78 332 -61 c 1,46,47
 299 -51 299 -51 322 -18 c 1,37,-1
1120 10 m 1,48,-1
 1120 29 l 1,49,50
 1132 39 1132 39 1184.5 83 c 128,-1,51
 1237 127 1237 127 1266.5 152.5 c 128,-1,52
 1296 178 1296 178 1348.5 225 c 128,-1,53
 1401 272 1401 272 1433.5 306 c 128,-1,54
 1466 340 1466 340 1499 379 c 128,-1,55
 1532 418 1532 418 1548 449 c 0,56,57
 1573 494 1573 494 1578 536 c 128,-1,58
 1583 578 1583 578 1556.5 608.5 c 128,-1,59
 1530 639 1530 639 1470 639 c 0,60,61
 1364 639 1364 639 1307 530 c 0,62,63
 1299 514 1299 514 1291.5 510 c 128,-1,64
 1284 506 1284 506 1264 506 c 0,65,66
 1239 506 1239 506 1249 535 c 0,67,68
 1276 617 1276 617 1339.5 662 c 128,-1,69
 1403 707 1403 707 1493 707 c 0,70,71
 1589 707 1589 707 1648.5 662 c 128,-1,72
 1708 617 1708 617 1708 545 c 0,73,74
 1708 439 1708 439 1499 279 c 0,75,76
 1466 254 1466 254 1407 205 c 128,-1,77
 1348 156 1348 156 1325 137 c 0,78,79
 1280 94 1280 94 1321 90 c 1,80,-1
 1497 90 l 2,81,82
 1563 90 1563 90 1571 133 c 0,83,84
 1573 156 1573 156 1599 156 c 0,85,86
 1613 156 1613 156 1617.5 155 c 128,-1,87
 1622 154 1622 154 1626 146.5 c 128,-1,88
 1630 139 1630 139 1624 123 c 2,89,-1
 1604 18 l 2,90,91
 1600 -7 1600 -7 1536 -4 c 0,92,93
 1438 2 1438 2 1163 -4 c 0,94,95
 1128 -6 1128 -6 1120 10 c 1,48,-1
EndSplineSet
Validated: 33
EndChar

StartChar: threequarters
Encoding: 190 190 127
Width: 1714
GlyphClass: 2
Flags: W
LayerCount: 2
Fore
SplineSet
186 684 m 0,0,1
 186 704 186 704 203.5 717.5 c 128,-1,2
 221 731 221 731 244 731 c 0,3,4
 258 731 258 731 300 711.5 c 128,-1,5
 342 692 342 692 373 692 c 0,6,7
 451 692 451 692 510 774 c 0,8,9
 567 848 567 848 567 928 c 0,10,11
 567 973 567 973 542.5 999.5 c 128,-1,12
 518 1026 518 1026 479 1026 c 0,13,14
 459 1026 459 1026 399 997 c 0,15,16
 372 985 372 985 362 1010 c 1,17,18
 366 1033 366 1033 391 1051 c 1,19,20
 514 1112 514 1112 558 1151 c 128,-1,21
 602 1190 602 1190 602 1229 c 0,22,23
 602 1258 602 1258 581.5 1276 c 128,-1,24
 561 1294 561 1294 528 1294 c 0,25,26
 475 1294 475 1294 418 1237 c 0,27,28
 402 1223 402 1223 397.5 1221 c 128,-1,29
 393 1219 393 1219 375 1227 c 1,30,31
 355 1243 355 1243 375 1266 c 0,32,33
 451 1356 451 1356 563 1356 c 0,34,35
 635 1356 635 1356 682 1323 c 128,-1,36
 729 1290 729 1290 729 1239 c 0,37,38
 729 1161 729 1161 612 1108 c 0,39,40
 600 1102 600 1102 601 1093.5 c 128,-1,41
 602 1085 602 1085 612 1081 c 0,42,43
 698 1052 698 1052 698 958 c 0,44,45
 698 860 698 860 613 772 c 128,-1,46
 528 684 528 684 399 645 c 1,47,48
 364 629 364 629 275 631 c 128,-1,49
 186 633 186 633 186 684 c 0,0,1
322 -18 m 1,50,-1
 1559 1366 l 1,51,52
 1577 1393 1577 1393 1589.5 1398 c 128,-1,53
 1602 1403 1602 1403 1624 1393 c 1,54,55
 1660 1384 1660 1384 1642 1343 c 1,56,-1
 379 -70 l 1,57,58
 354 -78 354 -78 332 -61 c 1,59,60
 299 -51 299 -51 322 -18 c 1,50,-1
1128 223 m 0,61,62
 1118 243 1118 243 1151 274 c 2,63,-1
 1571 686 l 2,64,65
 1589 702 1589 702 1614 707 c 1,66,-1
 1634 707 l 2,67,68
 1657 707 1657 707 1647 659 c 2,69,-1
 1565 315 l 2,70,71
 1559 288 1559 288 1577 281 c 1,72,-1
 1647 281 l 2,73,74
 1663 281 1663 281 1663 256 c 1,75,-1
 1651 203 l 1,76,-1
 1559 203 l 1,77,78
 1534 187 1534 187 1528 164 c 2,79,-1
 1495 16 l 2,80,81
 1489 -17 1489 -17 1475 -18 c 0,82,83
 1471 -20 1471 -20 1464 -20 c 2,84,-1
 1393 -18 l 2,85,86
 1364 -18 1364 -18 1372 14 c 2,87,-1
 1409 168 l 2,88,89
 1415 195 1415 195 1397 203 c 1,90,-1
 1171 203 l 2,91,92
 1136 203 1136 203 1133 211 c 0,93,94
 1131 215 1131 215 1128 223 c 0,61,62
1262 305 m 1,95,96
 1248 282 1248 282 1266 281 c 2,97,-1
 1415 281 l 2,98,99
 1438 281 1438 281 1444 311 c 2,100,-1
 1483 487 l 2,101,102
 1487 505 1487 505 1481 509.5 c 128,-1,103
 1475 514 1475 514 1460 502 c 2,104,-1
 1262 305 l 1,95,96
EndSplineSet
Validated: 33
EndChar

StartChar: questiondown
Encoding: 191 191 128
Width: 825
GlyphClass: 2
Flags: W
LayerCount: 2
Fore
SplineSet
106 -168 m 0,0,1
 106 37 106 37 215 139 c 0,2,3
 262 184 262 184 338 221 c 0,4,5
 416 260 416 260 446.5 285.5 c 128,-1,6
 477 311 477 311 502 356 c 0,7,8
 535 413 535 413 551 492 c 0,9,10
 557 512 557 512 569 514 c 2,11,-1
 590 514 l 2,12,13
 602 514 602 514 600 481 c 0,14,15
 575 241 575 241 506 150 c 0,16,17
 477 111 477 111 365 47 c 0,18,19
 267 -8 267 -8 225.5 -58.5 c 128,-1,20
 184 -109 184 -109 184 -172 c 0,21,22
 184 -242 184 -242 235.5 -289 c 128,-1,23
 287 -336 287 -336 365 -336 c 0,24,25
 418 -336 418 -336 492 -311 c 0,26,27
 519 -303 519 -303 537 -303 c 0,28,29
 564 -303 564 -303 579 -326.5 c 128,-1,30
 594 -350 594 -350 594 -385 c 0,31,32
 594 -434 594 -434 538.5 -466 c 128,-1,33
 483 -498 483 -498 403 -498 c 0,34,35
 272 -498 272 -498 189 -405.5 c 128,-1,36
 106 -313 106 -313 106 -168 c 0,0,1
539 756 m 0,37,38
 543 805 543 805 572.5 837.5 c 128,-1,39
 602 870 602 870 643 870 c 0,40,41
 682 870 682 870 704.5 841.5 c 128,-1,42
 727 813 727 813 727 768 c 0,43,44
 727 715 727 715 697.5 679 c 128,-1,45
 668 643 668 643 623 643 c 0,46,47
 576 643 576 643 556.5 680 c 128,-1,48
 537 717 537 717 539 756 c 0,37,38
EndSplineSet
Validated: 33
EndChar

StartChar: Agrave
Encoding: 192 192 129
Width: 1419
GlyphClass: 2
Flags: W
LayerCount: 2
Fore
SplineSet
-86 20 m 0,0,1
 -84 47 -84 47 -57 47 c 1,2,3
 25 63 25 63 74 98 c 128,-1,4
 123 133 123 133 203 238 c 2,5,-1
 1055 1346 l 2,6,7
 1059 1356 1059 1356 1077 1360 c 0,8,9
 1116 1372 1116 1372 1159 1360 c 0,10,11
 1184 1356 1184 1356 1184 1327 c 2,12,-1
 1196 164 l 2,13,14
 1196 105 1196 105 1221.5 82 c 128,-1,15
 1247 59 1247 59 1292 53 c 1,16,-1
 1350 53 l 1,17,-1
 1364 53 l 1,18,19
 1390 49 1390 49 1384 18 c 0,20,21
 1382 -5 1382 -5 1356 -4 c 0,22,23
 1149 6 1149 6 778 -4 c 0,24,25
 768 -4 768 -4 764 8 c 128,-1,26
 760 20 760 20 765 33.5 c 128,-1,27
 770 47 770 47 784 47 c 0,28,29
 919 47 919 47 966.5 82 c 128,-1,30
 1014 117 1014 117 1014 215 c 2,31,-1
 1012 549 l 2,32,33
 1012 555 1012 555 1001.5 563 c 128,-1,34
 991 571 991 571 983 571 c 2,35,-1
 580 571 l 2,36,37
 566 571 566 571 551 557 c 2,38,-1
 295 217 l 2,39,40
 256 166 256 166 256 131 c 0,41,42
 256 55 256 55 373 51 c 1,43,-1
 426 51 l 2,44,45
 438 51 438 51 442 38 c 128,-1,46
 446 25 446 25 439 10.5 c 128,-1,47
 432 -4 432 -4 420 -4 c 0,48,49
 191 4 191 4 -72 -4 c 0,50,51
 -90 -4 -90 -4 -86 20 c 0,0,1
656.5 674 m 128,-1,53
 664 664 664 664 686 664 c 2,54,-1
 977 666 l 2,55,56
 1016 665 1016 665 1016 694 c 2,57,-1
 1016 1118 l 2,58,59
 1016 1145 1016 1145 1002.5 1147 c 128,-1,60
 989 1149 989 1149 981 1135 c 2,61,-1
 657 694 l 2,62,52
 649 684 649 684 656.5 674 c 128,-1,53
932 1786.5 m 128,-1,64
 938 1794 938 1794 950 1794 c 2,65,-1
 1102 1794 l 2,66,67
 1122 1794 1122 1794 1126 1788 c 1,68,69
 1126 1788 1126 1788 1126 1786 c 2,70,-1
 1128 1782 l 1,71,-1
 1227 1470 l 2,72,73
 1229 1466 1229 1466 1225 1463 c 128,-1,74
 1221 1460 1221 1460 1212 1460 c 0,75,76
 1196 1460 1196 1460 1190 1468 c 2,77,-1
 938 1767 l 2,78,63
 926 1779 926 1779 932 1786.5 c 128,-1,64
EndSplineSet
Validated: 33
EndChar

StartChar: Aacute
Encoding: 193 193 130
Width: 1419
GlyphClass: 2
Flags: W
LayerCount: 2
Fore
SplineSet
-86 20 m 0,0,1
 -84 47 -84 47 -57 47 c 1,2,3
 25 63 25 63 74 98 c 128,-1,4
 123 133 123 133 203 238 c 2,5,-1
 1055 1346 l 2,6,7
 1059 1356 1059 1356 1077 1360 c 0,8,9
 1116 1372 1116 1372 1159 1360 c 0,10,11
 1184 1356 1184 1356 1184 1327 c 2,12,-1
 1196 164 l 2,13,14
 1196 105 1196 105 1221.5 82 c 128,-1,15
 1247 59 1247 59 1292 53 c 1,16,-1
 1350 53 l 1,17,-1
 1364 53 l 1,18,19
 1390 49 1390 49 1384 18 c 0,20,21
 1382 -5 1382 -5 1356 -4 c 0,22,23
 1149 6 1149 6 778 -4 c 0,24,25
 768 -4 768 -4 764 8 c 128,-1,26
 760 20 760 20 765 33.5 c 128,-1,27
 770 47 770 47 784 47 c 0,28,29
 919 47 919 47 966.5 82 c 128,-1,30
 1014 117 1014 117 1014 215 c 2,31,-1
 1012 549 l 2,32,33
 1012 555 1012 555 1001.5 563 c 128,-1,34
 991 571 991 571 983 571 c 2,35,-1
 580 571 l 2,36,37
 566 571 566 571 551 557 c 2,38,-1
 295 217 l 2,39,40
 256 166 256 166 256 131 c 0,41,42
 256 55 256 55 373 51 c 1,43,-1
 426 51 l 2,44,45
 438 51 438 51 442 38 c 128,-1,46
 446 25 446 25 439 10.5 c 128,-1,47
 432 -4 432 -4 420 -4 c 0,48,49
 191 4 191 4 -72 -4 c 0,50,51
 -90 -4 -90 -4 -86 20 c 0,0,1
656.5 674 m 128,-1,53
 664 664 664 664 686 664 c 2,54,-1
 977 666 l 2,55,56
 1016 665 1016 665 1016 694 c 2,57,-1
 1016 1118 l 2,58,59
 1016 1145 1016 1145 1002.5 1147 c 128,-1,60
 989 1149 989 1149 981 1135 c 2,61,-1
 657 694 l 2,62,52
 649 684 649 684 656.5 674 c 128,-1,53
1096 1479 m 0,63,64
 1174 1729 1174 1729 1182 1776 c 1,65,66
 1190 1796 1190 1796 1221 1796 c 0,67,68
 1311 1800 1311 1800 1354 1796 c 0,69,70
 1368 1798 1368 1798 1377 1790.5 c 128,-1,71
 1386 1783 1386 1783 1376 1767 c 0,72,73
 1349 1730 1349 1730 1305.5 1677 c 128,-1,74
 1262 1624 1262 1624 1199.5 1553.5 c 128,-1,75
 1137 1483 1137 1483 1126 1470 c 0,76,77
 1120 1464 1120 1464 1112 1463 c 128,-1,78
 1104 1462 1104 1462 1099 1466 c 128,-1,79
 1094 1470 1094 1470 1096 1479 c 0,63,64
EndSplineSet
Validated: 33
EndChar

StartChar: Acircumflex
Encoding: 194 194 131
Width: 1419
GlyphClass: 2
Flags: W
LayerCount: 2
Fore
SplineSet
-86 20 m 0,0,1
 -84 47 -84 47 -57 47 c 1,2,3
 25 63 25 63 74 98 c 128,-1,4
 123 133 123 133 203 238 c 2,5,-1
 1055 1346 l 2,6,7
 1059 1356 1059 1356 1077 1360 c 0,8,9
 1116 1372 1116 1372 1159 1360 c 0,10,11
 1184 1356 1184 1356 1184 1327 c 2,12,-1
 1196 164 l 2,13,14
 1196 105 1196 105 1221.5 82 c 128,-1,15
 1247 59 1247 59 1292 53 c 1,16,-1
 1350 53 l 1,17,-1
 1364 53 l 1,18,19
 1390 49 1390 49 1384 18 c 0,20,21
 1382 -5 1382 -5 1356 -4 c 0,22,23
 1149 6 1149 6 778 -4 c 0,24,25
 768 -4 768 -4 764 8 c 128,-1,26
 760 20 760 20 765 33.5 c 128,-1,27
 770 47 770 47 784 47 c 0,28,29
 919 47 919 47 966.5 82 c 128,-1,30
 1014 117 1014 117 1014 215 c 2,31,-1
 1012 549 l 2,32,33
 1012 555 1012 555 1001.5 563 c 128,-1,34
 991 571 991 571 983 571 c 2,35,-1
 580 571 l 2,36,37
 566 571 566 571 551 557 c 2,38,-1
 295 217 l 2,39,40
 256 166 256 166 256 131 c 0,41,42
 256 55 256 55 373 51 c 1,43,-1
 426 51 l 2,44,45
 438 51 438 51 442 38 c 128,-1,46
 446 25 446 25 439 10.5 c 128,-1,47
 432 -4 432 -4 420 -4 c 0,48,49
 191 4 191 4 -72 -4 c 0,50,51
 -90 -4 -90 -4 -86 20 c 0,0,1
656.5 674 m 128,-1,53
 664 664 664 664 686 664 c 2,54,-1
 977 666 l 2,55,56
 1016 665 1016 665 1016 694 c 2,57,-1
 1016 1118 l 2,58,59
 1016 1145 1016 1145 1002.5 1147 c 128,-1,60
 989 1149 989 1149 981 1135 c 2,61,-1
 657 694 l 2,62,52
 649 684 649 684 656.5 674 c 128,-1,53
848 1427 m 2,63,64
 836 1429 836 1429 848 1442 c 2,65,-1
 1147 1743 l 2,66,67
 1163 1761 1163 1761 1192 1761 c 0,68,69
 1204 1763 1204 1763 1240 1761 c 128,-1,70
 1276 1759 1276 1759 1282 1759 c 0,71,72
 1313 1757 1313 1757 1319 1729 c 2,73,-1
 1389 1448 l 2,74,75
 1393 1428 1393 1428 1378 1427 c 2,76,-1
 1366 1427 l 1,77,-1
 1204 1622 l 2,78,79
 1194 1634 1194 1634 1178 1624 c 2,80,-1
 872 1427 l 1,81,-1
 848 1427 l 2,63,64
EndSplineSet
Validated: 33
EndChar

StartChar: Atilde
Encoding: 195 195 132
Width: 1419
GlyphClass: 2
Flags: W
LayerCount: 2
Fore
SplineSet
-86 20 m 0,0,1
 -84 47 -84 47 -57 47 c 1,2,3
 25 63 25 63 74 98 c 128,-1,4
 123 133 123 133 203 238 c 2,5,-1
 1055 1346 l 2,6,7
 1059 1356 1059 1356 1077 1360 c 0,8,9
 1116 1372 1116 1372 1159 1360 c 0,10,11
 1184 1356 1184 1356 1184 1327 c 2,12,-1
 1196 164 l 2,13,14
 1196 105 1196 105 1221.5 82 c 128,-1,15
 1247 59 1247 59 1292 53 c 1,16,-1
 1350 53 l 1,17,-1
 1364 53 l 1,18,19
 1390 49 1390 49 1384 18 c 0,20,21
 1382 -5 1382 -5 1356 -4 c 0,22,23
 1149 6 1149 6 778 -4 c 0,24,25
 768 -4 768 -4 764 8 c 128,-1,26
 760 20 760 20 765 33.5 c 128,-1,27
 770 47 770 47 784 47 c 0,28,29
 919 47 919 47 966.5 82 c 128,-1,30
 1014 117 1014 117 1014 215 c 2,31,-1
 1012 549 l 2,32,33
 1012 555 1012 555 1001.5 563 c 128,-1,34
 991 571 991 571 983 571 c 2,35,-1
 580 571 l 2,36,37
 566 571 566 571 551 557 c 2,38,-1
 295 217 l 2,39,40
 256 166 256 166 256 131 c 0,41,42
 256 55 256 55 373 51 c 1,43,-1
 426 51 l 2,44,45
 438 51 438 51 442 38 c 128,-1,46
 446 25 446 25 439 10.5 c 128,-1,47
 432 -4 432 -4 420 -4 c 0,48,49
 191 4 191 4 -72 -4 c 0,50,51
 -90 -4 -90 -4 -86 20 c 0,0,1
656.5 674 m 128,-1,53
 664 664 664 664 686 664 c 2,54,-1
 977 666 l 2,55,56
 1016 665 1016 665 1016 694 c 2,57,-1
 1016 1118 l 2,58,59
 1016 1145 1016 1145 1002.5 1147 c 128,-1,60
 989 1149 989 1149 981 1135 c 2,61,-1
 657 694 l 2,62,52
 649 684 649 684 656.5 674 c 128,-1,53
825 1503 m 0,63,64
 848 1751 848 1751 1018 1751 c 0,65,66
 1088 1751 1088 1751 1199.5 1679.5 c 128,-1,67
 1311 1608 1311 1608 1346 1608 c 0,68,69
 1416 1608 1416 1608 1436 1729 c 0,70,71
 1438 1749 1438 1749 1458 1749 c 0,72,73
 1477 1749 1477 1749 1477 1722 c 0,74,75
 1477 1616 1477 1616 1422.5 1544.5 c 128,-1,76
 1368 1473 1368 1473 1286 1473 c 0,77,78
 1210 1473 1210 1473 1100.5 1544.5 c 128,-1,79
 991 1616 991 1616 958 1616 c 0,80,81
 919 1616 919 1616 900 1589.5 c 128,-1,82
 881 1563 881 1563 866 1491 c 0,83,84
 864 1475 864 1475 842 1475 c 0,85,86
 824 1475 824 1475 825 1503 c 0,63,64
EndSplineSet
Validated: 33
EndChar

StartChar: Adieresis
Encoding: 196 196 133
Width: 1419
GlyphClass: 2
Flags: W
LayerCount: 2
Fore
SplineSet
-86 20 m 0,0,1
 -84 47 -84 47 -57 47 c 1,2,3
 25 63 25 63 74 98 c 128,-1,4
 123 133 123 133 203 238 c 2,5,-1
 1055 1346 l 2,6,7
 1059 1356 1059 1356 1077 1360 c 0,8,9
 1116 1372 1116 1372 1159 1360 c 0,10,11
 1184 1356 1184 1356 1184 1327 c 2,12,-1
 1196 164 l 2,13,14
 1196 105 1196 105 1221.5 82 c 128,-1,15
 1247 59 1247 59 1292 53 c 1,16,-1
 1350 53 l 1,17,-1
 1364 53 l 1,18,19
 1390 49 1390 49 1384 18 c 0,20,21
 1382 -5 1382 -5 1356 -4 c 0,22,23
 1149 6 1149 6 778 -4 c 0,24,25
 768 -4 768 -4 764 8 c 128,-1,26
 760 20 760 20 765 33.5 c 128,-1,27
 770 47 770 47 784 47 c 0,28,29
 919 47 919 47 966.5 82 c 128,-1,30
 1014 117 1014 117 1014 215 c 2,31,-1
 1012 549 l 2,32,33
 1012 555 1012 555 1001.5 563 c 128,-1,34
 991 571 991 571 983 571 c 2,35,-1
 580 571 l 2,36,37
 566 571 566 571 551 557 c 2,38,-1
 295 217 l 2,39,40
 256 166 256 166 256 131 c 0,41,42
 256 55 256 55 373 51 c 1,43,-1
 426 51 l 2,44,45
 438 51 438 51 442 38 c 128,-1,46
 446 25 446 25 439 10.5 c 128,-1,47
 432 -4 432 -4 420 -4 c 0,48,49
 191 4 191 4 -72 -4 c 0,50,51
 -90 -4 -90 -4 -86 20 c 0,0,1
656.5 674 m 128,-1,53
 664 664 664 664 686 664 c 2,54,-1
 977 666 l 2,55,56
 1016 665 1016 665 1016 694 c 2,57,-1
 1016 1118 l 2,58,59
 1016 1145 1016 1145 1002.5 1147 c 128,-1,60
 989 1149 989 1149 981 1135 c 2,61,-1
 657 694 l 2,62,52
 649 684 649 684 656.5 674 c 128,-1,53
893 1546 m 0,63,64
 893 1591 893 1591 923.5 1623 c 128,-1,65
 954 1655 954 1655 999 1655 c 0,66,67
 1042 1655 1042 1655 1073 1623 c 128,-1,68
 1104 1591 1104 1591 1104 1546 c 0,69,70
 1104 1503 1104 1503 1072 1470.5 c 128,-1,71
 1040 1438 1040 1438 999 1438 c 0,72,73
 956 1438 956 1438 924.5 1470.5 c 128,-1,74
 893 1503 893 1503 893 1546 c 0,63,64
1235 1548 m 128,-1,76
 1235 1593 1235 1593 1266.5 1625 c 128,-1,77
 1298 1657 1298 1657 1341 1657 c 0,78,79
 1386 1657 1386 1657 1417 1625 c 128,-1,80
 1448 1593 1448 1593 1448 1548 c 128,-1,81
 1448 1503 1448 1503 1417 1470.5 c 128,-1,82
 1386 1438 1386 1438 1341 1438 c 0,83,84
 1298 1438 1298 1438 1266.5 1470.5 c 128,-1,75
 1235 1503 1235 1503 1235 1548 c 128,-1,76
EndSplineSet
Validated: 33
EndChar

StartChar: Aring
Encoding: 197 197 134
Width: 1419
GlyphClass: 2
Flags: W
LayerCount: 2
Fore
SplineSet
-86 20 m 0,0,1
 -84 47 -84 47 -57 47 c 1,2,3
 25 63 25 63 74 98 c 128,-1,4
 123 133 123 133 203 238 c 2,5,-1
 1055 1346 l 2,6,7
 1059 1356 1059 1356 1077 1360 c 0,8,9
 1116 1372 1116 1372 1159 1360 c 0,10,11
 1184 1356 1184 1356 1184 1327 c 2,12,-1
 1196 164 l 2,13,14
 1196 105 1196 105 1221.5 82 c 128,-1,15
 1247 59 1247 59 1292 53 c 1,16,-1
 1350 53 l 1,17,-1
 1364 53 l 1,18,19
 1390 49 1390 49 1384 18 c 0,20,21
 1382 -5 1382 -5 1356 -4 c 0,22,23
 1149 6 1149 6 778 -4 c 0,24,25
 768 -4 768 -4 764 8 c 128,-1,26
 760 20 760 20 765 33.5 c 128,-1,27
 770 47 770 47 784 47 c 0,28,29
 919 47 919 47 966.5 82 c 128,-1,30
 1014 117 1014 117 1014 215 c 2,31,-1
 1012 549 l 2,32,33
 1012 555 1012 555 1001.5 563 c 128,-1,34
 991 571 991 571 983 571 c 2,35,-1
 580 571 l 2,36,37
 566 571 566 571 551 557 c 2,38,-1
 295 217 l 2,39,40
 256 166 256 166 256 131 c 0,41,42
 256 55 256 55 373 51 c 1,43,-1
 426 51 l 2,44,45
 438 51 438 51 442 38 c 128,-1,46
 446 25 446 25 439 10.5 c 128,-1,47
 432 -4 432 -4 420 -4 c 0,48,49
 191 4 191 4 -72 -4 c 0,50,51
 -90 -4 -90 -4 -86 20 c 0,0,1
656.5 674 m 128,-1,53
 664 664 664 664 686 664 c 2,54,-1
 977 666 l 2,55,56
 1016 665 1016 665 1016 694 c 2,57,-1
 1016 1118 l 2,58,59
 1016 1145 1016 1145 1002.5 1147 c 128,-1,60
 989 1149 989 1149 981 1135 c 2,61,-1
 657 694 l 2,62,52
 649 684 649 684 656.5 674 c 128,-1,53
963 1620 m 128,-1,64
 963 1702 963 1702 1021 1761.5 c 128,-1,65
 1079 1821 1079 1821 1159 1821 c 0,66,67
 1241 1821 1241 1821 1297.5 1762.5 c 128,-1,68
 1354 1704 1354 1704 1354 1620 c 128,-1,69
 1354 1536 1354 1536 1297.5 1478.5 c 128,-1,70
 1241 1421 1241 1421 1159 1421 c 0,71,72
 1079 1421 1079 1421 1021 1479.5 c 128,-1,63
 963 1538 963 1538 963 1620 c 128,-1,64
1038 1620 m 0,73,74
 1038 1569 1038 1569 1073 1533 c 128,-1,75
 1108 1497 1108 1497 1159 1497 c 128,-1,76
 1210 1497 1210 1497 1246 1533 c 128,-1,77
 1282 1569 1282 1569 1282 1620 c 128,-1,78
 1282 1671 1282 1671 1246 1708 c 128,-1,79
 1210 1745 1210 1745 1159 1745 c 128,-1,80
 1108 1745 1108 1745 1073 1709 c 128,-1,81
 1038 1673 1038 1673 1038 1620 c 0,73,74
EndSplineSet
Validated: 33
EndChar

StartChar: AE
Encoding: 198 198 135
Width: 1976
GlyphClass: 2
Flags: W
LayerCount: 2
Fore
SplineSet
-53 20 m 1,0,1
 -47 38 -47 38 -35 43 c 0,2,3
 55 51 55 51 123 111 c 0,4,5
 180 158 180 158 231 223 c 0,6,7
 239 235 239 235 277 282.5 c 128,-1,8
 315 330 315 330 346 369 c 2,9,-1
 995 1196 l 2,10,11
 1015 1223 1015 1223 1016 1235 c 0,12,13
 1016 1251 1016 1251 990.5 1259.5 c 128,-1,14
 965 1268 965 1268 885 1274 c 0,15,16
 869 1276 869 1276 866.5 1282 c 128,-1,17
 864 1288 864 1288 870 1300 c 0,18,19
 880 1325 880 1325 901 1327 c 0,20,21
 1409 1319 1409 1319 1946 1323 c 0,22,23
 1973 1323 1973 1323 1982 1316.5 c 128,-1,24
 1991 1310 1991 1310 1991 1290 c 0,25,26
 1975 1167 1975 1167 1942 1032 c 1,27,28
 1926 1024 1926 1024 1921 1024 c 0,29,30
 1907 1022 1907 1022 1896 1032 c 1,31,-1
 1894 1059 l 2,32,33
 1884 1172 1884 1172 1839 1217 c 128,-1,34
 1794 1262 1794 1262 1681 1262 c 2,35,-1
 1317 1262 l 1,36,37
 1294 1258 1294 1258 1288 1229 c 2,38,-1
 1190 727 l 2,39,40
 1188 713 1188 713 1197 706.5 c 128,-1,41
 1206 700 1206 700 1221 700 c 2,42,-1
 1597 700 l 2,43,44
 1738 700 1738 700 1790 827 c 0,45,46
 1794 835 1794 835 1798 840.5 c 128,-1,47
 1802 846 1802 846 1804 846 c 128,-1,48
 1806 846 1806 846 1815 846 c 2,49,-1
 1823 846 l 1,50,51
 1839 842 1839 842 1835 819 c 0,52,53
 1794 688 1794 688 1769 487 c 0,54,55
 1765 460 1765 460 1743 461 c 2,56,-1
 1731 461 l 2,57,58
 1723 463 1723 463 1720.5 468 c 128,-1,59
 1718 473 1718 473 1720 483 c 2,60,-1
 1722 492 l 1,61,62
 1722 578 1722 578 1680 608.5 c 128,-1,63
 1638 639 1638 639 1516 639 c 2,64,-1
 1198 639 l 2,65,66
 1178 637 1178 637 1167 612 c 1,67,-1
 1083 195 l 2,68,69
 1079 170 1079 170 1079 156 c 0,70,71
 1079 101 1079 101 1119 79 c 128,-1,72
 1159 57 1159 57 1268 57 c 2,73,-1
 1403 57 l 2,74,75
 1577 57 1577 57 1714 150 c 0,76,77
 1763 183 1763 183 1791 211.5 c 128,-1,78
 1819 240 1819 240 1855 295 c 1,79,-1
 1884 295 l 2,80,81
 1898 295 1898 295 1888 264 c 2,82,-1
 1804 25 l 2,83,84
 1794 -4 1794 -4 1759 -4 c 0,85,86
 1198 4 1198 4 723 -4 c 0,87,88
 696 -4 696 -4 702 23 c 0,89,90
 708 43 708 43 733 43 c 0,91,92
 821 47 821 47 859 86 c 128,-1,93
 897 125 897 125 918 231 c 2,94,-1
 969 498 l 2,95,96
 973 512 973 512 968 517 c 128,-1,97
 963 522 963 522 944 522 c 2,98,-1
 573 522 l 2,99,100
 544 522 544 522 522 498 c 2,101,-1
 322 240 l 2,102,103
 256 154 256 154 256 115 c 128,-1,104
 256 76 256 76 281.5 61.5 c 128,-1,105
 307 47 307 47 391 43 c 1,106,107
 407 33 407 33 403 23 c 2,108,-1
 401 18 l 2,109,110
 399 14 399 14 396 11 c 128,-1,111
 393 8 393 8 390 4 c 128,-1,112
 387 0 387 0 381 -2 c 128,-1,113
 375 -4 375 -4 369 -4 c 0,114,115
 64 4 64 4 -45 -4 c 1,116,117
 -53 2 -53 2 -53 20 c 1,0,1
607 596 m 128,-1,119
 608 588 608 588 612 586 c 128,-1,120
 616 584 616 584 621 584 c 2,121,-1
 961 584 l 2,122,123
 981 584 981 584 993 616 c 1,124,-1
 1114 1227 l 1,125,126
 1114 1254 1114 1254 1098 1239 c 2,127,-1
 616 616 l 2,128,118
 606 604 606 604 607 596 c 128,-1,119
EndSplineSet
Validated: 33
EndChar

StartChar: Ccedilla
Encoding: 199 199 136
Width: 1458
GlyphClass: 2
Flags: W
LayerCount: 2
Fore
SplineSet
59 567 m 0,0,1
 59 786 59 786 187 967.5 c 128,-1,2
 315 1149 315 1149 537.5 1253.5 c 128,-1,3
 760 1358 760 1358 1026 1358 c 0,4,5
 1268 1358 1268 1358 1473 1266 c 0,6,7
 1500 1254 1500 1254 1489 1208 c 0,8,9
 1485 1194 1485 1194 1409 942 c 0,10,11
 1405 928 1405 928 1391.5 926 c 128,-1,12
 1378 924 1378 924 1369 932 c 128,-1,13
 1360 940 1360 940 1362 950 c 0,14,15
 1366 977 1366 977 1366 1001 c 0,16,17
 1366 1290 1366 1290 1012 1290 c 0,18,19
 701 1290 701 1290 479.5 1077 c 128,-1,20
 258 864 258 864 258 555 c 0,21,22
 258 313 258 313 381 172 c 128,-1,23
 504 31 504 31 723 31 c 0,24,25
 1051 31 1051 31 1268 342 c 0,26,27
 1272 350 1272 350 1286 351 c 128,-1,28
 1300 352 1300 352 1309.5 345 c 128,-1,29
 1319 338 1319 338 1315 326 c 0,30,31
 1254 170 1254 170 1208 4 c 0,32,33
 1206 -4 1206 -4 1193 -4 c 128,-1,34
 1180 -4 1180 -4 1169 4 c 1,35,36
 1136 14 1136 14 1108 14 c 0,37,38
 1075 14 1075 14 983 -4 c 0,39,40
 825 -37 825 -37 717 -37 c 1,41,-1
 700 -72 l 1,42,43
 753 -80 753 -80 784 -120 c 128,-1,44
 815 -160 815 -160 815 -215 c 0,45,46
 815 -313 815 -313 739.5 -368.5 c 128,-1,47
 664 -424 664 -424 532 -424 c 0,48,49
 516 -424 516 -424 487 -422 c 1,50,51
 464 -410 464 -410 471 -397 c 1,52,53
 471 -383 471 -383 485 -379 c 1,54,55
 510 -381 510 -381 528 -381 c 0,56,57
 616 -381 616 -381 663.5 -349 c 128,-1,58
 711 -317 711 -317 711 -258 c 0,59,60
 711 -190 711 -190 625 -182 c 0,61,62
 607 -180 607 -180 612 -160 c 1,63,-1
 674 -35 l 1,64,65
 410 -25 410 -25 234.5 138 c 128,-1,66
 59 301 59 301 59 567 c 0,0,1
EndSplineSet
Validated: 1
EndChar

StartChar: Egrave
Encoding: 200 200 137
Width: 1355
GlyphClass: 2
Flags: W
LayerCount: 2
Fore
SplineSet
4 27 m 0,0,1
 12 60 12 60 35 59 c 0,2,3
 47 61 47 61 70.5 60 c 128,-1,4
 94 59 94 59 102 59 c 0,5,6
 176 65 176 65 206 99 c 128,-1,7
 236 133 236 133 256 231 c 2,8,-1
 436 1090 l 2,9,10
 448 1147 448 1147 449 1178 c 0,11,12
 449 1268 449 1268 313 1268 c 2,13,-1
 260 1268 l 2,14,15
 237 1270 237 1270 242 1296 c 0,16,17
 248 1323 248 1323 281 1323 c 2,18,-1
 1327 1323 l 2,19,20
 1356 1323 1356 1323 1366 1314 c 128,-1,21
 1376 1305 1376 1305 1372 1276 c 0,22,23
 1349 1151 1349 1151 1319 1030 c 0,24,25
 1321 1024 1321 1024 1315 1021 c 128,-1,26
 1309 1018 1309 1018 1298 1018 c 0,27,28
 1286 1018 1286 1018 1281 1023 c 128,-1,29
 1276 1028 1276 1028 1275 1033 c 128,-1,30
 1274 1038 1274 1038 1276 1049.5 c 128,-1,31
 1278 1061 1278 1061 1278 1067 c 0,32,33
 1278 1169 1278 1169 1223.5 1214.5 c 128,-1,34
 1169 1260 1169 1260 1044 1260 c 2,35,-1
 700 1260 l 2,36,37
 655 1260 655 1260 649 1231 c 2,38,-1
 545 733 l 2,39,40
 543 719 543 719 553 713 c 128,-1,41
 563 707 563 707 586 707 c 2,42,-1
 922 707 l 2,43,44
 1014 707 1014 707 1061 735.5 c 128,-1,45
 1108 764 1108 764 1147 846 c 0,46,47
 1151 860 1151 860 1178 854 c 0,48,49
 1196 852 1196 852 1190 838 c 0,50,51
 1165 740 1165 740 1112 467 c 0,52,53
 1112 457 1112 457 1096 453 c 0,54,55
 1076 449 1076 449 1069 477 c 0,56,57
 1067 487 1067 487 1067 500 c 0,58,59
 1067 580 1067 580 1022 608.5 c 128,-1,60
 977 637 977 637 848 637 c 2,61,-1
 567 637 l 2,62,63
 524 637 524 637 518 608 c 2,64,-1
 432 199 l 1,65,66
 422 176 422 176 428 158.5 c 128,-1,67
 434 141 434 141 433 127 c 128,-1,68
 432 113 432 113 446.5 103.5 c 128,-1,69
 461 94 461 94 466 87 c 128,-1,70
 471 80 471 80 491.5 76 c 128,-1,71
 512 72 512 72 521 69 c 128,-1,72
 530 66 530 66 554 64.5 c 128,-1,73
 578 63 578 63 589 63 c 128,-1,74
 600 63 600 63 625 63 c 0,75,76
 631 63 631 63 633 63 c 2,77,-1
 776 63 l 2,78,79
 962 63 962 63 1079 147 c 0,80,81
 1134 186 1134 186 1160 211 c 128,-1,82
 1186 236 1186 236 1227 289 c 0,83,84
 1233 299 1233 299 1244 301 c 128,-1,85
 1255 303 1255 303 1262.5 299 c 128,-1,86
 1270 295 1270 295 1270 287 c 0,87,88
 1258 258 1258 258 1237.5 192.5 c 128,-1,89
 1217 127 1217 127 1200.5 75 c 128,-1,90
 1184 23 1184 23 1178 14 c 0,91,92
 1160 -4 1160 -4 1096 -4 c 0,93,94
 490 4 490 4 25 -4 c 0,95,96
 17 -4 17 -4 9.5 6 c 128,-1,97
 2 16 2 16 4 27 c 0,0,1
732 1787.5 m 128,-1,99
 737 1794 737 1794 748 1794 c 2,100,-1
 899 1794 l 2,101,102
 919 1794 919 1794 924 1788 c 0,103,104
 924 1786 924 1786 926 1782 c 2,105,-1
 1024 1470 l 2,106,107
 1026 1466 1026 1466 1022 1463 c 128,-1,108
 1018 1460 1018 1460 1010 1460 c 0,109,110
 996 1460 996 1460 987 1468 c 2,111,-1
 735 1767 l 2,112,98
 727 1781 727 1781 732 1787.5 c 128,-1,99
EndSplineSet
Validated: 33
EndChar

StartChar: Eacute
Encoding: 201 201 138
Width: 1355
GlyphClass: 2
Flags: W
LayerCount: 2
Fore
SplineSet
4 27 m 0,0,1
 12 60 12 60 35 59 c 0,2,3
 47 61 47 61 70.5 60 c 128,-1,4
 94 59 94 59 102 59 c 0,5,6
 176 65 176 65 206 99 c 128,-1,7
 236 133 236 133 256 231 c 2,8,-1
 436 1090 l 2,9,10
 448 1147 448 1147 449 1178 c 0,11,12
 449 1268 449 1268 313 1268 c 2,13,-1
 260 1268 l 2,14,15
 237 1270 237 1270 242 1296 c 0,16,17
 248 1323 248 1323 281 1323 c 2,18,-1
 1327 1323 l 2,19,20
 1356 1323 1356 1323 1366 1314 c 128,-1,21
 1376 1305 1376 1305 1372 1276 c 0,22,23
 1349 1151 1349 1151 1319 1030 c 0,24,25
 1321 1024 1321 1024 1315 1021 c 128,-1,26
 1309 1018 1309 1018 1298 1018 c 0,27,28
 1286 1018 1286 1018 1281 1023 c 128,-1,29
 1276 1028 1276 1028 1275 1033 c 128,-1,30
 1274 1038 1274 1038 1276 1049.5 c 128,-1,31
 1278 1061 1278 1061 1278 1067 c 0,32,33
 1278 1169 1278 1169 1223.5 1214.5 c 128,-1,34
 1169 1260 1169 1260 1044 1260 c 2,35,-1
 700 1260 l 2,36,37
 655 1260 655 1260 649 1231 c 2,38,-1
 545 733 l 2,39,40
 543 719 543 719 553 713 c 128,-1,41
 563 707 563 707 586 707 c 2,42,-1
 922 707 l 2,43,44
 1014 707 1014 707 1061 735.5 c 128,-1,45
 1108 764 1108 764 1147 846 c 0,46,47
 1151 860 1151 860 1178 854 c 0,48,49
 1196 852 1196 852 1190 838 c 0,50,51
 1165 740 1165 740 1112 467 c 0,52,53
 1112 457 1112 457 1096 453 c 0,54,55
 1076 449 1076 449 1069 477 c 0,56,57
 1067 487 1067 487 1067 500 c 0,58,59
 1067 580 1067 580 1022 608.5 c 128,-1,60
 977 637 977 637 848 637 c 2,61,-1
 567 637 l 2,62,63
 524 637 524 637 518 608 c 2,64,-1
 432 199 l 1,65,66
 422 176 422 176 428 158.5 c 128,-1,67
 434 141 434 141 433 127 c 128,-1,68
 432 113 432 113 446.5 103.5 c 128,-1,69
 461 94 461 94 466 87 c 128,-1,70
 471 80 471 80 491.5 76 c 128,-1,71
 512 72 512 72 521 69 c 128,-1,72
 530 66 530 66 554 64.5 c 128,-1,73
 578 63 578 63 589 63 c 128,-1,74
 600 63 600 63 625 63 c 0,75,76
 631 63 631 63 633 63 c 2,77,-1
 776 63 l 2,78,79
 962 63 962 63 1079 147 c 0,80,81
 1134 186 1134 186 1160 211 c 128,-1,82
 1186 236 1186 236 1227 289 c 0,83,84
 1233 299 1233 299 1244 301 c 128,-1,85
 1255 303 1255 303 1262.5 299 c 128,-1,86
 1270 295 1270 295 1270 287 c 0,87,88
 1258 258 1258 258 1237.5 192.5 c 128,-1,89
 1217 127 1217 127 1200.5 75 c 128,-1,90
 1184 23 1184 23 1178 14 c 0,91,92
 1160 -4 1160 -4 1096 -4 c 0,93,94
 490 4 490 4 25 -4 c 0,95,96
 17 -4 17 -4 9.5 6 c 128,-1,97
 2 16 2 16 4 27 c 0,0,1
872 1479 m 0,98,99
 950 1729 950 1729 958 1776 c 1,100,101
 966 1796 966 1796 997 1796 c 0,102,103
 1087 1800 1087 1800 1130 1796 c 0,104,105
 1144 1798 1144 1798 1153.5 1790.5 c 128,-1,106
 1163 1783 1163 1783 1153 1767 c 0,107,108
 1126 1730 1126 1730 1082 1677 c 128,-1,109
 1038 1624 1038 1624 975.5 1553.5 c 128,-1,110
 913 1483 913 1483 903 1470 c 0,111,112
 897 1464 897 1464 889 1463 c 128,-1,113
 881 1462 881 1462 875.5 1466 c 128,-1,114
 870 1470 870 1470 872 1479 c 0,98,99
EndSplineSet
Validated: 33
EndChar

StartChar: Ecircumflex
Encoding: 202 202 139
Width: 1355
GlyphClass: 2
Flags: W
LayerCount: 2
Fore
SplineSet
4 27 m 0,0,1
 12 60 12 60 35 59 c 0,2,3
 47 61 47 61 70.5 60 c 128,-1,4
 94 59 94 59 102 59 c 0,5,6
 176 65 176 65 206 99 c 128,-1,7
 236 133 236 133 256 231 c 2,8,-1
 436 1090 l 2,9,10
 448 1147 448 1147 449 1178 c 0,11,12
 449 1268 449 1268 313 1268 c 2,13,-1
 260 1268 l 2,14,15
 237 1270 237 1270 242 1296 c 0,16,17
 248 1323 248 1323 281 1323 c 2,18,-1
 1327 1323 l 2,19,20
 1356 1323 1356 1323 1366 1314 c 128,-1,21
 1376 1305 1376 1305 1372 1276 c 0,22,23
 1349 1151 1349 1151 1319 1030 c 0,24,25
 1321 1024 1321 1024 1315 1021 c 128,-1,26
 1309 1018 1309 1018 1298 1018 c 0,27,28
 1286 1018 1286 1018 1281 1023 c 128,-1,29
 1276 1028 1276 1028 1275 1033 c 128,-1,30
 1274 1038 1274 1038 1276 1049.5 c 128,-1,31
 1278 1061 1278 1061 1278 1067 c 0,32,33
 1278 1169 1278 1169 1223.5 1214.5 c 128,-1,34
 1169 1260 1169 1260 1044 1260 c 2,35,-1
 700 1260 l 2,36,37
 655 1260 655 1260 649 1231 c 2,38,-1
 545 733 l 2,39,40
 543 719 543 719 553 713 c 128,-1,41
 563 707 563 707 586 707 c 2,42,-1
 922 707 l 2,43,44
 1014 707 1014 707 1061 735.5 c 128,-1,45
 1108 764 1108 764 1147 846 c 0,46,47
 1151 860 1151 860 1178 854 c 0,48,49
 1196 852 1196 852 1190 838 c 0,50,51
 1165 740 1165 740 1112 467 c 0,52,53
 1112 457 1112 457 1096 453 c 0,54,55
 1076 449 1076 449 1069 477 c 0,56,57
 1067 487 1067 487 1067 500 c 0,58,59
 1067 580 1067 580 1022 608.5 c 128,-1,60
 977 637 977 637 848 637 c 2,61,-1
 567 637 l 2,62,63
 524 637 524 637 518 608 c 2,64,-1
 432 199 l 1,65,66
 422 176 422 176 428 158.5 c 128,-1,67
 434 141 434 141 433 127 c 128,-1,68
 432 113 432 113 446.5 103.5 c 128,-1,69
 461 94 461 94 466 87 c 128,-1,70
 471 80 471 80 491.5 76 c 128,-1,71
 512 72 512 72 521 69 c 128,-1,72
 530 66 530 66 554 64.5 c 128,-1,73
 578 63 578 63 589 63 c 128,-1,74
 600 63 600 63 625 63 c 0,75,76
 631 63 631 63 633 63 c 2,77,-1
 776 63 l 2,78,79
 962 63 962 63 1079 147 c 0,80,81
 1134 186 1134 186 1160 211 c 128,-1,82
 1186 236 1186 236 1227 289 c 0,83,84
 1233 299 1233 299 1244 301 c 128,-1,85
 1255 303 1255 303 1262.5 299 c 128,-1,86
 1270 295 1270 295 1270 287 c 0,87,88
 1258 258 1258 258 1237.5 192.5 c 128,-1,89
 1217 127 1217 127 1200.5 75 c 128,-1,90
 1184 23 1184 23 1178 14 c 0,91,92
 1160 -4 1160 -4 1096 -4 c 0,93,94
 490 4 490 4 25 -4 c 0,95,96
 17 -4 17 -4 9.5 6 c 128,-1,97
 2 16 2 16 4 27 c 0,0,1
586 1427 m 2,98,99
 574 1429 574 1429 586 1442 c 2,100,-1
 885 1743 l 2,101,102
 901 1761 901 1761 930 1761 c 0,103,104
 942 1763 942 1763 978 1761 c 128,-1,105
 1014 1759 1014 1759 1020 1759 c 0,106,107
 1051 1757 1051 1757 1057 1729 c 2,108,-1
 1126 1448 l 2,109,110
 1130 1428 1130 1428 1116 1427 c 2,111,-1
 1104 1427 l 1,112,-1
 942 1622 l 2,113,114
 932 1634 932 1634 915 1624 c 2,115,-1
 610 1427 l 1,116,-1
 586 1427 l 2,98,99
EndSplineSet
Validated: 33
EndChar

